<?xml version="1.0" encoding="utf-8"?>
<!-- Generator: Adobe Illustrator 25.0.0, SVG Export Plug-In . SVG Version: 6.00 Build 0)  -->
<svg version="1.1" id="Layer_1" xmlns="http://www.w3.org/2000/svg" xmlns:xlink="http://www.w3.org/1999/xlink" x="0px" y="0px"
	 viewBox="0 0 640 640" style="enable-background:new 0 0 640 640;" xml:space="preserve">
<style type="text/css">
	.st0{fill:url(#Path_14404_1_);}
	.st1{fill:#6C5148;}
	.st2{fill:#543C34;}
	.st3{fill:#937067;}
	.st4{fill:#553A30;}
	.st5{fill:#3D2923;}
	.st6{fill:#583F38;}
	.st7{fill:#634A44;}
	.st8{opacity:0.64;fill:#472F27;enable-background:new    ;}
	.st9{fill:#207C88;}
	.st10{fill:#29909C;}
	.st11{fill:#4D3830;}
	.st12{fill:#684B41;}
	.st13{fill:#B0897C;}
	.st14{fill:#A07367;}
	.st15{fill:#94645B;}
	.st16{fill:#D4A696;}
	.st17{fill:#D0A394;}
	.st18{fill:#DDD4C9;}
	.st19{fill:#776A62;}
	.st20{fill:#988A82;}
	.st21{fill:url(#Path_13286_1_);}
	.st22{fill:url(#Path_13287_1_);}
	.st23{fill:url(#Path_13288_1_);}
	.st24{fill:#2C9DB4;}
	.st25{fill:#45A5B8;}
	.st26{fill:#8E7E74;}
	.st27{fill:#CABFAF;}
	.st28{fill:#19849B;}
	.st29{fill:#9B8770;}
	.st30{fill:#54B2C6;}
	.st31{fill:url(#Path_13307_1_);}
	.st32{fill:url(#Path_13308_1_);}
	.st33{fill:url(#Path_13309_1_);}
	.st34{fill:#8C7E78;}
	.st35{fill:#4CBAD2;}
	.st36{fill:#2A95AB;}
	.st37{fill:#53A8B9;}
	.st38{fill:#218296;}
	.st39{fill:#117185;}
	.st40{fill:#543A2F;}
	.st41{fill:#67893B;}
	.st42{fill:url(#Ellipse_70_1_);}
	.st43{opacity:0.3;fill:url(#Path_14139_1_);enable-background:new    ;}
	.st44{opacity:0.7;fill:url(#Path_14140_1_);enable-background:new    ;}
	.st45{fill:url(#Ellipse_71_1_);}
	.st46{opacity:0.3;fill:url(#Ellipse_72_1_);enable-background:new    ;}
	.st47{opacity:0.7;fill:url(#Path_14142_1_);enable-background:new    ;}
	.st48{fill:url(#Ellipse_73_1_);}
	.st49{opacity:0.3;fill:url(#Ellipse_74_1_);enable-background:new    ;}
	.st50{opacity:0.7;fill:url(#Path_14144_1_);enable-background:new    ;}
	.st51{fill:#938548;}
	.st52{fill:#4C4219;}
	.st53{fill:#437B3A;}
	.st54{fill:#589C43;}
	.st55{fill:#70808D;}
	.st56{fill:#8697A3;}
	.st57{fill:#8194A2;}
	.st58{fill:#A5B7C3;}
	.st59{fill:#EAE1DB;}
	.st60{fill:#94A7B5;}
	.st61{fill:#7A8C99;}
	.st62{fill:#B0C5D4;}
</style>
<g id="Group_17534" transform="translate(-937.069 -482.074)">
	<g id="Group_17533" transform="translate(1002.439 585.273)">
		<g id="Group_17522" transform="translate(0.079 37.864)">
			
				<linearGradient id="Path_14404_1_" gradientUnits="userSpaceOnUse" x1="-64.0342" y1="493.4431" x2="-61.4656" y2="493.4431" gradientTransform="matrix(176.719 0 0 -69.1786 11412.7754 34485.3125)">
				<stop  offset="0" style="stop-color:#937064"/>
				<stop  offset="1" style="stop-color:#5E453E"/>
			</linearGradient>
			<path id="Path_14404" class="st0" d="M550.2,263.5c-0.1-0.5-0.1-1-0.1-1.5c-0.1-0.3-0.1-0.6-0.2-0.9c-5.1,7.2-11.1,13.7-18,19.2
				c-16.4,13.1-38.2,24-59.4,26.7c-55.1,28.2-118.1,23.3-182.3,20c-32.1-1.6-64.7-2.9-96.2-9.5c-14.3-3-32-6.8-44.5-16
				c-2.9,0.7-6.2,1.6-10,2.5c-26.6,6.9-38.8-51.6-42.4-41.9c-0.1,0.3-0.3,0.8-0.4,1.3c0.7,4,1.1,8.1,1.2,12.2
				c3.6,18.6,5.9,37.5,7,56.4c1.2,5.7,2.7,11.9,6.8,15.8c3.4,2.7,6.4,5.7,9.1,9.1c2.9,4.8,4.8,10.2,5.7,15.8c0,0.1,0.1,0.1,0.1,0.2
				c1.6,5.9,3,11.8,4.4,17.7c7.7,17.5,44.6,24.4,61.3,25.8c13.9,1.2,28.6,0,42.2,4.2c19.5,6,36.3,16.1,57.2,17.3
				c16.7,1,33.6,0.5,50.2,0c18.7-0.6,39-3.6,58.2-1.8c9.3-1.1,18.5-2.9,27.6-5.4c7.5-4.2,14.9-8.3,22.3-12.7
				c8.7-5.1,20.1-3.6,28.9-8.7c11.8-6.8,15.5-16.6,21.6-27.8c1.1-2,2.2-3.9,3.3-5.6c2-4.8,4.3-9.5,8.8-12.3
				c6.8-4.3,15.2-6.4,19.9-13.4c4.8-19.3,15.1-57.4,17.8-79.2c-0.1-2.3,0-4.6,0.1-6.8h0L550.2,263.5z"/>
			<path id="Path_14405" class="st1" d="M291.6,437.8c13.6,0.8,27.4,0.6,41.1,0.2c8.1-34.1,27.7-66.5,54.1-88
				c-22.9-2.3-45.9-3.1-68.9-2.6c-11.1,0.4-30.7-1.5-43.8,2.2c0,0.9,0.1,1.7,0,2.6c-1.2,11.3-1.8,22.6-1.8,34
				c1.2,16.3,2.1,32.6,2.9,48.8C280.5,436.5,286,437.5,291.6,437.8z"/>
			<path id="Path_14406" class="st2" d="M428.7,429.9c-1.5-6.7-2.5-13.5-3.1-20.4c-1.3-20.3-1.3-40.5-1.2-60.7
				c-23.8,1.2-55.9-5.7-78.2,0c24.1,1.6,56.1,16.3,60.7,48.1c1.8,12.3,2.2,25.1,3.1,37.7c5.9-1.1,11.7-2.5,17.5-4
				C428,430.3,428.4,430.1,428.7,429.9z"/>
			<path id="Path_14407" class="st1" d="M212.7,417.3c5.2,0.2,10.3,0.8,15.4,1.7c0.3-8.2,2-16.4,5-24.1c6.3-15.3,13.9-27.2,31-30.7
				c12.6-2.6,17,3.3,13.7-12.8c-0.6-2.7-1-4.9-1.3-7c-16.6-11.3-35.5-18.1-55.8-16.5c-0.7,0-1.4,0-2.1,0c-0.7,1.2-1.5,2.2-2.4,3.2
				c-0.4,0.4-0.8,0.9-1.3,1.4C215.8,360.8,215,389.1,212.7,417.3z"/>
			<path id="Path_14408" class="st3" d="M174.6,331.5c-14.2-6.7-27.4-15.4-41.5-22.1c-1.8-0.9-11.6,27.2-16.5,42.7
				c1.6,1.4,3,3,4.2,4.7c2.9,4.8,4.8,10.2,5.7,15.8c0,0.1,0.1,0.1,0.1,0.2c1.6,5.8,3,11.7,4.3,17.6c2.8,5.6,7.4,10.2,13.1,13
				c7.1-25.3,18.3-49.3,33.4-70.9C176.4,332.3,175.5,331.9,174.6,331.5z"/>
			<path id="Path_14409" class="st4" d="M427.6,430.6c7.5-4.2,14.9-8.3,22.3-12.7c3-1.6,6.2-2.8,9.6-3.4v-0.1
				c-0.2-0.4-0.4-0.8-0.5-1.3c-5.3-16.9-6.6-34-7-51.1c-0.5-4.5-0.9-9-1.3-13.5c-0.2-1.9-0.1-3.9,0.2-5.8
				c-12.5,2.2-24.9,6.5-32,14.5c-6.7,7.4-1.1,30,0.4,38.8c2,11.2,4.8,22.9,7.5,34.8C427,430.7,427.3,430.7,427.6,430.6z"/>
			<path id="Path_14410" class="st5" d="M478.8,409.2c11.8-6.8,15.5-16.6,21.6-27.8c1.1-2.1,2.2-3.9,3.3-5.6c0.8-2,1.8-4,2.9-5.9
				c-2.3-21.3,0.1-42.8,6.8-63.1c-10.8,4-22.1,6.8-33.5,8.1c-2.1,0.2-4.2,0.1-6.2-0.4c-5.4,31.5-1.3,63.5,3.3,95.6
				C477.5,409.8,478.1,409.6,478.8,409.2z"/>
			<path id="Path_14411" class="st2" d="M270.5,410.3c-0.4,5-0.6,10-0.9,15c0.3,2.8,0.6,5.6,0.9,8.4c2.3,0.7,4.7,1.4,7.1,2
				c0.3-21.1,5.2-45.1,12.8-54.4c9.3-11.4,30.6-16.8,44.3-20.6c0.3-0.1,0.5-0.2,0.8-0.3c1.9-0.7,22.3-12.5,24.2-13.2
				c-24.2-1-66.9,6.8-90.4,2.2C273.7,369.5,272.1,389.3,270.5,410.3z"/>
			<path id="Path_14412" class="st5" d="M428.9,429.8c-3.3-32,0.1-60.8,23.6-91.7c2.5-3.3,5.2-6.7,7.7-10.1c-6,0.4-12,1-18,2
				c-11.6,3.1-22.6,8.2-32.6,15c0.4,1.7,0.6,3.5,0.6,5.2c1.4,3.2,2.3,6.5,2.6,10c0.4,5.8,0.6,11.5,0.6,17.1
				c0.9,17.9,2.6,36.7,5.3,55.3c3-0.7,5.9-1.5,8.9-2.2C428.1,430.3,428.5,430.1,428.9,429.8z"/>
			<path id="Path_14413" class="st1" d="M104.9,331.9c1.2,5.7,2.7,11.9,6.8,15.8c3.4,2.7,6.4,5.7,9.1,9.1c2.7,4.6,4.6,9.6,5.5,14.9
				c0.3-2.1,0.5-4.1,0.6-5.8c2.4-15.7,3.6-31.6,3.7-47.5c15.8-44.5-30.2-65.5-33.5-56.5c-0.1,0.3-0.3,0.8-0.4,1.3
				c0.7,4,1.1,8.1,1.2,12.2C101.4,294.2,103.8,313,104.9,331.9z"/>
			<path id="Path_14414" class="st6" d="M103.4,312.3c4.6,10.7,6.9,22.2,6.8,33.8c0.4,0.6,0.9,1.1,1.4,1.6c3.4,2.7,6.4,5.7,9.1,9.1
				c2.7,4.6,4.6,9.6,5.5,14.9c0.3-2.1,0.5-4.1,0.6-5.8c2.4-15.7,3.6-31.6,3.7-47.5c15.8-44.5-30.2-65.5-33.5-56.5
				c-0.1,0.3-0.3,0.8-0.4,1.4c0.7,4,1.1,8.1,1.2,12.2C100.3,287.7,102.1,300,103.4,312.3z"/>
			<path id="Path_14415" class="st4" d="M199.5,416.8c7.3,0.3,14.6,0.4,21.8,1.2c-0.2-8.3-0.2-16.7-0.1-25.2
				c0.3-21.3-3.5-44.8-0.7-66.6c-0.8,0.1-1.6,0.1-2.5,0.2c-7.5,0.6-14.9,0.7-22.4,0.1C199,356.2,201.5,386.8,199.5,416.8z"/>
			<path id="Path_14416" class="st7" d="M478.8,409.2c2.6-1.5,5.1-3.4,7.3-5.5c-6.9-24.2-3.1-32.2-1.3-61c-8.8-15-29.8-15-42.3-11.3
				c1.3,28.1,6.8,56.2,13,84.1C463.1,413.2,471.7,413.3,478.8,409.2z"/>
			<path id="Path_14417" class="st8" d="M550.2,263.5c-0.1-0.5-0.1-1-0.1-1.5c-0.1-0.3-0.1-0.6-0.2-0.9c-1.3,1.9-2.6,3.6-4,5.4
				c-5.4,9.9-11.4,19.2-20.6,26.6c-7.4,6.2-15.6,11.3-24.5,15.1c-6.8,2.8-14.1,5-20.4,8.8c-7.5,4.5-4.3,9-1.9,14.3
				c12.3-11,33.2-12.6,37.2,7c1.5,7.4,2.2,14.8,2.1,22.3c5.5-2.7,11.1-5.2,14.6-10.5c4.8-19.3,15.1-57.4,17.8-79.2
				c-0.1-2.3,0-4.6,0.1-6.8h0L550.2,263.5z"/>
		</g>
		<path id="Path_14418" class="st9" d="M298.1,207c-0.1,0-0.2,0-0.3,0L298.1,207z"/>
		<path id="Path_14419" class="st9" d="M298.1,207L298.1,207L298.1,207L298.1,207z"/>
		<path id="Path_14420" class="st10" d="M300.8,216.2l-0.1-0.4L300.8,216.2L300.8,216.2z"/>
		<g id="Group_17532" transform="translate(0)">
			<path id="Path_14421" class="st11" d="M396.7,390.1c6.7-8.7,19-11.4,29.5-12.3c2.6-0.7,5.3-1.3,8-1.6c0.1-1.9,0.2-3.8,0.3-5.6
				c0.4-7.7,0.2-15.4-0.6-23c-7.2,3-24.7,12.4-31.7,15.9c-0.1,0.1-5.6,13.5-12.1,30.4c1.6-0.2,3.1-0.6,4.5-1.3
				c0.3-0.2,0.6-0.3,0.9-0.4C395.9,391.4,396.2,390.7,396.7,390.1z"/>
			<path id="Path_14422" class="st1" d="M376.9,385.2c0.2,0,0.3,0.1,0.4,0.1c0-0.1,0.1-0.3,0.1-0.4L376.9,385.2z"/>
			<path id="Path_14423" class="st12" d="M109.7,267.1c0.2,13.1,18.5,39.3,21.9,51.7c1.6,5.8,4.2,11,5.4,17.1
				c1.2,6.3-0.2,13.8,1.9,19.3c25.3-2,34.5-20.6,28.4-45.7C161.3,285.4,128.1,270.9,109.7,267.1z"/>
			<path id="Path_14424" class="st8" d="M121.3,267.1c-11.6,0-10.6,2.6-10.8,5.4c8,10.7,29.7,42.7,31.5,55.1
				c1.8-0.7,3.6-1.6,5.2-2.6c3.8-3,6.6-7.1,8.1-11.7c2.9-12.5-9.4-22.1-19.8-28.7C134.2,284.4,122.7,267.4,121.3,267.1z"/>
			<g id="Group_17523">
				<path id="Path_14425" class="st13" d="M549.7,294.7c0,0-4.4-44.5-58.9-54.8c-2-0.4-22.9-6.9-22.8-8.5
					c0-1.7-41.4-28.5-107.7-30.8c-16.9-0.6-63.8,4.4-88.8,7.1c-8.9,1-15,1.7-16,1.7L231,210c-22.3,1.4-40.9,20.4-41.2,20.5
					c-9.3,1.2-10.4,0.5-37.5,7.5c-23.8,6.1-39.4,20.5-42.6,29.1c-2.7,7.5,21.4,5.2,21.6,12.5c0,0-29.4,4.9-34.5,13.4
					c0,0-5.8,34.6,34.3,51.3l-1,12.4c16.2,11,59.1,26.5,67,26.2c0,0,21.5-12.6,24-12.1c13.4,2.5,42.9,26.3,49,27.5
					c12.3,2.5,27.3-3.3,38.6-0.7c8.8-1.8,17.7-2.6,26.7-2.3c26.5-2.8,53.3-2.4,78.8,4.8c10.7-10.9,26.9-24.7,28.4-22.2
					c0,0,32.6-0.2,42.1,5c2.4-10.9-8.1-19.2-8.1-19.2s42.1-16.5,57.5-24.2C537.3,337.9,552.1,320.9,549.7,294.7z"/>
			</g>
			<g id="Group_17524" transform="translate(8.025 1.45)">
				<path id="Path_14426" class="st14" d="M110.4,333.6c0.1,0,0.1,0,0.2,0c-0.5-0.4-1-0.8-1.4-1.2L110.4,333.6z"/>
				<path id="Path_14427" class="st15" d="M197.7,312.2c-7.5,2.8-15.3,6.3-23.2,6.2c-8.6-0.1-18.6-1-27.4-1.8
					c-5,11.5-24.4,20.1-35.4,16.3c-0.3,0.6-0.7,0.6-1.1,0.6c2.6,2.3,5.4,4.4,8.5,6c5,2.3,6.9,0,11-2.8c6.7-4.6,15.5-10.6,23.2-12.8
					c9.7-2.9,20.5,0.7,30.4-1.4c8.4-1.8,18.8-7.3,27.5-10.4c5.3-1.8,12.1-3.6,16.6-6.5c4.4,0.5,33-7.6,33-8.6
					c-6.6,1.8-16.7-3-24-4.5c-5.2-1.1-18.4-3-25-4c5.7,1.3,10.3,4.4,15.6,6c5.1,1.6,11,0.4,15.8,3.5c-8.4,1.7-17.2,2.9-25.5,5.3
					C210.7,305.6,204.3,309.7,197.7,312.2z"/>
				<path id="Path_14428" class="st15" d="M164.5,266.3c4.5-2.9,10.5-5.6,14-9.5c-8.4,3.6-16.1,10.1-24.8,13.2
					c-7.4,2.6-9.5,0.9-24.5,4.6c-6.5-2-8.2-4.3-11.9-3.9c0.8,0.4,2,1.1,2.2,1c3.2,1.9,4.2,3.9,8,4.5c3.7,0.6,7.4-1.7,11-2.4
					c6.5-1.3,13.6,1.4,20.1,2.4c7.3,1.3,14.4,3.2,21.4,5.7c6.8,2.2,13.8,3.1,22.6,5.2c3-0.4,28.2,1.6,33.5-0.8
					c4.9-2.2,12.1-4.4,16.9-7.1c-15.6,6.2-32.6,8.4-49.3,6.5c0,0.3-37.6-11.6-37.8-11.4c-2.2-1.3-10.1,0.7-9.7-2.2
					C156.5,270.5,163.4,267,164.5,266.3z"/>
				<path id="Path_14429" class="st14" d="M225.2,335.8c1.2-3.4,1.2-3.6-2.2-4.7c-2.1-0.7-20.5-7.2-24.4-8.2
					c-3.3-0.9-11.8-5.3-13.9-0.8c4.3,1.1,16.7,4.7,20,5.9c6,2,12.1,2.9,17.7,5.4c0,0.3-2.6,12.7-3.7,16.4
					C221.9,346.7,223.8,339.8,225.2,335.8z"/>
				<path id="Path_14430" class="st14" d="M184.7,322.2c0-0.1,0.1-0.1,0.1-0.1c-0.3-0.1-0.5-0.1-0.7-0.2L184.7,322.2z"/>
				<path id="Path_14431" class="st15" d="M304,335.9c-0.7,1.4,3,0.7,6.3,3.1c1.8,1.3,14.1,9.6,17.9,13.3
					c6.3,6.1,28.9,32.2,29.5,34.6c2.6,1.6,1,1.6,3.7,1.6c1.6-3.1-15-21.6-16.9-24c-3.4-4.1-32.7-27.8-34.2-30.6
					c-2.6-4.8,6.8-11.2,9.6-15.4c5.1-7.5,17.4-21.8,8-29.1c2.9,6.4-0.5,13.8-3.6,20C322.4,313.4,306.2,331.8,304,335.9z"/>
				<path id="Path_14432" class="st15" d="M268.8,300.2c15.9-5.9,43.5,2.2,57,10.2c-4.6-7.5-15.4-10.2-23.4-12.3
					C290.5,294.9,279,294.7,268.8,300.2z"/>
				<path id="Path_14433" class="st15" d="M221.6,349c-10.2,5.2-7.9,9.3-7.5,20.4c0-5.8-0.5-15.6,20.8-20
					c11.7-2.5,34.7-10.3,75.4-12.8c-6.9-2.8-22.7-0.8-30.6,0C269.8,337.6,230,344.7,221.6,349z"/>
				<path id="Path_14434" class="st14" d="M459.9,231.9l0,0.2C460,231.9,460.3,231.5,459.9,231.9z"/>
				<path id="Path_14435" class="st15" d="M459.8,232c-0.1,0.1-0.1,0.1,0-0.2l-0.9,0.9c-1.4,4.7-42.6,42.2-54.5,42.9
					c-21.6,1.3-54.5,0.6-72.5,13.4c27.8-6.8,56.7-7,74.4-8.8C417.8,279,458.5,244.2,459.8,232z"/>
				<path id="Path_14436" class="st15" d="M465.5,363l0.9-1.9c-5.3-10.2-41.1-20.5-53.2-19.8c-1.3-10.8,6.1-23.2,3.1-34.4
					c1.4-5.8-1.2-24.8-7.5-29c6.3,22.6,6.2,49.9-3.9,72.1C415.3,341.9,457.3,354.5,465.5,363z"/>
				<path id="Path_14437" class="st15" d="M406.3,347.8c-6.7,0-59.6,21.3-54.9,30c15.6-13.3,53.8-28,54.9-28.3V347.8z"/>
				<path id="Path_14438" class="st14" d="M511.7,343.4C510.8,342.2,512.3,344.2,511.7,343.4z"/>
				<path id="Path_14439" class="st15" d="M508.5,281.8c7.5-3.4,16.6-4.2,23.1-7.4c-2.3-0.6-30.4,8.7-35.4,10.9
					c-8,3.4-74.6-20.6-80.1-12.1c7.1-1,29.2,3.1,36.2,6.9c6,3.3,39.2,5.1,41.2,10.1c2.7,7,9.8,44.6,18.3,53.1
					c-4.2-6.2-5.2-15.3-6.9-22.2c-2-7.9-4.4-16.6-6.3-24.4C496.3,287.6,500.2,285.6,508.5,281.8z"/>
				<path id="Path_14440" class="st15" d="M181.3,231.1c-0.1-0.1-0.3-0.3-0.5-0.6c-0.9,7.8-0.7,17.8-2.7,25.1
					c9.4,0.5,19-0.6,28.6-0.6c8.8,0,52,5.4,67.1-1.7c7.5,4.4,18.3,10,25.4,14.3c4.7,1.4,16.1,8.7,20.8,10.4
					c-14.5-8.7-34.5-24.8-36.8-26.3c-4.9-3.2-5.4-35.3-2.7-44.4c-5.7,6.3-4.2,13.3-5,21.3c-0.7,6.7-4.4,14.9-2.3,21.4
					c-14.7,2.3-29.5,3.1-44.3,2.4c-15.1-0.7-30.6,0.7-45.8-0.3c2.4-6.7-3.4-13.2-2.1-20.5C181.1,231.3,181.2,231.2,181.3,231.1z"/>
				<path id="Path_14441" class="st15" d="M359.7,226c-6.9,4.5-47.6,11.2-57,13.1c-0.2,0-0.5,0.1-0.7,0.1c-3.6,1.3-7.1,2.6-10.7,4
					c12.1-1.1,30.7-3.5,57.3-8.6c12.9-2.5,18.2-10.2,30.9-7.1c11.5,2.9,60.3,14.1,64.5,21.6l2.9-1.4c0.4,0,0.9,0.1,1.2,0.1
					c-13.7-10.1-68.2-23-75.8-27.2c-6.8-3.7-8.7-11.4-11.4-17.9C357.1,212.1,370,219.3,359.7,226z"/>
			</g>
			<path id="Path_14442" class="st16" d="M162.4,330.1c19.9-6.6,45.4,0,60.8,4.2c-12.5-6.7-31.3-7.7-48-7.7
				c-8.4-0.5-16.7,1.9-23.6,6.6c-6.3,3.8-20.7,9.1-18,24.2c3.2,5.1,15.8,9.2,21.4,9.9c-9.2-4.8-21.9-11-19.3-18.2
				C138.5,341.7,156.3,332.2,162.4,330.1z"/>
			<path id="Path_14443" class="st16" d="M302,342.4c-11.5,2.1-78.4,9.4-75.1,22.2c3.6,6.7,18.5,11.6,19.1,12.3
				c-1.3-2.1-19.2-7.3-12-15.7C240.7,353.3,288.3,347,302,342.4z"/>
			<g id="Group_17531" transform="translate(0.002 3.602)">
				<g id="Group_17525" transform="translate(60.584 68.691)">
					<path id="Path_14444" class="st16" d="M209.5,326.1c12.3,2.5,27.3-3.3,38.6-0.7c8.8-1.8,17.7-2.6,26.7-2.3
						c26.5-2.8,53.3-2.4,78.8,4.8c1-1,2.1-2.1,3.2-3.1c-10.7-3.5-21.5-6.5-32.5-8.8c-4.4-1-9.2-2.6-13.7-2c-4.7,0.6-9,2-13.6,2.8
						c-6.7,1.2-13.6,1.6-20.4,2.2c-16.2,1.4-32.6,3.2-48.8,3.4c-13.4,0.1-24-3.6-36.3-7C199.8,320.7,206.9,325.5,209.5,326.1z"/>
				</g>
				<g id="Group_17526">
					<path id="Path_14445" class="st16" d="M159.4,235.1c9.5-1.9,19.4-2.7,28.5-6.2c8.7-3.6,17.1-7.8,25.2-12.5
						c8.1-4.4,16.7-7.9,25.6-10.2l-7.8,0.2c-22.3,1.4-40.9,20.4-41.2,20.5c-9.3,1.2-10.4,0.5-37.5,7.5
						c-23.8,6.1-39.4,20.5-42.6,29.1c-1.8,4.9,7.9,5.6,14.9,7.6c-3.5-1.9-6.9-4-10.1-6.3c-0.9-0.5-1.2-1.7-0.6-2.6
						c0.1-0.1,0.2-0.2,0.3-0.3C126.8,250.5,142.2,238.5,159.4,235.1z"/>
					<path id="Path_14446" class="st16" d="M110,283.8c3.4-1.5,13.7-3.6,18.2-7.2c-7.7,1.5-27.3,6-31.3,12.8
						c-1.4,13.6,3.3,27.2,12.8,37c-6.2-10.7-13-23.2-8.7-34.3C102.6,288.2,105.9,285.2,110,283.8z"/>
				</g>
				<g id="Group_17528" transform="translate(146.499 33.088)">
					<g id="Group_17527">
						<path id="Path_14447" class="st17" d="M403.2,258.1c0,0-1.5,11.4-2.9,18.8c-1.5,7.4-8.1,23-21.4,28.3
							c-10.5,4.2-43.8,12.5-52.8,21.9c4.9,5.4,8.6,11.7,10.9,18.7c0.4,0.2,0.9,0.4,1.3,0.6c2.4-10.9-8.1-19.2-8.1-19.2
							s42.1-16.5,57.5-24.2C396.9,298.2,405.3,281.4,403.2,258.1z"/>
					</g>
				</g>
				<g id="Group_17530" transform="translate(123.831 64.625)">
					<g id="Group_17529">
						<path id="Path_14448" class="st17" d="M355.9,312.9c-11.6-5-40.5-6.3-42.4-4.9c-6.8,5.5-13.4,11.3-19.5,17.5
							c-1.1,2.1-2.3,4.2-3.5,6.3c10.7-10.8,26.8-24.5,28.2-22.1C318.7,309.7,343.2,309.6,355.9,312.9z"/>
					</g>
				</g>
			</g>
			<path id="Path_14449" class="st16" d="M186,264.3v-0.7c-5.3,1.3-11,8.1-15.9,7.2c4,4,21.4,7.5,28.1,9.9c7.4,2.7,21,4.1,28.6,1.6
				c-7.3-0.5-15.2,0.4-22.2-1.6c-6.2-1.8-20.2-8.2-27.1-9.1C178.8,268,182.8,266.7,186,264.3z"/>
			<path id="Path_14450" class="st16" d="M229.3,313.4c6.5-2.3,45.7-9.4,58.6-8.8c13.5,0.7,26.9,2.4,38.4,9.1
				c-3.5-5-21-11.6-42.9-11.7c-24.2,0-54.7,9.1-61,11.6c-4.4,1.8-13.5,3.9-16.3,7.8c7.7,1.2,14.8,7.4,22.8,7.9l0.3-0.3
				c-1.7-1.2-12-5.2-13.1-7.5C214.4,317.6,225.1,314.8,229.3,313.4z"/>
			<path id="Path_14451" class="st16" d="M250.5,286.3l0.6,0.3c1-0.7,4.6-1.4,6.5-2.3c10.1-4.3,20.9-6.7,31.9-7.1
				c5.3-0.3,10.7-0.1,16,0.6c4.9,0.7,10.2,3.5,15,3.3c-7.4-3.1-19-7.1-27.7-7.2c-7.4,0-14.8,1.2-21.8,3.5
				C265,279.3,255.1,281.8,250.5,286.3z"/>
			<path id="Path_14452" class="st16" d="M330.4,244.8l0.3,0.3C330.6,244.8,330.5,244.6,330.4,244.8z"/>
			<path id="Path_14453" class="st16" d="M331.1,245.4l-0.3-0.3C330.8,245.2,330.9,245.4,331.1,245.4z"/>
			<path id="Path_14454" class="st16" d="M330.4,244.8c-6.4-0.2-23.9,0.1-28.5,4.4c-5.5,5.2,29.5,29.1,36.3,32.8
				c8.1,4.4,18.8-2.2,27.7-3.7s17.8-2.4,26.4-4.5c-14.9-1-36.3,5.7-41.3,6.4c-5.5,1-11.1,0-15.9-2.9c-3.4-2.4-27.2-19.8-29.8-22.9
				C298.5,246.3,324.9,247.6,330.4,244.8z"/>
			<path id="Path_14455" class="st16" d="M426.1,290.4l-0.6-1.3c-1.1,9.2,2.2,18.8,2.5,27.9c0.5,7,1.5,14,3.1,20.8
				c12.3,3.1,45.6,18.5,53.9,16c6.2-1.7,12.3-3.8,18.2-6.4c-5.4-1.8-15.6,1.7-21.3,1.9c-7.2,0.3-48-14.7-49.5-19
				C432.9,323.3,425.7,292.7,426.1,290.4z"/>
		</g>
	</g>
	<g id="Group_17408" transform="translate(1018.457 566.972)">
		<g id="Group_17351" transform="translate(9.221 3.501)">
			<g id="Group_17350">
				<g id="Group_17347" transform="translate(0 17.678)">
					<path id="Path_13283" class="st18" d="M317.3,221.1l-48.4-16h-0.6v7.3l41.1,13.6l11.5,11.5l13.6,13.6v29.1l-4.2,3.6l-19,18.8
						l-2.1,2.4l-43.2,14.5h-50.2l-43.2-14.5l-21.2-21.2l-3.9-3.9v-29l25.1-25.1l41.1-13.6v-7h-0.6l-48.4,16l-28.1,28.1v32.4
						l28.1,28.1l48.4,16h55.9l48.4-16l16.9-16.9l11.2-11.2v-32.4L317.3,221.1z"/>
					<path id="Path_13284" class="st19" d="M345.4,302.3l-28.1,28.1V292l28.1-28.1V302.3z"/>
					<path id="Path_13285" class="st20" d="M317.3,292v38.1l-48.4,16v-37.8L317.3,292z"/>
					
						<linearGradient id="Path_13286_1_" gradientUnits="userSpaceOnUse" x1="-82.3324" y1="508.8519" x2="-79.7766" y2="508.8519" gradientTransform="matrix(21.921 0 0 -14.85 2017.5356 7883.8491)">
						<stop  offset="0" style="stop-color:#C3B8A8"/>
						<stop  offset="1" style="stop-color:#A09483"/>
					</linearGradient>
					<path id="Path_13286" class="st21" d="M268.9,346.5h-56.3v-38.1h55.9v38.1H268.9z"/>
					
						<linearGradient id="Path_13287_1_" gradientUnits="userSpaceOnUse" x1="-83.055" y1="518.0956" x2="-79.732" y2="515.3448" gradientTransform="matrix(18.857 0 0 -21.214 1724.1168 11281.7344)">
						<stop  offset="0" style="stop-color:#D4CAB9"/>
						<stop  offset="1" style="stop-color:#B1A592"/>
					</linearGradient>
					<path id="Path_13287" class="st22" d="M212.6,346.5l-48.4-16V292l48.4,16V346.5z"/>
					
						<linearGradient id="Path_13288_1_" gradientUnits="userSpaceOnUse" x1="-79.8627" y1="522.0353" x2="-75.7903" y2="518.4248" gradientTransform="matrix(10.96 0 0 -25.81 1005.5145 13729.4014)">
						<stop  offset="0" style="stop-color:#D4CAB9"/>
						<stop  offset="1" style="stop-color:#B1A592"/>
					</linearGradient>
					<path id="Path_13288" class="st23" d="M136.1,264.2l28.1,28.1v38.1l-28.1-28.1V264.2z"/>
					<path id="Path_13289" class="st24" d="M334.2,273l-25.1,25.1l-43.2,14.5h-50.2l-43.2-14.5L147.3,273v-7.3l25.1-25.1l41.1-13.6
						v2.7l-6.7,1.5l-14.5,19.7v29l14.2,19.7l34.2,8.5l34.2-8.2l14.2-19.7v-29l-14.2-19.7l-6.7-1.5v-2.7l40.8,13.3l25.1,25.1V273z"/>
					<path id="Path_13290" class="st25" d="M330.3,275.1l-21.2,21.2l-43.2,14.5h-50.2l-43.2-14.5l-21.2-21.2l21.2-21.2l40.8-13.6h55
						l40.8,13.6L330.3,275.1z"/>
					<path id="Path_13291" class="st19" d="M147.3,250.8l25.1-25.1v21.8l-25.1,25.1V250.8z"/>
					<path id="Path_13292" class="st26" d="M172.4,226l41.1-13.6v21.5l-41.1,13.6V226z"/>
					<path id="Path_13293" class="st20" d="M268.3,212.1l40.8,13.6v21.8l-40.8-13.6V212.1z"/>
					<path id="Path_13294" class="st27" d="M309.1,226l25.1,25.1v21.5l-25.1-25.1V226z"/>
					<path id="Path_13295" class="st28" d="M309.1,256.5v-15.1l25.1,25.1v7.3l-3.9,3.9L309.1,256.5z"/>
					<path id="Path_13296" class="st29" d="M159.7,287.5v-15.7l25.7-27.5l18.4-7.6l2.7-3.6l6.7-1.5v-2.7l-40.8,13.6l-25.1,25.1v7.3
						L159.7,287.5z"/>
				</g>
				<g id="Group_17349" transform="translate(9.664)">
					<g id="Group_17348">
						<path id="Path_13297" class="st18" d="M289.4,220.4L252.2,208h-0.3v5.7l31.1,10.6l19.1,19.1v22.1l-3,3l-16,16l-33.3,11.2H212
							l-33.3-11.2l-16-16.3l-3-3v-22.1l19.1-19.1l31.5-10.3v-5.5h-0.3l-37.2,12.4l-21.5,21.5v24.8l21.5,21.5l37.2,12.4h42.6
							l37.2-12.4l13-13l8.5-8.5v-24.8L289.4,220.4z"/>
						<path id="Path_13298" class="st30" d="M245.9,189.8l6,8.5l-20.9-20.9L245.9,189.8z"/>
						<path id="Path_13299" class="st24" d="M231.1,177.4l20.9,20.9l-6,8.5L231.1,177.4z"/>
						<path id="Path_13300" class="st26" d="M245.9,206.8l6-8.5v50.2l-6,8.5V206.8z"/>
						<path id="Path_13301" class="st28" d="M231.1,177.4l14.8,29.3l-14.8,3.6V177.4z"/>
						<path id="Path_13302" class="st24" d="M231.1,177.4v33l-14.8-3.6L231.1,177.4z"/>
						<path id="Path_13303" class="st30" d="M231.1,177.4l-14.8,29.3l-6-8.5L231.1,177.4z"/>
						<path id="Path_13304" class="st20" d="M216.3,206.8l14.8,3.6v50.2l-14.8-3.6V206.8z"/>
						<path id="Path_13305" class="st19" d="M289.4,288.1v14.5l21.5-21.5v-14.5L289.4,288.1z"/>
						<path id="Path_13306" class="st20" d="M252.5,300.2v14.5l37.2-12.4v-14.5L252.5,300.2z"/>
						
							<linearGradient id="Path_13307_1_" gradientUnits="userSpaceOnUse" x1="-89.4336" y1="489.0332" x2="-86.8598" y2="489.0332" gradientTransform="matrix(16.617 0 0 -5.657 1695.7653 3073.9238)">
							<stop  offset="0" style="stop-color:#C3B8A8"/>
							<stop  offset="1" style="stop-color:#A09483"/>
						</linearGradient>
						<path id="Path_13307" class="st31" d="M209.6,300.2v14.5h42.6v-14.5H209.6z"/>
						
							<linearGradient id="Path_13308_1_" gradientUnits="userSpaceOnUse" x1="-89.8099" y1="531.2986" x2="-86.4842" y2="528.54" gradientTransform="matrix(14.378 0 0 -16.146 1459.1154 8865.4434)">
							<stop  offset="0" style="stop-color:#D4CAB9"/>
							<stop  offset="1" style="stop-color:#B1A592"/>
						</linearGradient>
						<path id="Path_13308" class="st32" d="M172.7,288.1v29l36.9,12.4v-29L172.7,288.1z"/>
						
							<linearGradient id="Path_13309_1_" gradientUnits="userSpaceOnUse" x1="-84.1005" y1="529.3838" x2="-81.0033" y2="525.527" gradientTransform="matrix(8.368 0 0 -14.025 854.1165 7685.0073)">
							<stop  offset="0" style="stop-color:#D4CAB9"/>
							<stop  offset="1" style="stop-color:#B1A592"/>
						</linearGradient>
						<path id="Path_13309" class="st33" d="M151.2,266.6v14.5l21.5,21.5v-14.5L151.2,266.6z"/>
						<path id="Path_13310" class="st24" d="M302.4,265.1l-19.1,19.1l-33.3,11.2H212l-33.3-11.2l-19.1-19.1v-5.7l19.1-19.1
							l31.1-10.3v2.1l-5.1,1.2l-10.9,15.1v22.1l10.9,15.1l26,6.4l26-6.4l10.9-15.1v-22.1l-10.9-15.1l-5.1-1.2V230l31.1,10.3
							l19.1,19.1v5.7H302.4z"/>
						<path id="Path_13311" class="st25" d="M299.4,268.1l-16,16.3l-33.3,10.9H212l-33.3-10.9l-16-16.3l16-16l31.4-10.3v1.8
							l-5.1,1.5L194.2,260v10.6l10.9,15.1l26,6.4l26-6.4l10.9-15.1V260l-10.9-14.8l-5.1-1.5v-1.8l31.5,10.3L299.4,268.1z"/>
						<path id="Path_13312" class="st19" d="M159.7,243l19.1-19.1v16.3l-19.1,19.1V243z"/>
						<path id="Path_13313" class="st26" d="M178.8,224l31.5-10.3V230l-31.1,10.3V224H178.8z"/>
						<path id="Path_13314" class="st20" d="M251.9,213.7l31.1,10.3v16.3L251.9,230V213.7z"/>
						<path id="Path_13315" class="st27" d="M283.4,224l19.1,19.1v16.3l-19.1-19.1V224z"/>
						<path id="Path_13316" class="st20" d="M257.1,285.7l-26,6.4V270l26-6.4V285.7z"/>
						<path id="Path_13317" class="st27" d="M231.1,292l-26-6.4v-22.1l26,6.4V292z"/>
						<path id="Path_13318" class="st27" d="M205.1,285.7l-10.9-15.1v-22.1l10.9,15.1V285.7z"/>
						<path id="Path_13319" class="st26" d="M268,270.6l-10.9,15.1v-22.1l10.9-15.1V270.6z"/>
						<path id="Path_13320" class="st30" d="M231.1,177.4l-20.9,20.9l6-8.5L231.1,177.4z"/>
						<path id="Path_13321" class="st18" d="M205.1,263.6l-10.9-15.1l10.9-15.1l5.1-1.2v16.3l6,8.5l14.8,3.6l14.8-3.6l6-8.5v-16.3
							l5.1,1.2l10.9,15.1l-10.9,15.1l-26,6L205.1,263.6z"/>
						<path id="Path_13322" class="st34" d="M245.9,257l-14.8,3.6v-50.2l14.8-3.6V257z"/>
						<path id="Path_13323" class="st27" d="M216.3,257l-6-8.5v-50.2l6,8.5V257z"/>
					</g>
					<path id="Path_13324" class="st28" d="M283.4,252.1v-11.5l19.1,19.1v5.4l-3,3L283.4,252.1z"/>
					<path id="Path_13325" class="st28" d="M178.8,240.6v11.5l-16,16l-3-3v-5.4L178.8,240.6z"/>
					<path id="Path_13326" class="st29" d="M169.4,274.8V263l19.4-21.1l14.2-5.7l2.1-2.7l5.1-1.2V230l-31.4,10.6l-19.1,19.1v5.4
						L169.4,274.8z"/>
					<path id="Path_13327" class="st29" d="M231.1,260.6l26,3l10.9-15.1l-3-4.5l-13-2.1v6.7l-6,8.5L231.1,260.6z"/>
					<path id="Path_13328" class="st29" d="M231.1,292h19.4l23.6-6.4l9.4-1.2l13-13l-3.6-6.4l-16.3-5.4l-4.2,2.1l-4.2-3.3v12.1
						l-10.9,15.1L231.1,292z"/>
					<path id="Path_13329" class="st29" d="M335.7,268.4v30l-24.8,18.7l-9.4,3.3l-25.1,9.1h-23.9l36.9-12.4l21.5-21.5v-42.9
						L335.7,268.4z"/>
				</g>
			</g>
			<path id="Path_13330" class="st35" d="M182.4,291.9v14.5l-21.5-21.5v-14.5L182.4,291.9z"/>
			<rect id="Rectangle_3511" x="219.3" y="302.1" class="st36" width="42.6" height="14.5"/>
			<path id="Path_13331" class="st37" d="M182.4,290.3l36.9,12.1v14.8l-36.9-12.4V290.3z"/>
			<path id="Path_13332" class="st38" d="M299.1,290.3v14.5l-36.9,12.4v-14.8L299.1,290.3z"/>
			<path id="Path_13333" class="st39" d="M320.6,270.4v14.5l-21.5,21.5v-14.5L320.6,270.4z"/>
		</g>
	</g>
	<g id="_2" transform="translate(937.069 505.264)">
		<g id="Group_17447" transform="translate(32.224 57.624)">
			<path id="Path_14129" class="st40" d="M135.5,275.3c8.7,9.3,7.5,20.9,5.3,32.4c-1.1,5.8-1.8,11.7-2.2,17.7
				c0.4,11.9,29.1,12.4,28.6-1.1c-0.1-3.2-2-12.1-2.2-14.9c-1-8.4-1-16.8-0.2-25.1c1-11.8,5.5-23.1,4.8-35.3
				c-0.7-11.8-5.7-23.4-4.1-35.2c1-7.1,8-23.3,5.8-26.4c-1.3-1.4-3.5-1.4-4.8-0.1c0,0-0.1,0.1-0.1,0.1c-2,1.9-3.1,11.1-7.7,29.3
				c-0.6,2.4-0.7,4.9-0.2,7.3c1.8,10,1.9,20.2,0.3,30.3c-1,6.2-3,14.6-10.9,11.9c-6.1-2.1-34.2-20.1-43.9-26c-1.2-0.7-2.1-1.8-2.7-3
				c-5.7-12-16.2-38.4-23.9-53.8c-1.3-2.5-3.8-5.4-6.4-4.1c1.2,11.2,20,55.3,24.5,65.5c0.6,1.5,1.6,2.7,2.9,3.7
				C108.8,256.6,129.1,268.5,135.5,275.3z"/>
			<path id="Path_14130" class="st40" d="M223.3,167.3c0.2-0.7-0.1-1.4-0.7-1.7c-0.7-0.3-1.4,0.1-1.7,0.7c0,0,0,0,0,0
				c-12.1,30.4-26.9,68.5-57.4,92.4c0,0,2.1,6.1,3.1,5.3C197,239.3,211,200,223.3,167.3z"/>
			<path id="Path_14131" class="st40" d="M183.7,240.1c-2.2-7.5-4.1-14.3-6.2-21.1l-2.3-0.2c2.1,7.4,4.2,15.9,6.3,24.1
				C182.2,242,182.9,241,183.7,240.1z"/>
			<path id="Path_14132" class="st40" d="M207.7,225.5c-5.2,7.6-19.8,12.3-19.8,12.3c-0.5,0.4-0.4,2.4,0.2,2.2
				c10-3.8,16.6-8,20.4-13.6C208.2,225.7,208,226.2,207.7,225.5z"/>
			<path id="Path_14133" class="st40" d="M150.2,234.6c3.1-8.4,4.6-14.9,4.1-19.8c-0.5,0-1,0-1.6-0.1c0.6,5.8-2,12.2-4.5,18.2
				C148.8,233.4,149.5,234,150.2,234.6z"/>
			<path id="Path_14134" class="st40" d="M118.3,185.1c-5.1,15.5-12.2,30.2-21,43.9c-0.4,2.1,0.5,4.3,2.4,5.3
				c9.1-15.2,16-31.6,20.8-48.6c0.2-0.6-0.2-1.2-0.8-1.4C119.1,184.2,118.5,184.5,118.3,185.1z"/>
			<path id="Path_14135" class="st40" d="M85.2,217.8c-14-5.9-27-13.8-38.7-23.5c-0.4-0.4-1.1-0.4-1.5,0.1s-0.4,1.1,0.1,1.5
				c12.7,11.4,27.1,20.9,42.5,28.3C86.6,222.1,85.8,219.9,85.2,217.8z"/>
			<path id="Path_14136" class="st40" d="M163.3,244.7c-10.4-9.5-19.6-20.4-27.3-32.3c-0.9-0.2-1.3-0.1-2.2-0.3
				c8.2,15.8,19.4,28.9,29.1,40.1C163.1,250.2,163,246.7,163.3,244.7z"/>
			<path id="Path_14137" class="st40" d="M98.1,203.8l-1.6,0.5c1.9,5.7,4.3,11.2,7.1,16.5c0.6-1,1.2-2,1.8-3
				C102.7,213.3,100.2,208.6,98.1,203.8z"/>
		</g>
		<g id="Group_17455" transform="translate(0 0)">
			<path id="Path_14138" class="st41" d="M7,188.4c-0.2,3.4-0.2,6.9,0,10.3c3.8,49.2,56.7,84.4,118.2,78.7
				c61.4-5.7,108.1-50.3,104.3-99.5c-0.3-3.4-0.8-6.8-1.6-10.2L7,188.4z"/>
			<g id="Group_17454" transform="translate(0)">
				<g id="Group_17449" transform="translate(43.839)">
					<g id="Group_17448" transform="translate(0)">
						
							<linearGradient id="Ellipse_70_1_" gradientUnits="userSpaceOnUse" x1="-45.304" y1="616.7225" x2="-45.7351" y2="615.7449" gradientTransform="matrix(10.2033 -57.7597 -72.399 -12.7894 45189.3555 5384.7935)">
							<stop  offset="0" style="stop-color:#B6CD34"/>
							<stop  offset="0.414" style="stop-color:#92AE3D"/>
							<stop  offset="0.775" style="stop-color:#7B9A3D"/>
							<stop  offset="1" style="stop-color:#73933C"/>
						</linearGradient>
						<path id="Ellipse_70" class="st42" d="M75.9,149.4c7.2-40.9,54.7-66.8,106-57.7s87,49.6,79.8,90.5
							c-7.2,40.9-54.7,66.8-106,57.7S68.7,190.3,75.9,149.4z"/>
						
							<linearGradient id="Path_14139_1_" gradientUnits="userSpaceOnUse" x1="-38.2351" y1="607.1481" x2="-39.1974" y2="602.7319" gradientTransform="matrix(31.2468 0 0 -18.1142 1399.0087 11098.459)">
							<stop  offset="0" style="stop-color:#B6CD34"/>
							<stop  offset="0.273" style="stop-color:#8EA73C"/>
							<stop  offset="0.589" style="stop-color:#698238"/>
							<stop  offset="0.842" style="stop-color:#526A30"/>
							<stop  offset="1" style="stop-color:#4A622D"/>
						</linearGradient>
						<path id="Path_14139" class="st43" d="M203.6,99.7c-21.9-8.4-42.2-7.4-45.3,2.3s12.2,24.4,34.1,32.8
							c21.9,8.4,42.2,7.4,45.3-2.3S225.5,108.1,203.6,99.7z"/>
						
							<linearGradient id="Path_14140_1_" gradientUnits="userSpaceOnUse" x1="-35.1757" y1="599.0371" x2="-35.7146" y2="596.5711" gradientTransform="matrix(17.7252 0 0 -10.2738 827.431 6256.2432)">
							<stop  offset="0" style="stop-color:#B6CD34"/>
							<stop  offset="0.209" style="stop-color:#9CB53B"/>
							<stop  offset="0.745" style="stop-color:#607935"/>
							<stop  offset="1" style="stop-color:#4A622D"/>
						</linearGradient>
						<path id="Path_14140" class="st44" d="M203.5,101.5c-12.4-4.8-23.9-4.2-25.7,1.3c-1.8,5.5,6.9,13.8,19.3,18.6
							c12.4,4.8,23.9,4.2,25.7-1.3C224.6,114.6,215.9,106.3,203.5,101.5z"/>
					</g>
				</g>
				<g id="Group_17451" transform="translate(0 3.689)">
					<g id="Group_17450" transform="translate(0 0)">
						
							<linearGradient id="Ellipse_71_1_" gradientUnits="userSpaceOnUse" x1="1.5701" y1="609.6509" x2="1.5701" y2="607.0823" gradientTransform="matrix(81.8356 -12.4422 -9.9362 -65.353 6043.603 40059.5234)">
							<stop  offset="0" style="stop-color:#B6CD34"/>
							<stop  offset="0.414" style="stop-color:#92AE3D"/>
							<stop  offset="0.775" style="stop-color:#7B9A3D"/>
							<stop  offset="1" style="stop-color:#73933C"/>
						</linearGradient>
						<path id="Ellipse_71" class="st45" d="M99.2,97c58-8.8,110.7,21.6,117.7,67.9s-34.3,91-92.2,99.8
							c-58,8.8-110.7-21.6-117.7-67.9S41.2,105.9,99.2,97z"/>
						<path id="Path_14141" class="st41" d="M117.1,233.4c-50.2,5.9-94.4-9.6-110-35.9c7.2,44.3,56.7,74.4,113.2,67.8
							c56.4-6.6,99-47.5,97.5-92.5C207.5,202.2,167.2,227.5,117.1,233.4z"/>
						
							<linearGradient id="Ellipse_72_1_" gradientUnits="userSpaceOnUse" x1="1.737" y1="603.5524" x2="1.737" y2="598.7897" gradientTransform="matrix(53.9217 -6.7297 -3.5251 -28.2449 2149.5747 17262.791)">
							<stop  offset="0" style="stop-color:#B6CD34"/>
							<stop  offset="0.273" style="stop-color:#8EA73C"/>
							<stop  offset="0.589" style="stop-color:#698238"/>
							<stop  offset="0.842" style="stop-color:#526A30"/>
							<stop  offset="1" style="stop-color:#4A622D"/>
						</linearGradient>
						<path id="Ellipse_72" class="st46" d="M102.5,98.8c38.2-4.8,71.2,7.6,73.7,27.6s-26.5,40.1-64.7,44.9s-71.2-7.6-73.7-27.6
							C35.4,123.7,64.3,103.6,102.5,98.8z"/>
						
							<linearGradient id="Path_14142_1_" gradientUnits="userSpaceOnUse" x1="2.9403" y1="593.269" x2="2.9403" y2="590.939" gradientTransform="matrix(26.4753 0 0 -14.2297 26.68 8646.3652)">
							<stop  offset="0" style="stop-color:#B6CD34"/>
							<stop  offset="0.209" style="stop-color:#9CB53B"/>
							<stop  offset="0.745" style="stop-color:#607935"/>
							<stop  offset="1" style="stop-color:#4A622D"/>
						</linearGradient>
						<path id="Path_14142" class="st47" d="M102.8,101c-18.7,2.2-33.1,12-32.2,21.8s16.9,16,35.7,13.8s33.1-12,32.2-21.8
							C137.5,105,121.5,98.8,102.8,101z"/>
					</g>
				</g>
				<g id="Group_17453" transform="translate(51.661 25.142)">
					<g id="Group_17452" transform="translate(0 0)">
						
							<linearGradient id="Ellipse_73_1_" gradientUnits="userSpaceOnUse" x1="-49.149" y1="586.5181" x2="-49.149" y2="583.9494" gradientTransform="matrix(70.5176 -10.7214 -8.5621 -56.3148 8670.3555 32743.5723)">
							<stop  offset="0" style="stop-color:#B6CD34"/>
							<stop  offset="0.414" style="stop-color:#92AE3D"/>
							<stop  offset="0.775" style="stop-color:#7B9A3D"/>
							<stop  offset="1" style="stop-color:#73933C"/>
						</linearGradient>
						<path id="Ellipse_73" class="st48" d="M165.6,128.4c50-7.6,95.4,18.6,101.5,58.5s-29.5,78.4-79.5,86
							c-50,7.6-95.4-18.6-101.5-58.5S115.6,136,165.6,128.4z"/>
						<path id="Path_14143" class="st41" d="M181,245.5c-42.6,5-80.3-7.9-94.6-30c6.5,37.9,48.9,63.6,97.3,57.9s84.9-40.6,83.9-79.2
							C257.9,219.2,223.5,240.5,181,245.5z"/>
						
							<linearGradient id="Ellipse_74_1_" gradientUnits="userSpaceOnUse" x1="-48.4466" y1="579.3105" x2="-48.4466" y2="574.5504" gradientTransform="matrix(46.2061 -5.8585 -3.3343 -26.2975 4353.7979 15197.9932)">
							<stop  offset="0" style="stop-color:#B6CD34"/>
							<stop  offset="0.273" style="stop-color:#8EA73C"/>
							<stop  offset="0.589" style="stop-color:#698238"/>
							<stop  offset="0.842" style="stop-color:#526A30"/>
							<stop  offset="1" style="stop-color:#4A622D"/>
						</linearGradient>
						<path id="Ellipse_74" class="st49" d="M168.9,130.5c32.7-4.2,61.2,7.6,63.6,26.2s-22.3,37.1-55,41.3
							c-32.7,4.2-61.2-7.6-63.6-26.2S136.1,134.7,168.9,130.5z"/>
						
							<linearGradient id="Path_14144_1_" gradientUnits="userSpaceOnUse" x1="-45.5717" y1="568.2347" x2="-45.5717" y2="565.8996" gradientTransform="matrix(24.005 0 0 -13.9619 1264.8445 8181.5361)">
							<stop  offset="0" style="stop-color:#B6CD34"/>
							<stop  offset="0.209" style="stop-color:#9CB53B"/>
							<stop  offset="0.745" style="stop-color:#607935"/>
							<stop  offset="1" style="stop-color:#4A622D"/>
						</linearGradient>
						<path id="Path_14144" class="st50" d="M169.2,132.3c-17,2-30,11.5-29,21.2c0.9,9.7,15.5,15.9,32.5,13.9s30-11.5,29-21.1
							S186.2,130.3,169.2,132.3z"/>
					</g>
				</g>
			</g>
		</g>
	</g>
	<g id="Group_17410" transform="translate(1103.028 527.305)">
		<path id="Path_13350" class="st51" d="M291.5,311c0.1,3.5,6,3,6-0.3l0.1-62c0.1-1.7-1.1-3.1-2.8-3.2c-1.7-0.1-3.1,1.1-3.2,2.8
			c0,0.2,0,0.3,0,0.5l-0.1,46.5c0,0.1,0,0.3,0,0.4L291.5,311z"/>
		<path id="Path_13351" class="st52" d="M316.2,224.8v-11.1h-3.7v11.1c0,4.5,0.4,8.2,5.7,11.7l6,3l1.7-3.3l-5.9-3
			C316.6,230.8,316,229.6,316.2,224.8z"/>
		<path id="Path_13352" class="st53" d="M318.3,175.4c0,0-1.8-2.6-1-10.8c0.3-3.4,0.4-13.2,0.4-13.2c0-6.9-3.4-12.3-8.9-13.4
			c-2.3-0.5-3.2-5.4-3.6-8.9c-0.3-3.1-1.2-10.6-1.2-10.6c0-4.3-2.3-8.6-6-8.6c-3.6,0-5.1,2-6.3,5.5c0,0-1,8.5-4.1,9.3
			c-4.7,0.8-8.1,4.9-8.2,9.6c0,0,0,8.3,0,10.5c0.2,8.7-4,7.5-4.2,7.5c-5.6,0.2-8.7,6.4-8.7,14.4l1.6,23.8c0.1,1.9-1.4,3.5-3.2,3.5
			c-0.1,0-0.1,0-0.2,0c-5,0.4-11.1,4.7-10.5,28.7l0.6,19.5c0,19.6,10.4,21.4,10.4,21.4l1,11.9c0,6.2,1.7,12.7,6.7,12.7
			c3.8,0,4,4.7,4,4.7c0.2,9.2,9.1,13.6,16.6,13.6c11.5,0,13.3-6.6,17.6-11.8c8.1-0.9,10.5-9.2,11.9-24c0,0,3.6,0.2,5-12.5
			c1-9.2,3-50.4,3-50.4C332.6,196.4,330.5,176.5,318.3,175.4z"/>
		<path id="Path_13353" class="st54" d="M311.6,184.8c0,0-2.4,8-0.9-31.1c0.1-1.8,1.9-14.1-5.8-12.4c-2.4,0.5-2.6-8.8-2.6-8.8
			c0-3.3-0.1-6-2.9-6c-2.8,0-4,1.5-4.9,4.2c0,0-0.8,6.5-3.2,7.2c-3.6,0.6-6.3,3.7-6.4,7.4c0,0,0,6.4,0,8.1c0.2,6.7-3.1,5.8-3.3,5.8
			c-4.4,0.2-6.7,4.9-6.7,11.1l0.9,9.2c0-4.1,2.5-15.8,8.7-14.4c2.4,0.6,4-5.9,4-5.9c0.9-2.7,2.1-5.2,4.9-5.2s3.1,4.7,3.1,8
			c0,0,0.3,9.3,2.6,8.8c7.8-1.7,5.9,10.6,5.9,12.4c0,35.6,4.7,26.2,4.7,26.2c5.9-8.2,10.8,7.8,9.4,22.3c0,0-0.8,15.4-1.5,27.1
			c2.4-5.7,4-11.8,4.8-17.9c0.8-7.1,2.3-38.9,2.3-38.9C326.2,187.6,317.3,175.9,311.6,184.8z"/>
		<path id="Path_13354" class="st54" d="M290.7,215.4c-0.7-5.5-4.7-18.4-17-14.1c-8.5,3-8.8,8.6-8.8,8.6s-9.1-0.4-7.5,14.5
			c0.4,3.6,1.4,7.1,3.1,10.4c0.9-0.7-1.1-1.9,0-13.7c0.9-9.9,12.7-12.8,17.4-11.3c6.6,2.1,7.3,10.8,7.3,10.8
			c2.4,20.5,13.4-3.8,15.2,17.4c0,0,1.5,18.1,1.9,14.3c0.6-5.7,1.3-11.5,1.4-16.1C304.5,215,292,226.2,290.7,215.4z"/>
		<path id="Path_13355" class="st54" d="M298.9,257.1c0,0,4.2-5.2,9.2,0.7c5,5.9,4.5,18.2,4.5,18.2s2.4-17.4-2.1-22.6
			c-4.5-5.2-8.5-2.8-10.1-0.7C299.5,254,299,255.5,298.9,257.1z"/>
	</g>
	<g id="Group_17409" transform="translate(1129.182 482.074)">
		<path id="Path_13350-2" class="st51" d="M357.2,372.9c0.2,5.8,9.9,5,9.9-0.5l0.1-103c0.2-2.8-1.9-5.2-4.6-5.4
			c-2.8-0.2-5.2,1.9-5.4,4.6c0,0.3,0,0.5,0,0.8l-0.1,77.2c0,0.2,0,0.4,0,0.7L357.2,372.9z"/>
		<path id="Path_13351-2" class="st52" d="M398.1,229.9v-18.4h-6.2v18.4c0,7.4,0.7,13.6,9.5,19.4l10,5l2.7-5.6l-9.8-4.9
			C398.8,239.9,397.8,237.8,398.1,229.9z"/>
		<path id="Path_13352-2" class="st53" d="M401.6,147.9c0,0-3-4.3-1.7-18c0.6-5.6,0.7-21.9,0.7-21.9c0-11.5-5.7-20.3-14.7-22.3
			c-3.8-0.8-5.4-9-6-14.8c-0.6-5.2-2-17.6-2-17.6c0-7.1-3.9-14.3-9.9-14.3c-6.1,0-8.5,3.3-10.5,9.2c0,0-1.7,14.1-6.8,15.5
			c-7.3,2-13.7,7.2-13.7,15.9c0,0,0,13.8,0,17.4c0.4,14.5-6.6,12.5-7,12.5c-9.4,0.4-14.4,10.6-14.4,23.8l2.6,39.5
			c0.1,3.1-2.3,5.8-5.4,5.9c-0.1,0-0.2,0-0.3,0c-8.3,0.6-18.4,7.8-17.4,47.7l1,32.4c0,32.5,17.3,35.5,17.3,35.5l1.7,19.8
			c0,10.2,2.8,21,11.1,21c6.4,0,6.7,7.8,6.7,7.8c0.4,15.3,15.1,22.7,27.5,22.7c19.1,0,22.1-11,29.2-19.5
			c13.4-1.6,17.4-15.3,19.7-39.9c0,0,6,0.4,8.4-20.7c1.7-15.2,5-83.7,5-83.7C425.4,182.7,421.9,149.6,401.6,147.9z"/>
		<path id="Path_13353-2" class="st54" d="M390.6,163.5c0,0-3.9,13.3-1.6-51.6c0.1-3,3.1-23.4-9.7-20.6c-4,0.9-4.4-14.6-4.4-14.6
			c0-5.4-0.2-10-4.8-10c-4.7,0-6.6,2.6-8.1,7.1c0,0-1.3,10.9-5.3,12c-5.7,1.5-10.5,5.5-10.5,12.3c0,0,0,10.6,0,13.5
			c0.3,11.1-5.1,9.6-5.4,9.6c-7.2,0.3-11.1,8.2-11.1,18.4l1.5,15.3c0-6.8,4.1-26.3,14.5-23.9c4,0.9,6.7-9.8,6.7-9.8
			c1.5-4.5,3.6-8.6,8.2-8.6c4.6,0,5.1,7.8,5.1,13.3c0,0,0.4,15.5,4.4,14.6c12.9-2.9,9.7,17.5,9.7,20.6c0,59,7.8,43.4,7.8,43.4
			c9.8-13.7,18,12.9,15.6,37.1c0,0-1.3,25.5-2.4,45c3.9-9.5,6.6-19.5,7.9-29.7c1.3-11.7,3.9-64.6,3.9-64.6
			C414.8,168.2,399.9,148.7,390.6,163.5z"/>
		<path id="Path_13354-2" class="st54" d="M355.7,214.3c-1.1-9.1-7.8-30.5-28.1-23.5c-14.2,4.9-14.6,14.3-14.6,14.3
			s-15.1-0.7-12.4,24c0.6,6,2.3,11.8,5.1,17.2c1.4-1.1-1.9-3.2,0-22.7c1.6-16.4,21-21.3,28.9-18.8c11,3.5,12.1,18,12.1,18
			c3.9,34,22.3-6.2,25.3,28.8c0,0,2.5,30.1,3.2,23.8c1-9.5,2.2-19.1,2.4-26.8C378.6,213.5,358,232.2,355.7,214.3z"/>
		<path id="Path_13355-2" class="st54" d="M369.5,283.5c0,0,7-8.6,15.2,1.2c8.2,9.8,7.4,30.1,7.4,30.1s3.9-29-3.5-37.6
			c-7.4-8.6-14.1-4.7-16.8-1.2C370.4,278.3,369.6,280.9,369.5,283.5z"/>
	</g>
	<g id="Group_29796" transform="translate(924.6 51.137)">
		<g id="Group_29755" transform="translate(219.69 553.17)">
			<g id="Group_29754" transform="translate(0)">
				<g id="Group_29753">
					<g id="Group_29752" transform="translate(3.418 1.986)">
						<path id="Path_44611" class="st55" d="M331.5,234.8c0.9-0.5,1.8-0.9,2.8-1.1c3.7-1,7.5,0.5,9.7,3.6c3.4,6.1-1.5,34.6-1.3,39.1
							c0.1,3.6,1.5,3.1,2.6,5.9c0.7,2.1,0.5,3.6-6.3,7.5c-1,0.5-2,1.1-3.1,1.7c-0.5,0.3-1,0.5-1.4,0.7c-2.6,1.3-3.9,1.5-4.2,1
							c-0.4-0.6,0.5-2.2,1.7-4.5c2.2-4.3,2.3-9.7-0.1-18.5c-1.4-4.8-3.4-9.4-6.1-13.6c-1.5-3-2.1-6.4-1.7-9.8
							C324.7,241.9,327.4,237.5,331.5,234.8z"/>
					</g>
					<path id="Path_44612" class="st56" d="M336.1,231.6c-2.2-1.2-4.7-1.5-7.2-1c-1,0.2-1.9,0.5-2.8,1c-4.1,2.7-6.8,7.1-7.3,12.1
						c-0.4,3.4,0.2,6.8,1.7,9.8c2.7,4.2,4.7,8.8,6.1,13.6c2.4,8.9,2.3,14.2,0.1,18.5c-1.2,2.3-2.1,3.9-1.7,4.5
						c0,0.1,0.1,0.1,0.2,0.2l8.8,5.1c-0.1,0-0.1-0.1-0.2-0.2c-0.4-0.6,0.5-2.2,1.7-4.5c2.2-4.3,2.3-9.7-0.1-18.5
						c-1.4-4.8-3.4-9.4-6.1-13.6c-1.5-3-2.1-6.4-1.7-9.8c0.5-4.9,3.2-9.4,7.3-12.1c0.9-0.5,1.8-0.9,2.8-1.1c2.4-0.5,5-0.1,7.2,1
						L336.1,231.6z"/>
				</g>
			</g>
		</g>
		<g id="Group_29759" transform="translate(185.474 534.183)">
			<g id="Group_29758" transform="translate(0 0)">
				<g id="Group_29756" transform="translate(0 0.993)">
					<path id="Path_44614" class="st57" d="M280.3,202.9c3.9,2.2,7.5,5,10.7,8.3c2.5,3.1,5.4,10.3,7.6,16.4s0,6-1.6,8.2
						c-1.5,2.5-2.8,5.1-3.8,7.8c-0.6,3.6-0.4,7.3,0.6,10.9c0.6,2.3-0.3,2.6-1.4,1.9c-1-0.7-2-1.5-2.8-2.4c-0.6-0.7-1.3-1.3-2.1-1.8
						c-0.3-0.2-0.5-0.3-0.8-0.4s-0.5-0.3-0.8-0.4c-0.5-0.3-1-0.7-1.5-1.1c-3-3.1-2.4-4.2-4.6-6.9c-2.4-2.2-4.1-5-5-8.1
						c-0.4-2.4-1.4-4.7-2.8-6.7c-1.5-1.6-2.7-3.5-3.5-5.6c0-1.6-0.6-3.1-1.7-4.3c-1.7-2.3-2.6-4.2,0-5.6c3-2,5.6-4.6,7.6-7.6
						C276.7,202.5,277.7,201.4,280.3,202.9z"/>
				</g>
				<g id="Group_29757" transform="translate(4.662)">
					<path id="Path_44615" class="st58" d="M298.3,226c-2.2-6-5.1-13.2-7.6-16.3c-3.1-3.3-6.7-6.1-10.7-8.3
						c-1.4-0.8-2.3-0.9-3.2-0.4l-4.4,2.5c0.9-0.5,1.8-0.4,3.2,0.4c3.9,2.2,7.5,5,10.7,8.3c2.5,3.1,5.4,10.3,7.6,16.4
						c2.2,6,0,6-1.6,8.2c-1.5,2.5-2.8,5.1-3.8,7.8c-0.6,3.6-0.4,7.3,0.6,10.9c0.3,1.3,0.2,1.9-0.2,2.1l4.4-2.6
						c0.4-0.2,0.5-0.9,0.2-2.1c-1-3.5-1.2-7.2-0.6-10.9c1-2.7,2.3-5.3,3.8-7.8C298.3,232,300.5,232,298.3,226z"/>
				</g>
			</g>
		</g>
		<g id="Group_29769" transform="translate(190.675 562.531)">
			<g id="Group_29768" transform="translate(0.014 0)">
				<g id="Group_29767">
					<g id="Group_29763" transform="translate(4.911)">
						<path id="Path_44618" class="st55" d="M287.7,245.8c2.4,1.4,4.9,2.8,7.3,4.2c-2.1-1.1-4.7-0.9-6.7,0.4l-7.3-4.2
							C283,244.9,285.5,244.7,287.7,245.8z"/>
					</g>
					<g id="Group_29764" transform="translate(0 2.82)">
						<path id="Path_44619" class="st56" d="M281,310.3l-7.3-4.3c-0.7-0.4-0.4-1.4,0.1-2.6c0.6-1.2,1.3-2.3,2.2-3.3
							c1.5-1.7,0.8-6.9,1.3-14.1c0.6-7.2,2.6-13.6,4.5-22.6c1.9-9-0.5-13.7-0.6-13.9l7.3,4.2c0.1,0.3,2.5,4.9,0.6,13.9
							s-3.9,15.5-4.5,22.6c-0.6,7.2,0.1,12.3-1.3,14.1c-0.9,1-1.6,2.1-2.2,3.3C280.6,308.8,280.4,309.9,281,310.3z"/>
					</g>
					<g id="Group_29765" transform="translate(2.848 1.656)">
						<path id="Path_44620" class="st55" d="M290.4,248.8c4.9-2.9,11.7-1,10.2,13c-0.7,6.3-9.1,32.8-9.7,37.3
							c-0.6,4.5,0.6,6.8,0,8.6c-0.4,0.8-1,1.4-1.8,1.7c-1.3,0.7-2.7,1.2-4.1,1.5c-2,0.4-4,0.7-6.1,0.7c-1.5,0-1.3-1.3-0.6-2.8
							c0.6-1.2,1.3-2.3,2.2-3.3c1.5-1.7,0.8-6.9,1.3-14.1s2.6-13.6,4.5-22.6c1.9-9-0.5-13.7-0.6-13.9
							C286.4,252.3,288,250.1,290.4,248.8z"/>
					</g>
					<g id="Group_29766" transform="translate(3.097 0.447)">
						<path id="Path_44621" class="st55" d="M285.5,256.1l-7.3-4.2c0.6-2.6,2.3-4.8,4.7-6.1l7.3,4.2
							C287.8,251.3,286.1,253.5,285.5,256.1z"/>
					</g>
				</g>
			</g>
			<path id="Path_44622" class="st59" d="M276,310.3c-0.2-4.1-1.2-4.6-2.1-4.2c-0.9,1-0.8,2.4,0.2,3.3c0.1,0.1,0.3,0.2,0.4,0.3
				c2,1.3,4.2,2.4,6.4,3.3C280.7,308.1,277.6,307.8,276,310.3z"/>
		</g>
		<g id="Group_29773" transform="translate(190.928 533.183)">
			<g id="Group_29772" transform="translate(0)">
				<path id="Path_44625" class="st60" d="M358.9,200.3c-3.7-2.2-8.3-1.3-12.9,1.4c-0.5,0.3-0.9,0.5-1.4,0.8
					c-5.5,3.6-9.2,6.5-13.5,9.1c-1.2,0.7-2.4,1.3-3.6,1.9c-3.9,1.4-7.6,3.2-11.2,5.2c-3.3,1.9-6.5,4.1-9.5,6.4c-1.3,1-2.6,1.9-4,2.8
					c-5.9,3.4-8.5,2.1-8.6,2c-0.6,0.3-1.2,0.6-1.7,0.9l36.8,21.4c0.6-0.3,1.1-0.6,1.7-0.9c0.1,0.1,2.7,1.5,8.6-2
					c1.4-0.8,2.8-1.8,4-2.8c3.1-2.3,6.2-4.4,9.5-6.4c3.6-2,7.3-3.8,11.2-5.2c1.3-0.6,2.5-1.2,3.6-1.9c4.3-2.5,8.1-5.5,13.5-9.1
					c0.4-0.3,0.9-0.6,1.4-0.8c4.5-2.6,9.1-3.5,12.9-1.4C383.4,214.6,371.2,207.4,358.9,200.3z"/>
				<path id="Path_44626" class="st55" d="M330.9,251.2l-38.5-20.5c-19.5,11.3-19.8,49.6-17.9,50.2l4.9,2.8c0.2,0.2,0.3,0.5,0.4,0.8
					c1.2,2,2.9,3.7,5,5l36.8,21.4c-2-1.2-3.8-2.9-5-5c-0.4-1-1.2-1.9-2.2-2.5c-1.2-0.7-2.4-1.4-3.6-2.1
					C309.6,295.4,313,261.5,330.9,251.2z"/>
				<g id="Group_29771" transform="translate(14.354 8.342)">
					<path id="Path_44627" class="st61" d="M314.8,243.8c0.6-0.3,1.1-0.6,1.7-0.9c0.1,0.1,2.7,1.5,8.6-2c1.4-0.8,2.8-1.8,4-2.8
						c3.1-2.3,6.2-4.4,9.5-6.4c3.6-2,7.3-3.8,11.2-5.2c1.3-0.6,2.5-1.2,3.6-1.9c4.3-2.5,8.1-5.5,13.5-9.1c0.4-0.3,0.9-0.6,1.4-0.8
						c6.5-3.7,13.1-4,17,3.2c3.4,7.5,5.7,25.5,1.1,41.8c-3.2,9.5-22.4,20.8-25,22.3c-0.2,0.1-0.3,0.2-0.3,0.2
						c-4.8,6.2-10.9,11.3-17.8,15.1c-4.6,2.6-9.5,4.7-14.5,6.2c-10.7,1.6-21.2,3.2-26.8-5.9c-1.3-2.8-3.4-3-5.3-3.6
						C295,293.3,295.3,255,314.8,243.8z"/>
				</g>
			</g>
		</g>
		<g id="Group_29776" transform="translate(178.427 538.225)">
			<g id="Group_29775" transform="translate(0 0)">
				<path id="Path_44628" class="st56" d="M281.8,327.7c-0.5-0.9-0.8-1.3-1-1.4c-8.3-4.8-16.7-9.7-25-14.5c0.3,0.1,0.6,0.5,1,1.4
					c0.6,1.3,1.5,2.5,2.8,3.3c8.3,4.8,16.7,9.7,25,14.5C283.3,330.2,282.4,329.1,281.8,327.7z"/>
				<path id="Path_44629" class="st58" d="M303.7,207.1c-0.4-0.2-0.9-0.2-1.3,0.1c-2.5,1.7-4.4,2.8-6,3.8c-2.3,1.3-4.3,2.3-7.5,3.9
					c-0.2,0.1-0.5,0.3-0.7,0.4c-5,2.9-7.8,8.3-12.4,17.6c-4.6,9.2-6.6,13.2-7,20.3c0.2,5.7,0.8,11.4,1.8,17c0,0.1,0.2,1.5,1.6,13.3
					c1.7,13-1.3,19.3-6.5,24.4c-0.7,0.7-1.5,1.4-2.4,1.9c-1,0.7-2.3,0.9-3.4,0.3c8.3,4.8,16.7,9.7,25,14.5c1.1,0.5,2.4,0.4,3.4-0.3
					c0.9-0.5,1.7-1.2,2.4-1.9c5.1-5.1,8.2-11.4,6.5-24.4c-1.4-11.8-1.6-13.2-1.6-13.3c-1-5.6-1.6-11.3-1.8-17
					c0.4-7.1,2.4-11.1,7-20.3c4.6-9.3,7.5-14.7,12.4-17.6c0.2-0.1,0.5-0.3,0.7-0.4c3.1-1.6,5.2-2.6,7.5-3.9c1.7-1,3.5-2.1,6-3.8
					c0.4-0.3,0.9-0.3,1.3-0.1L303.7,207.1z"/>
				<g id="Group_29774" transform="translate(9.74 5.661)">
					<path id="Path_44630" class="st60" d="M303.5,224.2c0.2-0.1,0.5-0.3,0.7-0.4c3.1-1.6,5.2-2.6,7.5-3.9c1.7-1,3.5-2.1,6-3.8
						c6-3.5,3.5,35.2-3.7,41.5c-2.1,2.1-1.8,2.9-2.8,6.4c-0.5,1.8-1,2.6-1.7,2.9c-0.7,0.3-1.4,0.4-2.2,0.2c-0.2,0-0.4,0.1-0.6,0.2
						c-1.8,1-4.9,6.4-6.8,10.6c-2.1,4.7-1.1,8.9-1.4,14.2c-0.5,9.5-3.9,18.5-9.8,26c-1.9,2.7-4.2,4.9-7,6.6
						c-4.2,2.5-7.9,1.5-9.8-2.6c-0.9-1.9-1.1-1.4-2-1.8c-0.9-0.4-1.1-1.4,0.1-2.5c0.8-0.7,1.4-1.5,1.9-2.4c0.2-0.4,0.5-0.7,0.9-1
						c0.4-0.2,0.7-0.1,0.6,0.7c-0.1,2.8,1.6,5.7,5.1,3.7c0.9-0.5,1.7-1.2,2.4-1.9c5.1-5.1,8.2-11.4,6.5-24.4
						c-1.4-11.8-1.6-13.2-1.6-13.3c-1-5.6-1.6-11.3-1.8-17c0.4-7.1,2.4-11.1,7-20.3C295.7,232.5,298.5,227.1,303.5,224.2z"/>
				</g>
				<path id="Path_44631" class="st62" d="M258.2,305.5c-0.1-0.1-0.3,0-0.4,0.1c-0.4,0.2-0.7,0.6-0.9,0.9c-0.5,0.9-1.2,1.7-2,2.4
					c-1.1,1.1-1,2-0.3,2.4c8.3,4.9,16.7,9.7,25,14.5c-0.7-0.4-0.8-1.4,0.3-2.4c0.8-0.7,1.4-1.5,1.9-2.4c0.2-0.4,0.5-0.7,0.9-1
					c0.1-0.1,0.3-0.1,0.4-0.1C274.8,315.2,266.5,310.4,258.2,305.5z"/>
			</g>
		</g>
		<g id="Group_29780" transform="translate(201.866 543.428)">
			<g id="Group_29779" transform="translate(0)">
				<g id="Group_29777" transform="translate(2.749)">
					<path id="Path_44632" class="st58" d="M314.5,257.2c-1,0.7-1.6,1.8-1.8,3c-0.2,0.7-0.6,1.4-1.3,1.8l4.4-2.5
						c0.7-0.4,1.1-1,1.3-1.8c0.2-1.2,0.8-2.3,1.8-3L314.5,257.2z"/>
					<path id="Path_44633" class="st58" d="M325.2,244.8c-2.9-5.3-5.4-10.8-7.6-16.4c-2.2-5.4-3.2-7.6-5.8-9.2s-8.1-4.2-10.7-4
						c-0.6,0.1-1.1,0.2-1.6,0.5l-0.2,0.1l-4.2,2.4c0.5-0.3,1-0.5,1.6-0.5c2.5-0.2,8,2.5,10.7,4c2.6,1.5,3.6,3.7,5.8,9.2
						c2.2,5.6,4.7,11.1,7.6,16.4c1.3,2.3,1.8,3.6,1.6,4.4l-2.5,1.5c-0.7,0.4-0.5,1.1-0.8,2.1c-0.1,0.4-0.3,0.7-0.6,0.9
						c1.5-0.9,2.9-1.7,4.4-2.6c0.3-0.2,0.6-0.5,0.7-0.9c0.1-0.5,0.1-0.9,0.2-1.3l2.5-1.4C327.1,249.5,327.2,248.2,325.2,244.8z"/>
				</g>
				<g id="Group_29778" transform="translate(0 0.993)">
					<path id="Path_44634" class="st57" d="M310.1,220.8c2.6,1.5,3.6,3.7,5.8,9.2c2.2,5.6,4.7,11.1,7.6,16.4c2.6,4.4,1.7,5.2,0,5.6
						c-1.7,0.3-1.4,1.1-1.7,2.4c-0.3,1.3-1.6,1.1-3.5,1.5c-1.9,0.4-2.4,1.7-2.9,3.4c-0.5,1.7-1.8,2.5-5,2.3
						c-2.2,0.1-1.7,1.9-4.7,1.5c-0.5-0.1-1-0.3-1.5-0.6c-0.3-0.2-0.5-0.3-0.8-0.5s-0.5-0.3-0.8-0.5c-0.6-0.4-1.3-0.6-2.1-0.6
						c-1,0-1.9-0.3-2.8-0.8c-1.3-0.6-2-2.2-1.4-3.5c1.1-3.3,1.3-6.8,0.6-10.2c-0.1-0.4-2.1-8-3.8-12.1s-3.8-6.6-1.6-10
						s5.1-7.3,7.7-7.5C302,216.5,307.5,219.2,310.1,220.8z"/>
				</g>
			</g>
		</g>
		<g id="Group_29791" transform="translate(205.197 566.747)">
			<g id="Group_29790" transform="translate(0 0)">
				<g id="Group_29789">
					<g id="Group_29788" transform="translate(3.418 1.986)">
						<path id="Path_44645" class="st56" d="M308.8,256c0.9-0.5,1.8-0.9,2.8-1c3.7-1,7.5,0.5,9.7,3.6c3.4,6.1-1.5,34.6-1.3,39.1
							c0.1,3.6,1.5,3.1,2.6,5.9c0.7,2.1,0.5,3.5-6.3,7.5c-1,0.5-2,1.1-3.1,1.7c-0.5,0.3-1,0.5-1.4,0.7c-2.6,1.3-3.9,1.5-4.2,1
							c-0.4-0.6,0.5-2.2,1.7-4.5c2.2-4.3,2.3-9.7-0.1-18.5c-1.4-4.8-3.4-9.4-6.1-13.6c-1.5-3-2.1-6.4-1.7-9.8
							C302,263.2,304.7,258.7,308.8,256z"/>
					</g>
					<path id="Path_44646" class="st60" d="M313.4,252.9c-2.2-1.2-4.7-1.5-7.2-1c-1,0.2-1.9,0.5-2.8,1c-4.1,2.7-6.8,7.1-7.3,12.1
						c-0.4,3.4,0.2,6.8,1.7,9.8c2.7,4.2,4.7,8.8,6.1,13.6c2.4,8.9,2.3,14.2,0,18.5c-1.2,2.3-2.1,3.9-1.7,4.5c0,0.1,0.1,0.1,0.2,0.2
						l8.8,5.1c-0.1,0-0.1-0.1-0.2-0.2c-0.4-0.6,0.5-2.2,1.7-4.5c2.2-4.3,2.3-9.7-0.1-18.5c-1.4-4.8-3.4-9.4-6.1-13.6
						c-1.5-3-2.1-6.4-1.7-9.8c0.5-4.9,3.2-9.4,7.3-12.1c0.9-0.5,1.8-0.9,2.8-1c2.4-0.5,5-0.1,7.2,1L313.4,252.9z"/>
				</g>
			</g>
			<path id="Path_44647" class="st59" d="M311,316.7c0-3.7-2.3-4-3.5-2.1l0,0l0,0c0-3.6-2.3-3.8-3.5-2c0-3.1-0.8-3.5-1.5-3.2
				c-0.7,0.7-0.6,1.8,0.1,2.5c0.1,0.1,0.2,0.2,0.3,0.2c1.2,0.8,2.4,1.6,3.7,2.2C308,315.1,309.5,315.9,311,316.7z"/>
		</g>
		<g id="Group_29795" transform="translate(229.28 554.732)">
			<g id="Group_29794" transform="translate(0 0)">
				<g id="Group_29793">
					<g id="Group_29792" transform="translate(3.418 1.986)">
						<path id="Path_44648" class="st56" d="M346.5,237.2c0.9-0.5,1.8-0.9,2.8-1c3.7-1,7.5,0.5,9.7,3.6c3.4,6.1-1.5,34.6-1.3,39.1
							c0.1,3.6,1.5,3.1,2.6,5.9c0.7,2.1,0.5,3.5-6.3,7.5c-1,0.5-2,1.1-3.1,1.7c-0.5,0.3-1,0.5-1.4,0.7c-2.6,1.3-3.9,1.5-4.2,1
							c-0.4-0.6,0.5-2.2,1.7-4.5c2.2-4.3,2.3-9.7-0.1-18.5c-1.4-4.8-3.4-9.4-6.1-13.6c-1.5-3-2.1-6.4-1.7-9.8
							C339.7,244.3,342.4,239.9,346.5,237.2z"/>
					</g>
					<path id="Path_44649" class="st60" d="M351.1,234.1c-2.2-1.2-4.7-1.5-7.2-1c-1,0.2-1.9,0.5-2.8,1c-4.1,2.7-6.8,7.1-7.3,12.1
						c-0.4,3.4,0.2,6.8,1.7,9.8c2.7,4.2,4.7,8.8,6.1,13.6c2.4,8.9,2.3,14.2,0.1,18.5c-1.2,2.3-2.1,3.9-1.7,4.5
						c0,0.1,0.1,0.1,0.2,0.2l8.8,5.1c-0.1,0-0.1-0.1-0.2-0.2c-0.4-0.6,0.5-2.2,1.7-4.5c2.2-4.3,2.3-9.7-0.1-18.5
						c-1.4-4.8-3.4-9.4-6.1-13.6c-1.5-3-2.1-6.4-1.7-9.8c0.5-4.9,3.2-9.4,7.3-12.1c0.9-0.5,1.8-0.9,2.8-1c2.4-0.5,5-0.1,7.2,1
						L351.1,234.1z"/>
				</g>
			</g>
		</g>
	</g>
</g>
</svg>
