<?xml version="1.0" encoding="utf-8"?>
<!-- Generator: Adobe Illustrator 25.0.0, SVG Export Plug-In . SVG Version: 6.00 Build 0)  -->
<svg version="1.1" id="Layer_1" xmlns="http://www.w3.org/2000/svg" xmlns:xlink="http://www.w3.org/1999/xlink" x="0px" y="0px"
	 viewBox="0 0 640 640" style="enable-background:new 0 0 640 640;" xml:space="preserve">
<style type="text/css">
	.st0{enable-background:new    ;}
	.st1{clip-path:url(#SVGID_2_);enable-background:new    ;}
	.st2{fill:#32788C;}
	.st3{clip-path:url(#SVGID_4_);enable-background:new    ;}
	.st4{fill:#378197;}
	.st5{fill:#39849A;}
	.st6{fill:#3B879E;}
	.st7{fill:#3D8AA2;}
	.st8{fill:#3F8EA5;}
	.st9{fill:#4091A9;}
	.st10{fill:#4294AC;}
	.st11{fill:#4497B0;}
	.st12{fill:#367E93;}
	.st13{fill:#347B90;}
	.st14{fill:#4FADC9;}
	.st15{fill:#FFFFFF;}
	.st16{fill:#41464C;}
	.st17{fill:#5A5858;}
	.st18{fill:#7D6E5F;}
	.st19{fill:#3F444A;}
	.st20{fill:#907E6A;}
	.st21{fill:#DDD9CE;}
	.st22{fill:#EAE5DD;}
	.st23{fill:#F6F1EB;}
	.st24{fill:#D6764D;}
	.st25{fill:#E87F54;}
	.st26{fill:#D86F4A;}
</style>
<g>
	<g class="st0">
		<g class="st0">
			<defs>
				<path id="SVGID_1_" class="st0" d="M48.4,367.4l-0.1,40.8c0-2.2-0.5-4.4-1.8-6.5c-6.7-11.2-32.1-17.8-31.7-29.7l0.1-40.8
					c-0.4,11.9,25,18.5,31.7,29.7C47.9,363.1,48.4,365.2,48.4,367.4z"/>
			</defs>
			<clipPath id="SVGID_2_">
				<use xlink:href="#SVGID_1_"  style="overflow:visible;"/>
			</clipPath>
			<g class="st1">
				<path class="st2" d="M48.4,367.4l-0.1,40.8c0-2.2-0.5-4.4-1.8-6.5c-6.7-11.2-32.1-17.8-31.7-29.7l0.1-40.8
					c-0.4,11.9,25,18.5,31.7,29.7C47.9,363.1,48.4,365.2,48.4,367.4"/>
			</g>
		</g>
		<g class="st0">
			<defs>
				<path id="SVGID_3_" class="st0" d="M622.1,356l-0.1,40.8c0,13.2-6.3,26.5-18.3,37.7c-17.9,16.7-48.3,28.7-81.8,32.2
					c-57.4,5.9-119.2-12.2-173.4,0.2c-14.4,3.3-27.2,8.6-40.9,12.8C241.5,500.2,158.4,494,90.9,475c-12.6-3.6-25.6-8.2-35.6-14
					c-10.6-6.1-17.9-13.5-17.9-22.1l0.1-40.8c0,8.6,7.3,16,17.9,22.1c10,5.8,23,10.5,35.6,14c67.6,19.1,150.6,25.2,216.7,4.8
					c13.7-4.2,26.4-9.5,40.9-12.8c54.2-12.4,116,5.7,173.4-0.2c33.4-3.5,63.9-15.5,81.8-32.2C615.8,382.5,622,369.3,622.1,356z"/>
			</defs>
			<clipPath id="SVGID_4_">
				<use xlink:href="#SVGID_3_"  style="overflow:visible;"/>
			</clipPath>
			<g class="st3">
				<path class="st4" d="M622.1,356l-0.1,40.8c0,0.4,0,0.7,0,1.1l0.1-40.8C622.1,356.8,622.1,356.4,622.1,356"/>
				<path class="st5" d="M622.1,357.2l-0.1,40.8c-0.1,2.4-0.3,4.8-0.8,7.2l0.1-40.8C621.7,362,622,359.6,622.1,357.2"/>
				<path class="st6" d="M621.2,364.4l-0.1,40.8c-0.5,2.4-1.2,4.8-2,7.1l0.1-40.8C620.1,369.1,620.8,366.8,621.2,364.4"/>
				<path class="st7" d="M619.2,371.5l-0.1,40.8c-0.9,2.4-2,4.8-3.3,7.1l0.1-40.8C617.2,376.3,618.3,373.9,619.2,371.5"/>
				<path class="st8" d="M615.8,378.6l-0.1,40.8c-1.4,2.5-3.1,5-4.9,7.3l0.1-40.8C612.8,383.6,614.4,381.1,615.8,378.6"/>
				<path class="st9" d="M610.9,386l-0.1,40.8c-2.1,2.7-4.5,5.3-7.2,7.8c-0.1,0.1-0.2,0.1-0.2,0.2l0.1-40.8c0.1-0.1,0.2-0.1,0.2-0.2
					C606.4,391.3,608.8,388.7,610.9,386"/>
				<path class="st10" d="M603.5,394l-0.1,40.8c-4.3,4-9.4,7.7-15,11.1l0.1-40.8C594.2,401.7,599.2,398,603.5,394"/>
				<path class="st11" d="M588.5,405.1l-0.1,40.8c-8.6,5.2-18.6,9.7-29.5,13.2l0.1-40.8C569.9,414.8,579.9,410.3,588.5,405.1"/>
				<path class="st10" d="M559,418.3l-0.1,40.8c-7.3,2.3-15,4.2-22.9,5.7l0.1-40.8C544.1,422.5,551.7,420.6,559,418.3"/>
				<path class="st9" d="M536.1,423.9l-0.1,40.8c-4.6,0.8-9.4,1.5-14.1,2c-0.3,0-0.6,0.1-0.9,0.1l0.1-40.8c0.3,0,0.6-0.1,0.9-0.1
					C526.8,425.5,531.5,424.8,536.1,423.9"/>
				<path class="st8" d="M521.1,426l-0.1,40.8c-5,0.5-10,0.8-15.1,1L506,427C511,426.9,516.1,426.5,521.1,426"/>
				<path class="st7" d="M506,427l-0.1,40.8c-6.2,0.2-12.4,0.2-18.6,0l0.1-40.8C493.6,427.2,499.8,427.2,506,427"/>
				<path class="st6" d="M487.3,427.1l-0.1,40.8c-28.4-0.7-57.3-4.5-85.3-5.2l0.1-40.8C430,422.5,458.9,426.4,487.3,427.1"/>
				<path class="st7" d="M402.1,421.8l-0.1,40.8c-6.1-0.2-12.1-0.2-18.1,0l0.1-40.8C389.9,421.7,396,421.7,402.1,421.8"/>
				<path class="st8" d="M383.9,421.9l-0.1,40.8c-4.8,0.2-9.7,0.5-14.4,0.9l0.1-40.8C374.3,422.3,379.1,422,383.9,421.9"/>
				<path class="st9" d="M369.5,422.8l-0.1,40.8c-4.7,0.5-9.4,1.1-14,1.9l0.1-40.8C360.1,423.9,364.8,423.3,369.5,422.8"/>
				<path class="st10" d="M355.5,424.7l-0.1,40.8c-2.3,0.4-4.7,0.9-7,1.4c-5.3,1.2-10.3,2.7-15.3,4.3l0.1-40.8
					c5-1.6,10-3.1,15.3-4.3C350.9,425.6,353.2,425.2,355.5,424.7"/>
				<path class="st11" d="M333.3,430.4l-0.1,40.8c-7.7,2.5-15.2,5.2-23,7.7l0.1-40.8C318.1,435.7,325.6,432.9,333.3,430.4"/>
				<path class="st10" d="M310.3,438.1l-0.1,40.8c-0.9,0.3-1.7,0.6-2.6,0.8c-10,3.1-20.4,5.6-31.1,7.5l0.1-40.8
					c10.7-1.9,21.1-4.4,31.1-7.5C308.6,438.7,309.5,438.4,310.3,438.1"/>
				<path class="st9" d="M276.6,446.5l-0.1,40.8c-8.1,1.5-16.4,2.6-24.8,3.4l0.1-40.8C260.2,449.1,268.5,447.9,276.6,446.5"/>
				<path class="st8" d="M251.8,449.9l-0.1,40.8c-7.7,0.8-15.5,1.3-23.4,1.5l0.1-40.8C236.2,451.2,244,450.7,251.8,449.9"/>
				<path class="st7" d="M228.4,451.5l-0.1,40.8c-7.9,0.3-15.8,0.3-23.7,0.1l0.1-40.8C212.6,451.8,220.5,451.7,228.4,451.5"/>
				<path class="st6" d="M204.6,451.6l-0.1,40.8c-8.3-0.2-16.7-0.7-25-1.4l0.1-40.8C188,450.9,196.3,451.3,204.6,451.6"/>
				<path class="st5" d="M179.6,450.2l-0.1,40.8c-9.1-0.7-18.1-1.8-27-3l0.1-40.8C161.5,448.4,170.6,449.5,179.6,450.2"/>
				<path class="st4" d="M152.6,447.2l-0.1,40.8c-10-1.4-19.9-3.2-29.7-5.2l0.1-40.8C132.7,444,142.6,445.7,152.6,447.2"/>
				<path class="st12" d="M122.9,442l-0.1,40.8c-10.9-2.3-21.6-4.9-32-7.8c-0.2-0.1-0.4-0.1-0.6-0.2l0.1-40.8
					c0.2,0.1,0.4,0.1,0.6,0.2C101.3,437.1,112,439.7,122.9,442"/>
				<path class="st13" d="M90.4,434.1l-0.1,40.8c-6.5-1.9-13.2-4-19.4-6.5l0.1-40.8C77.3,430,83.9,432.2,90.4,434.1"/>
				<path class="st2" d="M71,427.6l-0.1,40.8c-5.7-2.2-11-4.7-15.7-7.4c-10.6-6.1-17.9-13.5-17.9-22.1l0.1-40.8
					c0,8.6,7.3,16,17.9,22.1C60,422.9,65.4,425.4,71,427.6"/>
			</g>
		</g>
		<g>
			<path class="st14" d="M595,314.3c10.7,6.2,18.7,14.4,22.7,22.7c9.1,19,3.9,40.1-13.9,56.8c-17.9,16.7-48.3,28.7-81.8,32.2
				c-57.4,5.9-119.2-12.2-173.4,0.2c-14.4,3.3-27.2,8.6-40.9,12.8c-66.1,20.4-149.2,14.3-216.7-4.8c-12.6-3.6-25.6-8.2-35.6-14
				c-10.6-6.1-17.9-13.5-17.9-22.1c0-12.7,16.3-25.1,9.2-37.2c-6.7-11.2-32.1-17.8-31.7-29.7c0.1-3,2-5.8,4.2-8.6
				c9.3-11.5,24.6-21.3,43.5-27.8l10.2-8.3c14.9-12.1,13.9-35,37.4-41.1c25.4-6.6,133.4,8.7,149.7-4.4
				c59.2-47.2,107.5-45.9,158.4-16.5c26.5,15.3,53.6,38.1,83.4,65.8c4.2,3.9,8.8,9.2,14.7,12.6c3.6,2.1,7.7,3.5,12.5,3.5
				c6.7,0.1,13.1-1.4,19.7-2.1C566,302.5,582.3,307,595,314.3z"/>
		</g>
	</g>
</g>
<g>
	<path class="st15" d="M414.5,284.3c-18.6-5.6-8.5-1.9-27.3-6.9c-18.8-5-20.3,0.6-39.1-4.4c-18.8-5-17.2-11.6-36.3-15.7
		c-18.9-4.1-20.2,2.5-39.2-0.7c-19.1-3.2-18.1-9-37.2-12.2c-19.1-3.2-17.1,9-23-4.9c-6.4-15-29.6,10.2-41.6,21.2
		c-12,11-8.1,15.3-20.1,26.4c-12,11-22.7,3.7-28.7,18.9c-3.2,8.1-6.7,17.3,1.8,16.2c15.3-2,12.8,8.1,17.6,15.4
		c4.8,7.2,5.7,6.3,13.4,10.2c6.8,3.5,6.6,4.6,14.1,3.8c7.6-0.8,6.9-6.6,14.5-7.4c7.6-0.8,7.3,1.8,14.7,4c13.7,4.1,14.8,1.5,27.3,8.3
		c12.6,6.8,9.8,11.9,22.3,18.7c12.6,6.8,12.7,6.5,26.8,8.2c15.2,1.8,15.3,2.2,30.2-1.4c14.9-3.6,13.6-6.3,28.5-9.9
		c14.9-3.6,15.5,5.9,30.8,4.4c5.4-0.5,5.8-4,11-2.4c5.2,1.6,3.4,7.2,8.6,8.8c5.2,1.6,5.3-1,10.5-2.3c8.9-2.2,10-8.3,17.7-13.2
		c7.7-4.9,4.6-9.8,12.4-14.7c7.7-4.9,12.3,1.1,19-5.2c5.7-5.3,0-10.2,4.4-16.5c4.4-6.4,9.2-3.1,13.5-9.5c4.4-6.4,5.9-6.2,3.6-13.6
		c-2.3-7.4-3.4-6.4-10.7-9.2c-7.2-2.8-8.8,2-16.3-0.1C430.3,296.6,422,286.5,414.5,284.3z"/>
	<path class="st15" d="M210.8,376.2c2.8-1.1,4.9,1.2,6.2-1.5c1.2-2.7-0.3-2.5-2.3-4.6c-4.1-4.5-2.5-6.9-8.2-9
		c-5.7-2.2-6,0.6-12.1,1.3c-4.6,0.5-5.6-1.8-8.9,1.4c-3.3,3.2-0.6,4.7-1.7,9.2c-0.7,2.6-2.6,3.2-0.5,4.9c2.1,1.7,4-2.3,6.6-1.8
		c5.5,1.2,5.2,6,10.8,5.8C206,381.6,205.5,378.2,210.8,376.2z"/>
	<path class="st15" d="M209.8,411.3c-0.8,0.7-7.3-2.1-14.3,0.1c-7.6,2.4-7,3.3-12,9.4c-3.2,3.8-6.2,2.3-7.4,7.1
		c-1.2,4.8-1.2,4.9,2.4,8.2c7.2,6.7,6.6,7.7,16,10.5c9.4,2.8,9.8,0.1,19.6-0.1c9.8-0.2,10.3,2.5,19.6-0.6c9.3-3.1,7.8-6.2,16.1-11.5
		c3.2-2.1,5.6-0.2,6.9-3.8c1.3-3.6,1.4-3.7-1.8-5.8c-6.6-4.4-5.9-6.1-13.8-6.9c-7.8-0.8-9.3,6.4-16.8,4.1c-4.1-1.3-0.8-8.7-4.7-10.7
		C215.5,409.5,213.5,413.5,209.8,411.3z"/>
</g>
<g>
	<g>
		<polygon class="st16" points="341,332.9 350.8,314.8 424.1,290.2 408.1,262.8 308.5,309.3 307,320.1 		"/>
		<polygon class="st17" points="356,338.5 312.9,320.1 318,338 320.7,350.6 		"/>
		<polygon class="st18" points="200.7,339 213.8,290.2 281,330.7 274.4,375.6 		"/>
		<polygon class="st19" points="363.8,364.8 274.4,375.6 281,330.7 328.7,325.5 328.7,341.5 356,338.5 		"/>
		<polygon class="st19" points="121.7,273 162.7,279.5 179.8,273 184.5,262.8 		"/>
		<polygon class="st20" points="163.5,249.4 121.7,273 165.4,267.7 201.8,247.3 		"/>
		<polygon class="st20" points="408.1,262.8 347.7,226 246,219.3 165.4,267.7 188.3,295.3 213.8,290.2 281,330.7 328.7,325.5 
			308.5,309.3 		"/>
		<g>
			<polygon class="st18" points="343.2,252.4 330.6,280.1 282.9,287.5 247.9,267.2 260.5,239.6 308.2,232.2 			"/>
		</g>
		<polygon class="st18" points="386.7,323.7 350.8,314.8 341.4,332.3 356,338.5 363.8,364.8 385.8,368.5 		"/>
		<polygon class="st18" points="453.6,310.8 424.1,290.2 350.8,314.8 386.7,323.7 		"/>
		<polygon class="st19" points="426.6,343.9 385.8,368.5 386.7,323.7 453.6,310.8 		"/>
	</g>
	<polygon class="st19" points="167.2,345.3 200.7,339 213.8,290.2 188.3,295.3 184,314.8 173,320.1 	"/>
	<polygon class="st20" points="153.8,279.5 135.9,287.5 173,320.1 184,314.8 164,295.3 	"/>
	<polygon class="st18" points="128.7,310.8 135.9,287.5 173,320.1 167.2,345.3 	"/>
	<polygon class="st18" points="153.8,279.5 165.4,267.7 188.3,295.3 184,314.8 164,295.3 	"/>
</g>
<g>
	<g>
		<g>
			<g class="st0">
				<g>
					<polygon class="st21" points="336.4,231.8 336.4,255.9 325.5,279.6 325.6,255.5 					"/>
				</g>
				<g>
					<polygon class="st22" points="325.6,255.5 325.5,279.6 284.7,285.9 284.7,261.9 					"/>
				</g>
				<g>
					<polygon class="st23" points="284.7,261.9 284.7,285.9 254.6,268.6 254.7,244.5 					"/>
				</g>
				<g>
					<polygon class="st15" points="336.4,231.8 325.6,255.5 284.7,261.9 254.7,244.5 265.5,220.8 306.4,214.5 					"/>
				</g>
			</g>
		</g>
		<g>
			<g class="st0">
				<g>
					<polygon class="st21" points="316.8,134.8 325.9,227.8 317.8,245.4 311.2,147.1 					"/>
				</g>
				<g>
					<polygon class="st22" points="311.2,147.1 317.8,245.4 287.5,250.1 289.9,150.4 					"/>
				</g>
				<polygon class="st21" points="311.6,153.3 311.2,147.1 289.9,150.4 289.8,156.7 				"/>
				<g>
					<polygon class="st23" points="289.9,150.4 287.5,250.1 265.2,237.3 274.3,141.4 					"/>
				</g>
				<polygon class="st22" points="273.7,148.5 288.3,157 289.8,156.7 289.9,150.4 274.3,141.4 				"/>
				<g>
					<polygon class="st24" points="316.8,134.8 311.2,147.1 289.9,150.4 274.3,141.4 280,129.1 301.2,125.8 					"/>
				</g>
			</g>
		</g>
		<g>
			<g class="st0">
				<g>
					<polygon class="st21" points="322.8,125.8 322.8,134 315.5,149.8 315.6,141.6 					"/>
				</g>
				<g>
					<polygon class="st22" points="315.6,141.6 315.5,149.8 288.3,154 288.3,145.8 					"/>
				</g>
				<g>
					<polygon class="st23" points="288.3,145.8 288.3,154 268.2,142.4 268.3,134.3 					"/>
				</g>
				<g>
					<polygon class="st15" points="322.8,125.8 315.6,141.6 288.3,145.8 268.3,134.3 275.5,118.5 302.8,114.2 					"/>
				</g>
			</g>
		</g>
		<g>
			<g class="st0">
				<g>
					<path class="st23" d="M317.5,105v23.8c0,3.2-2.1,6.5-6.4,8.9c-8.5,5-22.4,5-31,0c-4.3-2.5-6.5-5.8-6.5-9.1v-23.8
						c0,3.3,2.5,6.6,6.8,9.1c8.6,5,22.5,5,31,0C315.7,111.4,317.5,108.2,317.5,105z"/>
				</g>
			</g>
		</g>
		<path class="st22" d="M311.4,113.9c-8.5,5-22.4,5-31,0c-4.3-2.5-6.9-5.8-6.8-9.1v11.4c0.9,2.3,2.9,4.5,6.1,6.3
			c8.9,5.1,23.2,5.1,32,0c2.9-1.7,4.9-3.8,5.8-6V105C317.5,108.2,315.7,111.4,311.4,113.9z"/>
		<path class="st25" d="M320.1,106.3c0-13.6-11-24.6-24.6-24.6c-13.6,0-24.6,11-24.6,24.6h0c0,3.6,2.2,7.1,6.8,9.9
			c9.4,5.7,25,5.8,34.8,0.4C317.6,113.7,320.1,110,320.1,106.3L320.1,106.3z"/>
		<path class="st26" d="M295.5,81.7C295.5,81.7,295.5,81.7,295.5,81.7c4.1,7.4,6.6,17.3,6.6,28.2h0c0,3.6-0.9,7.2-2.6,10.5
			c4.7-0.5,9.2-1.7,13-3.8c5-2.8,7.5-6.5,7.5-10.2h0C320.1,92.7,309.1,81.7,295.5,81.7z"/>
	</g>
</g>
<g>
	<polygon class="st18" points="188.4,437.2 199.8,422.1 226.7,416.9 238.1,438.6 216.4,443.7 	"/>
	<polygon class="st20" points="194.1,406.9 199.8,422.1 226.7,416.9 243.3,406.9 219.1,396.1 	"/>
	<polygon class="st16" points="243.3,406.9 247.9,419.9 247.9,428 238.1,438.6 226.7,416.9 	"/>
	<polygon class="st18" points="188.4,437.2 194.1,406.9 199.8,422.1 	"/>
</g>
<g>
	<polygon class="st18" points="184.5,372.8 193.8,368.1 201.8,365.5 205.2,376.4 198.7,378.9 	"/>
	<polygon class="st20" points="192.1,360.5 193.8,368.1 201.8,365.5 206.7,360.5 196.6,358 	"/>
	<polygon class="st16" points="206.7,360.5 216.8,369.9 208.1,371.1 205.2,376.4 201.8,365.5 	"/>
	<polygon class="st18" points="184.5,372.8 192.1,360.5 193.8,368.1 	"/>
</g>
</svg>
