<?xml version="1.0" encoding="utf-8"?>
<!-- Generator: Adobe Illustrator 25.0.0, SVG Export Plug-In . SVG Version: 6.00 Build 0)  -->
<svg version="1.1" id="Layer_1" xmlns="http://www.w3.org/2000/svg" xmlns:xlink="http://www.w3.org/1999/xlink" x="0px" y="0px"
	 viewBox="0 0 640 640" style="enable-background:new 0 0 640 640;" xml:space="preserve">
<style type="text/css">
	.st0{fill:url(#Path_14254_1_);}
	.st1{opacity:0.57;fill:#666453;enable-background:new    ;}
	.st2{fill:url(#Path_14256_1_);}
	.st3{opacity:0.57;fill:#76735F;enable-background:new    ;}
	.st4{fill:#5E5B4D;}
	.st5{opacity:0.64;fill:#575442;enable-background:new    ;}
	.st6{fill:#575442;}
	.st7{fill:#706D5A;}
	.st8{fill:url(#Path_14264_1_);}
	.st9{fill:#6F6C59;}
	.st10{fill:#4D4939;}
	.st11{fill:#696757;}
	.st12{fill:#7F7D68;}
	.st13{fill:#777257;}
	.st14{fill:#939074;}
	.st15{fill:#7D7963;}
	.st16{fill:#E2DACC;}
	.st17{fill:#EDE6C2;}
	.st18{fill:#C8C39E;}
	.st19{fill:#845F42;}
	.st20{fill:#845A2C;}
	.st21{fill:#996D3B;}
	.st22{clip-path:url(#SVGID_2_);}
	.st23{fill:#CBC4B9;}
	.st24{fill:#929B3B;}
	.st25{fill:#9DAC42;}
	.st26{clip-path:url(#SVGID_4_);}
	.st27{opacity:0.6;}
	.st28{fill:#A79D8D;}
	.st29{fill:#E9E5D9;}
	.st30{fill:#D2CBBF;}
	.st31{fill:#C5BFB1;}
	.st32{fill:#B9B0A0;}
	.st33{fill:#B3792B;}
	.st34{fill:#C88C2C;}
	.st35{fill:#F2B33F;}
	.st36{fill:#F5BD5B;}
	.st37{fill:#D8D2C5;}
	.st38{fill:url(#Path_14082_1_);}
	.st39{fill:#DE9C31;}
	.st40{fill:#C7852A;}
	.st41{fill:url(#Path_14102_1_);}
	.st42{fill:#543A2F;}
	.st43{fill:#67893B;}
	.st44{fill:url(#Ellipse_70_1_);}
	.st45{opacity:0.3;fill:url(#Path_14139_1_);enable-background:new    ;}
	.st46{opacity:0.7;fill:url(#Path_14140_1_);enable-background:new    ;}
	.st47{fill:url(#Ellipse_71_1_);}
	.st48{opacity:0.3;fill:url(#Ellipse_72_1_);enable-background:new    ;}
	.st49{opacity:0.7;fill:url(#Path_14142_1_);enable-background:new    ;}
	.st50{fill:url(#Ellipse_73_1_);}
	.st51{opacity:0.3;fill:url(#Ellipse_74_1_);enable-background:new    ;}
	.st52{opacity:0.7;fill:url(#Path_14144_1_);enable-background:new    ;}
	.st53{fill:url(#Ellipse_70-2_1_);}
	.st54{opacity:0.3;fill:url(#Path_14139-2_1_);enable-background:new    ;}
	.st55{opacity:0.7;fill:url(#Path_14140-2_1_);enable-background:new    ;}
	.st56{fill:url(#Ellipse_71-2_1_);}
	.st57{opacity:0.3;fill:url(#Ellipse_72-2_1_);enable-background:new    ;}
	.st58{opacity:0.7;fill:url(#Path_14142-2_1_);enable-background:new    ;}
	.st59{fill:url(#Ellipse_73-2_1_);}
	.st60{opacity:0.3;fill:url(#Ellipse_74-2_1_);enable-background:new    ;}
	.st61{opacity:0.7;fill:url(#Path_14144-2_1_);enable-background:new    ;}
	.st62{fill:url(#Path_14145_1_);}
	.st63{fill:#53504F;}
	.st64{fill:url(#Path_14146_1_);}
	.st65{fill:url(#Path_14147_1_);}
	.st66{fill:#FFFFFF;}
	.st67{fill:url(#Path_14069_1_);}
	.st68{fill:url(#Path_14070_1_);}
	.st69{fill:url(#Path_14071_1_);}
	.st70{fill:url(#Path_14074_1_);}
	.st71{fill:url(#Path_14075_1_);}
	.st72{fill:url(#Path_14076_1_);}
</style>
<g id="Group_17535" transform="translate(-716.473 -701.957)">
	<g id="Group_17496" transform="translate(730.271 728.211)">
		<g id="Group_17495" transform="translate(0 0)">
			<g id="Group_17486" transform="translate(0 32.388)">
				
					<linearGradient id="Path_14254_1_" gradientUnits="userSpaceOnUse" x1="-22.6118" y1="5.2495" x2="-18.7437" y2="5.2495" gradientTransform="matrix(168.082 0 0 71.2492 4493.7114 -28.7311)">
					<stop  offset="0" style="stop-color:#9D997D"/>
					<stop  offset="1" style="stop-color:#767561"/>
				</linearGradient>
				<path id="Path_14254" class="st0" d="M11.5,222.1c7.6,9.2,16.6,16.5,28.2,18.8c18.9,21.2,41.3,47,41.3,45.7
					c0-2.5,59.5-40.9,154.5-44.2c24.2-0.9,91.5,6.3,127.4,10.2c12.8,1.4,21.6,2.4,23,2.5l35,0.8c32,2,58.7,29.4,59.1,29.4
					c13.4,1.7,15,0.8,53.9,10.8c34,8.8,49.6-66.2,54.2-53.7c0.1,0.4,0.3,1,0.5,1.7c-0.9,5.2-1.4,10.4-1.5,15.7
					c-4.5,23.9-7.5,48-9,72.3c-1.6,7.3-3.5,15.2-8.6,20.2c-4.3,3.4-8.2,7.4-11.6,11.7c-3.7,6.2-6.2,13.1-7.3,20.2
					c0,0.1-0.1,0.2-0.1,0.2c-2,7.6-3.9,15.1-5.6,22.8c-9.9,22.5-57,31.3-78.4,33.1c-17.8,1.5-36.6,0-53.9,5.3
					c-25,7.7-46.4,20.6-73.2,22.2c-21.3,1.2-43,0.6-64.3-0.1c-23.9-0.7-49.8-4.6-74.5-2.3c-11.9-1.4-23.7-3.7-35.3-6.9
					c-9.6-5.4-19-10.7-28.6-16.2c-11.2-6.5-25.7-4.6-36.9-11.2c-15.1-8.7-19.8-21.3-27.6-35.6c-1.4-2.6-2.8-5-4.2-7.2
					c-2-6.3-6-11.8-11.3-15.8c-8.7-5.5-19.5-8.1-25.5-17.2C24,326.6,7.6,265.6,7.6,242.2C8.1,235.3,9.5,228.6,11.5,222.1z"/>
				<path id="Path_14255" class="st1" d="M163.7,457.6c1.9-8.6,3.2-17.3,3.9-26.1c1.7-26,1.6-51.9,1.5-77.9c30.4,1.5,88.6-8,117-0.7
					c-30.8,2-88.8,21.7-94.7,62.3c-2.3,15.8-2.8,32.1-4,48.3c-7.6-1.4-15-3.2-22.4-5.1C164.6,458.1,164.2,457.8,163.7,457.6z"/>
				
					<linearGradient id="Path_14256_1_" gradientUnits="userSpaceOnUse" x1="3.7016" y1="12.4367" x2="7.1602" y2="12.4367" gradientTransform="matrix(24.5169 0 0 33.8506 776.0777 -35.895)">
					<stop  offset="0" style="stop-color:#58564B"/>
					<stop  offset="0.721" style="stop-color:#6C6B58"/>
				</linearGradient>
				<path id="Path_14256" class="st2" d="M440,441.4c-6.6,0.2-13.2,1-19.8,2.2c-0.4-10.6-2.6-21-6.4-30.9
					c-8-19.6-17.8-34.9-39.7-39.3c-16.2-3.3-21.8,4.3-17.5-16.4c0.7-3.4,1.2-6.3,1.6-9c21.2-14.4,45.4-23.2,71.4-21.1
					c0.9,0,1.8,0,2.7-0.1c0.9,1.5,1.9,2.9,3.1,4.1c0.5,0.5,1.1,1.2,1.6,1.7C436.2,369,437.1,405.3,440,441.4z"/>
				<path id="Path_14257" class="st3" d="M488.8,331.5c18.2-8.6,35.1-19.7,53.1-28.3c2.4-1.1,14.8,34.9,21.1,54.7
					c-2,1.8-3.8,3.8-5.3,6.1c-3.7,6.2-6.2,13.1-7.3,20.2c0,0.1-0.1,0.2-0.1,0.2c-2,7.5-3.8,15-5.6,22.6c-3.6,7.2-9.5,13-16.7,16.6
					c-9-32.5-23.5-63.2-42.7-90.9C486.5,332.4,487.7,332,488.8,331.5z"/>
				<path id="Path_14258" class="st4" d="M165.1,458.4c-9.6-5.4-19-10.7-28.6-16.2c-3.8-2.1-8-3.6-12.2-4.4v-0.1
					c0.2-0.5,0.5-1,0.7-1.6c6.8-21.6,8.5-43.5,9-65.5c0.6-5.8,1.2-11.5,1.7-17.3c0.2-2.5,0.1-5-0.2-7.5c16,2.8,31.9,8.4,41,18.5
					c8.5,9.5,1.4,38.4-0.5,49.8c-2.5,14.3-6.1,29.4-9.6,44.6C165.9,458.6,165.5,458.5,165.1,458.4z"/>
				<path id="Path_14259" class="st5" d="M339.2,467.7c-17.4,1-35.1,0.7-52.6,0.3c-10.4-44.1-34.7-83.7-69.3-112.8
					c29.3-2.9,58.7-4,88.1-3.3c14.2,0.5,39.3-1.9,56,2.9c0,1.1-0.1,2.1,0.1,3.3c1.5,14.5,2.3,29,2.3,43.5
					c-1.6,20.8-2.7,41.7-3.7,62.6C353.3,466.1,346.3,467.3,339.2,467.7z"/>
				<path id="Path_14260" class="st6" d="M99.7,431c-15.1-8.7-19.8-21.3-27.6-35.6c-1.4-2.6-2.8-5-4.2-7.2c-1.1-2.6-2.3-5.1-3.7-7.6
					c2.9-27.3-0.1-54.9-8.8-80.9c13.8,5.2,28.2,8.7,42.9,10.4c2.7,0.2,5.3,0.1,7.9-0.5c7,40.3,1.7,81.3-4.2,122.5
					C101.3,431.8,100.4,431.5,99.7,431z"/>
				<path id="Path_14261" class="st6" d="M366.1,432.5c0.5,6.4,0.8,12.8,1.1,19.2c-0.4,3.6-0.8,7.2-1.1,10.8c-3,0.9-6,1.8-9.1,2.5
					c-0.4-27.1-6.7-57.8-16.4-69.8c-11.9-14.6-39.2-21.5-56.7-26.5c-0.3-0.1-0.6-0.2-1-0.3c-2.4-0.9-20.6-13.2-23-14.1
					c30.9-1.3,77.6,5.9,107.7,0C362,380.2,364.1,405.4,366.1,432.5z"/>
				<path id="Path_14262" class="st6" d="M163.4,457.4c4.2-41-0.1-78-30.2-117.5c-3.2-4.3-6.6-8.6-9.8-12.9
					c7.7,0.5,15.4,1.3,23.1,2.6c14.9,4,29,10.5,41.7,19.3c-0.5,2.2-0.7,4.4-0.8,6.7c-1.8,4-2.9,8.4-3.3,12.8
					c-0.6,7.5-0.8,14.7-0.8,22c-1.1,23-3.3,47-6.7,70.9c-3.8-0.9-7.6-1.9-11.4-2.9C164.5,458.1,164,457.7,163.4,457.4z"/>
				<path id="Path_14263" class="st7" d="M578,332c-1.6,7.3-3.5,15.3-8.6,20.2c-4.3,3.4-8.2,7.4-11.6,11.7c-3.5,5.9-5.9,12.3-7,19.1
					c-0.3-2.7-0.6-5.3-0.8-7.5c-3-20.2-4.6-40.5-4.7-60.9c-20.3-57,38.6-83.9,42.9-72.3c0.1,0.4,0.3,1,0.5,1.7
					c-0.9,5.2-1.4,10.4-1.5,15.7C582.5,283.6,579.4,307.7,578,332z"/>
				
					<linearGradient id="Path_14264_1_" gradientUnits="userSpaceOnUse" x1="12.4292" y1="8.1774" x2="15.8842" y2="8.1774" gradientTransform="matrix(13.8448 0 0 44.0471 545.957 -53.4179)">
					<stop  offset="0" style="stop-color:#58564B"/>
					<stop  offset="0.721" style="stop-color:#6C6B58"/>
				</linearGradient>
				<path id="Path_14264" class="st8" d="M579.9,306.8c-5.9,13.7-8.9,28.4-8.8,43.3c-0.5,0.7-1.1,1.4-1.8,2
					c-4.3,3.4-8.2,7.4-11.6,11.7c-3.5,5.9-5.9,12.3-7,19.1c-0.3-2.7-0.6-5.3-0.8-7.5c-3-20.2-4.6-40.5-4.7-60.9
					c-20.3-57,39.4-93.3,43.6-81.7c0.2,0.4-0.5,10.4-0.3,11.1c-0.9,5.1-1.4,10.3-1.5,15.6C583.9,275.2,581.5,291,579.9,306.8z"/>
				<path id="Path_14265" class="st7" d="M457,440.8c-9.3,0.4-18.7,0.5-27.9,1.5c0.2-10.6,0.3-21.4,0.1-32.3
					c-0.4-27.3,4.5-57.5,0.8-85.4c1,0.1,2.1,0.2,3.1,0.3c9.5,0.8,19.1,0.8,28.7,0.1C457.6,363.1,454.4,402.3,457,440.8z"/>
				<path id="Path_14266" class="st9" d="M99.7,431c-3.4-1.9-6.5-4.3-9.3-7c8.9-31.1,4-41.3,1.7-78.1c11.3-19.3,38.1-19.3,54.1-14.5
					c-1.7,36-8.7,72-16.7,107.8C119.7,436.1,108.7,436.3,99.7,431z"/>
				<path id="Path_14267" class="st10" d="M52.4,340c-1.9,9.4-2.8,19-2.7,28.6c-7-3.5-14.2-6.7-18.7-13.5
					C23.8,326.4,7.4,265.4,7.4,242c0.2-1.6,0.5-3.2,0.7-4.7c8.6,16.4,17.1,32.7,32,44.8c9.4,7.9,20,14.4,31.3,19.3
					c9,3.1,17.7,6.9,26.1,11.3c9.6,5.8,5.5,11.6,2.4,18.3C84.2,316.9,57.5,314.9,52.4,340z"/>
			</g>
			<g id="Group_17494" transform="translate(0.001)">
				<path id="Path_14268" class="st5" d="M444.2,357.8c20.8,14.3,18.5,18.6,19.5,20.8c-0.1,1.9-0.2,3.6-0.3,5.3
					c-8.4-5.7-19.6-9.8-27-0.1c-6.8,8.9-7,22.3-9.6,32.8c-1.2,4.8-2.3,9.5-3.5,14.3c-3.5,9.1-6.7,18.1-9.3,27.3c0-1.3,0-2.6-0.1-3.6
					c2.3-10.8,5.9-21.5,8.7-32.1c5.5-20.7,3.2-42,7.3-62.9C430.6,356,442.9,359.4,444.2,357.8z"/>
				<path id="Path_14269" class="st11" d="M156.8,368.5c-0.2-2.5-0.3-4.9-0.5-7.2c-0.6-9.8-0.4-19.7,0.5-29.5
					c9.3,3.8,31.8,15.6,40.7,20c0.1,0.1,7.3,17.3,15.9,38.8c-2-0.2-4-0.7-5.8-1.6c-0.4-0.2-0.8-0.3-1.2-0.5c-0.3-1-0.8-1.9-1.4-2.7
					c-8.7-11-24.5-14.4-38-15.4C163.8,369.6,160.3,368.9,156.8,368.5z"/>
				<path id="Path_14270" class="st12" d="M229.8,379l0.7,0.5c-0.2,0-0.4,0.1-0.6,0.1C229.8,379.4,229.8,379.2,229.8,379z"/>
				<path id="Path_14271" class="st13" d="M450.7,395.1c0.1,0,0.2,0,0.4,0H450.7z"/>
				<path id="Path_14272" class="st13" d="M450.6,395.1L450.6,395.1L450.6,395.1L450.6,395.1z"/>
				<path id="Path_14273" class="st14" d="M447.3,406.9c0-0.2,0-0.4,0.1-0.6L447.3,406.9L447.3,406.9z"/>
				<path id="Path_14274" class="st15" d="M571.7,225.2c-0.1,16.8-23.3,50.5-27.5,66.5c-2,7.4-5.3,14.1-6.7,22
					c-1.4,8.1,0.4,17.7-2.2,24.8c-32.5-2.3-44.4-26-36.9-58.3C505.7,249.2,548.1,230.2,571.7,225.2z"/>
				<path id="Path_14275" class="st5" d="M556.7,225.3c14.9-0.1,13.6,3.2,13.9,6.8c-10,13.8-37.6,55-39.8,71c-2.3-0.9-4.6-2-6.7-3.3
					c-4.9-3.8-8.5-9-10.5-14.9c-3.8-16,11.8-28.4,25.1-37.1C540.4,247.6,555,225.7,556.7,225.3z"/>
				<g id="Group_17487" transform="translate(0.089)">
					<path id="Path_14276" class="st16" d="M146.1,370.8c0,0-41.8,0.1-53.9,6.9c-3.1-13.9,10.2-24.7,10.2-24.7s-54.1-20.7-74-30.4
						c-4.1-2-23.2-23.6-20.4-57.2c0,0,5.2-57.1,74.9-70.9c2.5-0.5,29.2-9.1,29.2-11.2c-0.1-2.2,52.8-36.9,137.7-40.6
						c21.7-0.9,81.8,4.9,113.9,8.2c11.4,1.2,19.3,2,20.6,2l31.3,0.4c28.6,1.6,52.7,25.8,53,25.8c12,1.4,13.4,0.6,48.2,9.3
						c30.5,7.6,50.7,25.8,54.9,36.9c3.6,9.6-27.4,7-27.6,16.3c0,0,37.7,6,44.3,16.8c0,0,7.9,44.2-43.4,66.1l1.5,15.9
						c-20.7,14.3-75.5,34.6-85.6,34.3c0,0-27.7-15.9-31-15.3c-17.2,3.3-54.7,34.1-62.5,35.8c-15.7,3.3-35-4-49.5-0.5
						c-11.3-2.2-22.7-3.1-34.2-2.7c-33.9-3.4-68.3-2.4-100.9,7C168.8,385.2,148,367.6,146.1,370.8z"/>
				</g>
				<g id="Group_17488" transform="translate(49.535 68.837)">
					<path id="Path_14277" class="st17" d="M188.3,311.8c6,0.7,11.6,2.4,17.5,3.4c8.6,1.4,17.4,1.9,26.2,2.6
						c20.7,1.6,41.8,3.8,62.6,3.8c17.1,0,30.7-4.8,46.4-9.4c-10.6,7.1-19.7,13.4-23.1,14.2c-15.7,3.3-35-4-49.5-0.5
						c-11.3-2.2-22.7-3.1-34.2-2.7c-33.9-3.4-68.3-2.4-100.9,7c-1.3-1.3-2.7-2.6-4.1-4c13.6-4.6,27.5-8.5,41.6-11.6
						C176.4,312.7,182.3,311.7,188.3,311.8z"/>
				</g>
				<g id="Group_17489" transform="translate(115.192 3.065)">
					<path id="Path_14278" class="st17" d="M392.4,186.3c-12.2-2.3-24.8-3.3-36.6-7.6c-11.2-4.5-22-9.8-32.5-15.8
						c-10.4-5.6-21.5-9.9-32.9-12.8l10,0.1c28.6,1.6,52.7,25.8,53,25.8c12,1.4,13.4,0.6,48.2,9.3c30.5,7.6,50.7,25.8,54.9,36.9
						c2.3,6.2-10.1,7.3-19,9.9c4.5-2.4,8.8-5.1,12.9-8.1c1.1-0.7,1.5-2.2,0.8-3.3c-0.1-0.2-0.2-0.3-0.3-0.4
						C434.4,205.6,414.6,190.4,392.4,186.3z"/>
					<path id="Path_14279" class="st17" d="M456.2,248.2c-4.4-1.8-17.6-4.5-23.4-9c9.9,1.9,35,7.4,40.3,16.1
						c2,17.5-3.9,34.9-16,47.6c7.8-13.8,16.4-29.8,10.8-44C465.8,253.7,461.5,249.8,456.2,248.2z"/>
				</g>
				<g id="Group_17491" transform="translate(0 35.511)">
					<g id="Group_17490">
						<path id="Path_14280" class="st17" d="M92.3,342.2c-3.1-13.9,10.2-24.7,10.2-24.7s-54.1-20.7-74-30.4
							c-12-5.8-23.7-27.2-20.4-57.2c0,0,2,14.5,4,24c1.9,9.5,10.7,29.4,27.8,36c13.6,5.2,56.3,15.5,67.9,27.5
							c-6.2,7-10.9,15.1-13.8,24C93.3,341.6,92.8,341.9,92.3,342.2z"/>
					</g>
				</g>
				<g id="Group_17493" transform="translate(26.358 65.184)">
					<g id="Group_17492">
						<path id="Path_14281" class="st18" d="M119.8,305.6c0,0-31.4,0.1-47.6,4.5c14.8-6.5,51.9-8.6,54.3-6.8
							c8.8,6.9,17.2,14.3,25.2,22.3c1.5,2.7,3,5.4,4.6,8C142.4,319.8,121.7,302.5,119.8,305.6z"/>
					</g>
				</g>
			</g>
		</g>
		<path id="Path_14282" class="st19" d="M244,469.2c-0.5-0.2-1-0.6-1.4-0.9c0-0.2,0.1-0.3,0.1-0.5L244,469.2z"/>
		<path id="Path_14283" class="st20" d="M472.1,458.9c0.1,0,0.3,0,0.4,0H472.1z"/>
		<path id="Path_14284" class="st20" d="M472,458.9L472,458.9h0.1H472z"/>
		<path id="Path_14285" class="st21" d="M468.5,470.7c0-0.2,0.1-0.4,0.1-0.6L468.5,470.7L468.5,470.7z"/>
	</g>
	<g id="Group_17497" transform="translate(730.271 701.957)">
		<g id="Group_17419" transform="translate(0 24.092)">
			<g>
				<g>
					<defs>
						<path id="SVGID_1_" d="M556.1,222.4c-78.7-45.3-321.7-131.3-345.5-54.3C196.8,213.9-56,222.4,22.4,276.8
							c78.4,54.3,188.2,144.8,313.9,72.5C461.9,276.8,634.7,267.8,556.1,222.4z"/>
					</defs>
					<clipPath id="SVGID_2_">
						<use xlink:href="#SVGID_1_"  style="overflow:visible;"/>
					</clipPath>
					<g id="Group_17418" class="st22">
						<g id="Axonometric_Cube" transform="matrix(0.995, 0.105, -0.105, 0.995, -7.98, -25.789)">
							<path id="Cube_face_-_left" class="st23" d="M287.4,424.5L659.1,218l0.3-4.1L287.7,420.3L287.4,424.5z"/>
							<path id="Path_13998" class="st24" d="M301.4,412.7l-13.7,7.6l-0.3,4.2l13.7-7.6L301.4,412.7z"/>
							<path id="Path_13999" class="st24" d="M659.4,213.9l-13.7,7.6l-0.3,4.2l13.7-7.6L659.4,213.9z"/>
							<path id="Path_14000" class="st24" d="M548.6,275.4l-150,83.3l-0.3,4.1l150-83.3L548.6,275.4z"/>
							<path id="Path_14001" class="st16" d="M659.4,213.9L427,103.1L55.2,309.5l232.5,110.8L659.4,213.9z"/>
							<path id="Path_14002" class="st25" d="M282.8,402l-15.4,8.6l20.3,9.7l15.4-8.6L282.8,402z"/>
							<path id="Path_14003" class="st25" d="M639.1,204.2l-15.4,8.6l20.3,9.7l15.4-8.6L639.1,204.2z"/>
							<path id="Path_14004" class="st25" d="M529.3,265.1l-151.5,84.1l20.3,9.7l151.5-84.1L529.3,265.1z"/>
							<path id="Path_14005" class="st25" d="M71.1,301.2l-15.4,8.6l20.3,9.7l15.4-8.6L71.1,301.2z"/>
							<path id="Path_14006" class="st25" d="M427.5,103.3l-15.4,8.6l20.3,9.7l15.4-8.6L427.5,103.3z"/>
							<path id="Path_14007" class="st25" d="M317.7,164.3l-151.5,84.1l20.3,9.7L338,174L317.7,164.3z"/>
							<path id="Cube_face_-_top" class="st25" d="M57.3,310.5L429,104.1l-61.7-29.4L-4.3,281.1L57.3,310.5z"/>
						</g>
						<g id="Group_17417" transform="matrix(0.995, 0.105, -0.105, 0.995, -2.394, -23.122)">
							<g>
								<g>
									<defs>
										<polygon id="SVGID_3_" points="345.6,79.8 10,260.3 86.1,304.3 86.4,299.4 94.2,295.2 80.7,287.4 80.9,282.6 168.4,235.2 
											186.2,245.5 316.9,174.9 303.4,167.1 303.5,162.2 391,114.9 394,116.6 401.9,112.4 										"/>
									</defs>
									<clipPath id="SVGID_4_">
										<use xlink:href="#SVGID_3_"  style="overflow:visible;"/>
									</clipPath>
									<g id="Group_17416" transform="translate(0 0)" class="st26">
										<g id="Group_17415" transform="translate(-13.428 -3.664)" class="st27">
											<path id="Path_14008" class="st24" d="M98.7,212c-14.2-8.2-39.6-7.3-56.8,1.9c-3.5,1.8-6.6,4.1-9.4,6.9
												c-9,0.6-17.8,2.9-25.9,7c-9.2,5-14,11.5-14.2,18.1c-1.5,0.6-3.1,1.3-4.5,2c-13.8,7.4-14.6,19.4-1.8,26.8
												c3.4,1.9,7.1,3.3,11,4.1c1.9,2.7,4.3,4.9,7,6.7c16.4,10.9,47.8,11.3,70.1,0.8c12.9,0.5,25.7-2.2,37.3-7.9
												c13.7-7.4,18.4-18.1,13.8-27.7c9-7.7,7.7-18.2-4.3-25.1c-4.3-2.4-9-4.1-13.9-5C105.3,217,102.4,213.9,98.7,212z"/>
											<path id="Path_14009" class="st24" d="M192.7,162.8c-14.2-8.2-39.6-7.4-56.8,1.9c-3.5,1.8-6.6,4.2-9.4,6.9
												c-9,0.6-17.8,2.9-25.9,7c-9.2,5-14,11.5-14.2,18.1c-1.5,0.6-3.1,1.3-4.5,2c-13.8,7.4-14.6,19.4-1.8,26.8
												c3.4,1.9,7.1,3.3,11,4.1c1.9,2.7,4.3,4.9,7,6.7c16.4,10.9,47.8,11.3,70.1,0.8c12.9,0.5,25.7-2.2,37.3-7.9
												c13.7-7.4,18.4-18.1,13.8-27.7c9-7.7,7.7-18.2-4.3-25.1c-4.3-2.4-9-4.1-13.9-5C199.4,167.8,196.4,164.7,192.7,162.8z"/>
											<path id="Path_14010" class="st24" d="M287.7,113.7c-15.6-9-43.5-8.1-62.4,2.1c-3.8,2-7.3,4.6-10.3,7.6
												c-9.9,0.6-19.6,3.2-28.4,7.7c-10.1,5.5-15.4,12.7-15.6,19.9c-1.7,0.6-3.4,1.4-5,2.2c-15.1,8.1-16,21.3-2,29.4
												c3.8,2.1,7.8,3.6,12,4.5c2.1,2.9,4.7,5.4,7.7,7.3c18,12,52.5,12.4,77,0.9c14.2,0.6,28.3-2.4,41-8.7
												c15.1-8.1,20.2-19.8,15.2-30.4c9.9-8.5,8.5-20-4.7-27.6c-4.8-2.6-9.9-4.5-15.3-5.5C295,119.2,291.8,115.8,287.7,113.7z"
												/>
											<path id="Path_14011" class="st24" d="M372.9,76.4c-14.2-8.2-39.6-7.4-56.8,1.9c-3.5,1.8-6.6,4.2-9.4,6.9
												c-9,0.6-17.8,2.9-25.9,7c-9.2,5-14,11.5-14.2,18.1c-1.5,0.6-3.1,1.3-4.5,2c-13.8,7.4-14.6,19.4-1.8,26.8
												c3.4,1.9,7.1,3.3,11,4.1c1.9,2.7,4.3,4.9,7,6.7c16.4,10.9,47.8,11.3,70.1,0.8c12.9,0.5,25.7-2.2,37.3-7.9
												c13.7-7.4,18.4-18.1,13.8-27.7c9-7.7,7.7-18.2-4.3-25.1c-4.3-2.4-9-4.1-13.9-5C379.5,81.4,376.6,78.3,372.9,76.4z"/>
											<path id="Path_14012" class="st24" d="M200.6,264.4l-0.5-3.7l-14-0.1l-8.7-5.1l-5,0.5l-22-2.6l-15.2,3.5l-60.8,32.7
												l3.6,2.1l9.3,0.2l13.4,7.8l5.4,0.1l2.2-1.2l5.8,0.1l-0.2,4.9l13.9,0.1l-1.5-9.1l56.3-30.3L200.6,264.4z"/>
											<path id="Path_14013" class="st24" d="M423.9,144.3l-0.5-3.7l-14-0.1l-8.7-5.1l-5,0.5l-22-2.6L357,136l-60.8,32.7
												l3.6,2.1l10.8,1l13.5,7.8h5.4l2.2-1.2l5.8,0.1l-0.2,4.9l13.9,0.1l-1.5-9.1l56.3-30.3L423.9,144.3z"/>
										</g>
									</g>
								</g>
							</g>
						</g>
						<path id="Path_14150" class="st25" d="M177.6,405.2l184.1-82.5c0,0,60.3-22.2,85.7-38.1s30.7-18,49.7-24.3
							c19-6.4,11.6-1.1,31.7-21.2c20.1-20.1,56.1-30.7,81.5-9.5s64.5,51.9,0,78.3s-109,40.2-212.6,63.5s-148.1,44.4-168.2,39.1
							S177.6,405.2,177.6,405.2z"/>
					</g>
				</g>
			</g>
		</g>
		<g id="Group_17432" transform="matrix(0.999, 0.035, -0.035, 0.999, 69.216, 40.447)">
			<g id="_7" transform="matrix(0.999, 0.035, -0.035, 0.999, 0.87, 22.078)">
				<g id="Group_17421" transform="translate(21.35 0)">
					<path id="Path_14015" class="st28" d="M252,233.3l-2.5,1.5v17.6l2.5-1.5L252,233.3z"/>
					<path id="Path_14016" class="st29" d="M249.9,225.9c-0.3-0.2-0.6-0.2-0.9-0.1l-2.5,1.5c0.3-0.1,0.6-0.1,0.9,0.1l21.6,12.4
						l2.5-1.5L249.9,225.9z"/>
					<path id="Path_14017" class="st30" d="M274.4,242.3l-2.5,1.5V261l2.5-1.5V242.3z"/>
					<path id="Path_14018" class="st31" d="M278.2,223.5l-6.4,20.3l2.5-1.5l6.4-20.3L278.2,223.5z"/>
					<path id="Path_14019" class="st29" d="M280.7,221.5c-0.2-0.4-0.4-0.7-0.7-1c-0.5-0.6-1-1-1.7-1.4c-0.3-0.2-0.5-0.2-0.7-0.2
						l-2.5,1.5c0.1-0.1,0.4,0,0.7,0.2c0.6,0.4,1.2,0.9,1.7,1.4c0.3,0.3,0.5,0.7,0.7,1c0.1,0.1,0.1,0.3,0.1,0.5l2.5-1.5
						C280.8,221.9,280.8,221.7,280.7,221.5z"/>
					<g id="Group_17420" transform="translate(0 0.426)">
						<path id="Path_14020" class="st32" d="M275.8,220.1c1,0.6,2.7,2.3,2.5,3l-6.4,20.3v17.2l-3.4,2v-17.2l-19-10.9v17.6l-3.4-2
							v-22.4c0-0.8,0.6-1.1,1.2-0.7l21.6,12.5l6.1-19.3C275.1,219.8,275.4,219.9,275.8,220.1z"/>
					</g>
				</g>
				<g id="Group_17422" transform="translate(0.966 3.124)">
					<g id="Axonometric_Cube-2" transform="translate(0 0)">
						<path id="Cube_face_-_left-2" class="st33" d="M198.6,272.6l-2.6-1.5v-2.5l2.6,1.5V272.6z"/>
						<path id="Cube_face_-_right" class="st34" d="M271.6,230.5l-73,42.2v-2.5l73-42.2V230.5z"/>
						<path id="Cube_face_-_top-2" class="st35" d="M198.6,270.2l-2.6-1.5l73-42.2l2.6,1.5L198.6,270.2z"/>
					</g>
					<g id="Axonometric_Cube-3" transform="translate(1.214 0.701)">
						<path id="Cube_face_-_left-3" class="st33" d="M201.6,274.4l-2.6-1.5v-2.5l2.6,1.5V274.4z"/>
						<path id="Cube_face_-_right-2" class="st34" d="M274.6,232.2l-73,42.2v-2.5l73-42.2V232.2z"/>
						<path id="Cube_face_-_top-3" class="st35" d="M201.6,271.9l-2.6-1.5l73-42.2l2.6,1.5L201.6,271.9z"/>
					</g>
					<g id="Axonometric_Cube-4" transform="translate(2.428 1.402)">
						<path id="Cube_face_-_left-4" class="st33" d="M204.6,276.1l-2.6-1.5v-2.5l2.6,1.5V276.1z"/>
						<path id="Cube_face_-_right-3" class="st34" d="M277.6,233.9l-73,42.2v-2.5l73-42.2V233.9z"/>
						<path id="Cube_face_-_top-4" class="st35" d="M204.6,273.6l-2.6-1.5l73-42.2l2.6,1.5L204.6,273.6z"/>
					</g>
					<g id="Axonometric_Cube-5" transform="translate(3.642 2.103)">
						<path id="Cube_face_-_left-5" class="st33" d="M207.5,277.8l-2.6-1.5v-2.5l2.6,1.5V277.8z"/>
						<path id="Cube_face_-_right-4" class="st34" d="M280.5,235.6l-73,42.2v-2.5l73-42.2V235.6z"/>
						<path id="Cube_face_-_top-5" class="st35" d="M207.5,275.3l-2.6-1.5l73-42.2l2.6,1.5L207.5,275.3z"/>
					</g>
					<g id="Axonometric_Cube-6" transform="translate(4.856 2.804)">
						<path id="Cube_face_-_left-6" class="st33" d="M210.5,279.5L208,278v-2.5l2.6,1.5v2.5H210.5z"/>
						<path id="Cube_face_-_right-5" class="st34" d="M283.5,237.4l-73,42.2V277l73-42.2V237.4z"/>
						<path id="Cube_face_-_top-6" class="st35" d="M210.5,277l-2.6-1.5l73-42.2l2.6,1.5L210.5,277z"/>
					</g>
				</g>
				<g id="Group_17423" transform="translate(7.324 0.857)">
					<path id="Path_14021" class="st33" d="M212.4,275.7l72.9-42.3l2.4,2.2l-72.9,42.3L212.4,275.7z"/>
					<path id="Path_14022" class="st34" d="M214.7,277.9l72.9-42.3l-0.7,2.3L214,280.2L214.7,277.9z"/>
					<path id="Path_14023" class="st33" d="M211.6,278.1l0.7-2.3l2.4,2.2l-0.7,2.3L211.6,278.1z"/>
					<path id="Path_14024" class="st33" d="M213.4,272.6l72.9-42.3l2.4,2.2l-72.9,42.3L213.4,272.6z"/>
					<path id="Path_14025" class="st34" d="M215.8,274.8l72.9-42.3l-0.7,2.3l-73,42.3L215.8,274.8z"/>
					<path id="Path_14026" class="st33" d="M212.7,274.9l0.8-2.3l2.4,2.2l-0.8,2.3L212.7,274.9z"/>
					<path id="Path_14027" class="st33" d="M214.4,269.5l72.9-42.3l2.4,2.2l-72.9,42.3L214.4,269.5z"/>
					<path id="Path_14028" class="st34" d="M216.7,271.7l72.9-42.3l-0.7,2.3L216,274L216.7,271.7z"/>
					<path id="Path_14029" class="st33" d="M213.7,271.8l0.7-2.3l2.4,2.2L216,274L213.7,271.8z"/>
					<path id="Path_14030" class="st33" d="M215.4,266.3l72.9-42.3l2.4,2.2l-72.9,42.3L215.4,266.3z"/>
					<path id="Path_14031" class="st34" d="M217.7,268.5l72.9-42.3l-0.7,2.3L217,270.8L217.7,268.5z"/>
					<path id="Path_14032" class="st33" d="M214.6,268.7l0.7-2.3l2.4,2.2l-0.7,2.3L214.6,268.7z"/>
					<path id="Path_14033" class="st36" d="M216.4,263.2l72.9-42.3l2.4,2.2l-72.9,42.3L216.4,263.2z"/>
					<path id="Path_14034" class="st34" d="M218.7,265.4l72.9-42.3l-0.7,2.3L218,267.7L218.7,265.4z"/>
					<path id="Path_14035" class="st33" d="M216.4,263.2l2.4,2.2l-0.7,2.3l-2.4-2.2L216.4,263.2z"/>
				</g>
				<g id="Group_17425" transform="translate(0 12.326)">
					<path id="Path_14036" class="st28" d="M199.6,263.6l-2.5,1.5v17.6l2.5-1.5V263.6z"/>
					<path id="Path_14037" class="st29" d="M197.4,256.2c-0.3-0.2-0.6-0.2-0.9-0.1l-2.5,1.5c0.3-0.1,0.6-0.1,0.9,0.1l21.6,12.4
						l2.5-1.5L197.4,256.2z"/>
					<path id="Path_14038" class="st30" d="M221.9,272.6l-2.5,1.5v17.2l2.5-1.5V272.6z"/>
					<path id="Path_14039" class="st31" d="M225.8,253.8l-6.4,20.3l2.5-1.5l6.4-20.3L225.8,253.8z"/>
					<path id="Path_14040" class="st29" d="M228.2,251.8c-0.2-0.4-0.4-0.7-0.7-1c-0.5-0.6-1-1-1.7-1.4c-0.3-0.2-0.5-0.2-0.7-0.2
						l-2.5,1.5c0.1-0.1,0.4,0,0.7,0.2c0.6,0.4,1.2,0.9,1.7,1.4c0.3,0.3,0.5,0.7,0.7,1c0.1,0.1,0.1,0.3,0.1,0.5l2.5-1.5
						C228.4,252.1,228.3,252,228.2,251.8z"/>
					<g id="Group_17424" transform="translate(0 0.426)">
						<path id="Path_14041" class="st32" d="M223.3,250.4c1,0.6,2.7,2.3,2.5,3l-6.4,20.3v17.2l-2.5,1.5l-0.9-0.5v-16.2l-19-10.9
							v17.6l-3.4-2V258c0-0.8,0.6-1.1,1.2-0.7l21.6,12.5l6.1-19.3C222.6,250.1,222.9,250.2,223.3,250.4z"/>
					</g>
				</g>
			</g>
			<g id="_7-2" transform="matrix(0.999, 0.052, -0.052, 0.999, 46.592, 0)">
				<g id="Group_17427" transform="translate(21.35 0)">
					<path id="Path_14042" class="st28" d="M364.9,169.8l-2.5,1.5v17.6l2.5-1.5V169.8z"/>
					<path id="Path_14043" class="st29" d="M362.7,162.4c-0.3-0.2-0.6-0.2-0.9-0.1l-2.5,1.5c0.3-0.1,0.6-0.1,0.9,0.1l21.6,12.4
						l2.5-1.5L362.7,162.4z"/>
					<path id="Path_14044" class="st30" d="M387.3,178.8l-2.5,1.5v17.2l2.5-1.5V178.8z"/>
					<path id="Path_14045" class="st31" d="M391.1,160l-6.4,20.3l2.5-1.5l6.4-20.3L391.1,160z"/>
					<path id="Path_14046" class="st29" d="M393.6,158.1c-0.2-0.4-0.4-0.7-0.7-1c-0.5-0.6-1-1-1.7-1.4c-0.3-0.2-0.5-0.3-0.7-0.2
						L388,157c0.1-0.1,0.4,0,0.7,0.2c0.6,0.4,1.2,0.9,1.7,1.4c0.3,0.3,0.5,0.7,0.7,1c0.1,0.1,0.1,0.3,0.1,0.5l2.5-1.5
						C393.7,158.4,393.6,158.2,393.6,158.1z"/>
					<g id="Group_17426" transform="translate(0 0.425)">
						<path id="Path_14047" class="st32" d="M388.6,156.6c1,0.6,2.7,2.3,2.5,3l-6.4,20.3V197l-3.4,2v-17.2l-19-10.9v17.6l-3.4-2
							v-22.4c0-0.8,0.6-1.1,1.2-0.7l21.6,12.5l6.1-19.3C387.9,156.3,388.2,156.4,388.6,156.6z"/>
					</g>
				</g>
				<g id="Group_17428" transform="translate(0.966 3.124)">
					<g id="Axonometric_Cube-7" transform="translate(0 0)">
						<path id="Cube_face_-_left-7" class="st33" d="M311.5,209.2l-2.6-1.5v-2.5l2.6,1.5V209.2z"/>
						<path id="Cube_face_-_right-6" class="st34" d="M384.5,167l-73,42.2v-2.5l73-42.2V167z"/>
						<path id="Cube_face_-_top-7" class="st35" d="M311.5,206.7l-2.6-1.5l73-42.2l2.6,1.5L311.5,206.7z"/>
					</g>
					<g id="Axonometric_Cube-8" transform="translate(1.214 0.701)">
						<path id="Cube_face_-_left-8" class="st33" d="M314.4,210.9l-2.6-1.5v-2.5l2.6,1.5V210.9z"/>
						<path id="Cube_face_-_right-7" class="st34" d="M387.4,168.7l-73,42.2v-2.5l73-42.2V168.7z"/>
						<path id="Cube_face_-_top-8" class="st35" d="M314.4,208.4l-2.6-1.5l73-42.2l2.6,1.5L314.4,208.4z"/>
					</g>
					<g id="Axonometric_Cube-9" transform="translate(2.428 1.402)">
						<path id="Cube_face_-_left-9" class="st33" d="M317.4,212.6l-2.6-1.5v-2.5l2.6,1.5V212.6z"/>
						<path id="Cube_face_-_right-8" class="st34" d="M390.4,170.5l-73,42.2v-2.5l73-42.2V170.5z"/>
						<path id="Cube_face_-_top-9" class="st35" d="M317.4,210.1l-2.6-1.5l73-42.2l2.6,1.5L317.4,210.1z"/>
					</g>
					<g id="Axonometric_Cube-10" transform="translate(3.642 2.103)">
						<path id="Cube_face_-_left-10" class="st33" d="M320.4,214.3l-2.6-1.5v-2.5l2.6,1.5V214.3z"/>
						<path id="Cube_face_-_right-9" class="st34" d="M393.4,172.2l-73,42.2v-2.5l73-42.2V172.2z"/>
						<path id="Cube_face_-_top-10" class="st35" d="M320.4,211.9l-2.6-1.5l73-42.2l2.6,1.5L320.4,211.9z"/>
					</g>
					<g id="Axonometric_Cube-11" transform="translate(4.856 2.803)">
						<path id="Cube_face_-_left-11" class="st33" d="M323.4,216.1l-2.6-1.5v-2.5l2.6,1.5V216.1z"/>
						<path id="Cube_face_-_right-10" class="st34" d="M396.4,173.9l-73,42.2v-2.5l73-42.2V173.9z"/>
						<path id="Cube_face_-_top-11" class="st35" d="M323.4,213.6l-2.6-1.5l73-42.2l2.6,1.5L323.4,213.6z"/>
					</g>
				</g>
				<g id="Group_17429" transform="translate(7.324 0.857)">
					<path id="Path_14048" class="st33" d="M325.3,212.3l72.9-42.3l2.4,2.2l-72.9,42.3L325.3,212.3z"/>
					<path id="Path_14049" class="st34" d="M327.6,214.4l72.9-42.3l-0.7,2.3l-72.9,42.3L327.6,214.4z"/>
					<path id="Path_14050" class="st33" d="M324.5,214.6l0.7-2.3l2.4,2.2l-0.7,2.3L324.5,214.6z"/>
					<path id="Path_14051" class="st33" d="M326.3,209.1l72.9-42.3l2.4,2.2l-72.9,42.3L326.3,209.1z"/>
					<path id="Path_14052" class="st34" d="M328.6,211.3l72.9-42.3l-0.7,2.3l-72.9,42.3L328.6,211.3z"/>
					<path id="Path_14053" class="st33" d="M325.5,211.5l0.8-2.3l2.4,2.2l-0.8,2.3L325.5,211.5z"/>
					<path id="Path_14054" class="st33" d="M327.3,206l72.9-42.3l2.4,2.2l-72.9,42.3L327.3,206z"/>
					<path id="Path_14055" class="st34" d="M329.6,208.2l72.9-42.3l-0.7,2.3l-72.9,42.3L329.6,208.2z"/>
					<path id="Path_14056" class="st33" d="M326.5,208.3l0.7-2.3l2.4,2.2l-0.7,2.3L326.5,208.3z"/>
					<path id="Path_14057" class="st33" d="M328.2,202.9l72.9-42.3l2.4,2.2l-72.9,42.3L328.2,202.9z"/>
					<path id="Path_14058" class="st34" d="M330.6,205.1l72.9-42.3l-0.7,2.3l-72.9,42.3L330.6,205.1z"/>
					<path id="Path_14059" class="st33" d="M327.5,205.2l0.7-2.3l2.4,2.2l-0.7,2.3L327.5,205.2z"/>
					<path id="Path_14060" class="st36" d="M329.3,199.8l72.9-42.3l2.4,2.2L331.7,202L329.3,199.8z"/>
					<path id="Path_14061" class="st34" d="M331.6,201.9l72.9-42.3l-0.7,2.3l-72.9,42.3L331.6,201.9z"/>
					<path id="Path_14062" class="st33" d="M329.3,199.8l2.4,2.2l-0.7,2.3l-2.4-2.2L329.3,199.8z"/>
				</g>
				<g id="Group_17431" transform="translate(0 12.326)">
					<path id="Path_14063" class="st28" d="M312.4,200.1l-2.5,1.5v17.6l2.5-1.5V200.1z"/>
					<path id="Path_14064" class="st29" d="M310.3,192.7c-0.3-0.2-0.6-0.2-0.9-0.1l-2.5,1.5c0.3-0.1,0.6-0.1,0.9,0.1l21.6,12.4
						l2.5-1.5L310.3,192.7z"/>
					<path id="Path_14065" class="st30" d="M334.8,209.1l-2.5,1.5v17.2l2.5-1.5V209.1z"/>
					<path id="Path_14066" class="st31" d="M338.7,190.3l-6.4,20.3l2.5-1.5l6.4-20.3L338.7,190.3z"/>
					<path id="Path_14067" class="st29" d="M341.1,188.3c-0.2-0.4-0.4-0.7-0.7-1c-0.5-0.6-1-1-1.7-1.4c-0.3-0.2-0.5-0.2-0.7-0.2
						l-2.5,1.5c0.1-0.1,0.4,0,0.7,0.2c0.6,0.4,1.2,0.9,1.7,1.4c0.3,0.3,0.5,0.7,0.7,1c0.1,0.1,0.1,0.3,0.1,0.5l2.5-1.5
						C341.2,188.7,341.2,188.5,341.1,188.3z"/>
					<g id="Group_17430" transform="translate(0 0.425)">
						<path id="Path_14068" class="st32" d="M336.2,186.9c1,0.6,2.7,2.3,2.5,3l-6.4,20.3v17.2l-2.5,1.5l-0.9-0.5v-16.2l-19-10.9
							v17.6l-3.4-2v-22.4c0-0.8,0.6-1.1,1.2-0.7l21.6,12.5l6.1-19.3C335.5,186.6,335.8,186.7,336.2,186.9z"/>
					</g>
				</g>
			</g>
		</g>
		<g id="Group_17446" transform="matrix(0.998, 0.07, -0.07, 0.998, 16.608, 48.258)">
			<g id="_6" transform="translate(0 0)">
				<g id="Group_17438" transform="translate(17.693 0)">
					<path id="Path_14079" class="st28" d="M113.3,222.1v14.6l2.1-1.2v-14.6L113.3,222.1z"/>
					<path id="Path_14080" class="st37" d="M110.1,193.8L108,195l4.9,21.8l2.1-1.2L110.1,193.8z"/>
					<path id="Path_14081" class="st29" d="M110.1,193.7c0-0.1-0.1-0.2-0.2-0.2c-0.1-0.1-0.3-0.3-0.5-0.3c-0.6-0.4-1.2-0.5-1.9-0.3
						l-2.1,1.2l2.5,1l2.1-1.2C110.1,193.7,110.1,193.7,110.1,193.7z"/>
					
						<linearGradient id="Path_14082_1_" gradientUnits="userSpaceOnUse" x1="-35.725" y1="36.3081" x2="-35.5245" y2="36.5363" gradientTransform="matrix(6.0765 -3.878399e-05 2.703419e-05 9.2163 344.5217 -105.6245)">
						<stop  offset="0" style="stop-color:#E9E5D9"/>
						<stop  offset="1" style="stop-color:#D2CBBF"/>
					</linearGradient>
					<path id="Path_14082" class="st38" d="M133.8,226.9c-0.1-0.2-0.2-0.4-0.4-0.6c-0.1-0.1-0.3-0.3-0.4-0.4l-17.9-10.3l-2.1,1.2
						c10.3,8.5,15.8,12.2,16.4,13.7c1.3,3.4,1.5,11.8,2.5,16.9l2.1-1.2v-18.5C133.9,227.4,133.9,227.1,133.8,226.9z"/>
					<path id="Path_14083" class="st32" d="M130.8,227.1L113,216.8l-5-21.8c-0.1-0.3-0.3-0.6-0.6-0.7c-0.9-0.5-2.2-0.6-2.1,0.1
						l5.2,22.8V235l2.8,1.6V222l15.7,9.1v14.6l2.8,1.6v-18.5C131.8,228.1,131.4,227.5,130.8,227.1z"/>
				</g>
				<g id="Group_17439" transform="translate(0.694 0.999)">
					<path id="Path_14084" class="st39" d="M68.8,244.2l59.4-34.4l0.6,2.6l-59.4,34.4L68.8,244.2z"/>
					<path id="Path_14085" class="st40" d="M66.8,243.7l59.4-34.4l2,0.4l-59.4,34.4L66.8,243.7z"/>
					<path id="Path_14086" class="st33" d="M68.8,244.2l0.6,2.6l-2-0.4l-0.6-2.6L68.8,244.2z"/>
					<path id="Path_14087" class="st39" d="M67.9,240.6l59.4-34.4l0.6,2.6l-59.4,34.4L67.9,240.6z"/>
					<path id="Path_14088" class="st40" d="M66,240.2l59.4-34.4l1.9,0.4l-59.4,34.4L66,240.2z"/>
					<path id="Path_14089" class="st33" d="M67.9,240.6l0.6,2.6l-2-0.4l-0.6-2.6L67.9,240.6z"/>
					<path id="Path_14090" class="st33" d="M67.1,237.1l0.6,2.6l-2-0.4l-0.6-2.6L67.1,237.1z"/>
					<path id="Path_14091" class="st39" d="M67.1,237.1l59.4-34.4l0.6,2.6l-59.4,34.4L67.1,237.1z"/>
					<path id="Path_14092" class="st40" d="M65.2,236.6l59.4-34.4l2,0.4L67.2,237L65.2,236.6z"/>
					<path id="Path_14093" class="st39" d="M66.3,233.5l59.4-34.4l0.6,2.6l-59.4,34.4L66.3,233.5z"/>
					<path id="Path_14094" class="st40" d="M64.4,233.1l59.4-34.4l2,0.4l-59.4,34.4L64.4,233.1z"/>
					<path id="Path_14095" class="st33" d="M66.3,233.5l0.6,2.6l-1.9-0.4l-0.6-2.6L66.3,233.5z"/>
					<path id="Path_14096" class="st39" d="M65.5,230l59.4-34.4l0.6,2.6l-59.4,34.4L65.5,230z"/>
					<path id="Path_14097" class="st36" d="M63.6,229.6l59.4-34.4l1.9,0.4L65.5,230L63.6,229.6z"/>
					<path id="Path_14098" class="st33" d="M65.5,230l0.6,2.6l-2-0.4l-0.6-2.6L65.5,230z"/>
				</g>
				<g id="Group_17440" transform="translate(2.619 7.472)">
					<g id="Axonometric_Cube-12" transform="translate(0 0)">
						<path id="Cube_face_-_left-12" class="st33" d="M70.4,249.2l-2.1-1.2v-2l2.1,1.2V249.2z"/>
						<path id="Cube_face_-_right-11" class="st34" d="M130.9,214.3l-60.5,34.9v-2l60.5-34.9V214.3z"/>
						<path id="Cube_face_-_top-12" class="st36" d="M70.4,247.2l-2.1-1.2l60.5-34.9l2.1,1.2L70.4,247.2z"/>
					</g>
					<g id="Axonometric_Cube-13" transform="translate(1.006 0.581)">
						<path id="Cube_face_-_left-13" class="st33" d="M72.9,250.7l-2.1-1.2v-2l2.1,1.2V250.7z"/>
						<path id="Cube_face_-_right-12" class="st34" d="M133.4,215.7l-60.5,34.9v-2l60.5-34.9V215.7z"/>
						<path id="Cube_face_-_top-13" class="st36" d="M72.9,248.6l-2.1-1.2l60.5-34.9l2.1,1.2L72.9,248.6z"/>
					</g>
					<g id="Axonometric_Cube-14" transform="translate(2.012 1.162)">
						<path id="Cube_face_-_left-14" class="st33" d="M75.4,252.1l-2.1-1.2v-2l2.1,1.2V252.1z"/>
						<path id="Cube_face_-_right-13" class="st34" d="M135.9,217.2l-60.5,34.9v-2l60.5-34.9V217.2z"/>
						<path id="Cube_face_-_top-14" class="st36" d="M75.4,250l-2.1-1.2l60.5-34.9l2.1,1.2L75.4,250z"/>
					</g>
					<g id="Axonometric_Cube-15" transform="translate(3.018 1.742)">
						<path id="Cube_face_-_left-15" class="st33" d="M77.8,253.5l-2.1-1.2v-2l2.1,1.2V253.5z"/>
						<path id="Cube_face_-_right-14" class="st34" d="M138.3,218.6l-60.5,34.9v-2l60.5-34.9V218.6z"/>
						<path id="Cube_face_-_top-15" class="st36" d="M77.8,251.5l-2.1-1.2l60.5-34.9l2.1,1.2L77.8,251.5z"/>
					</g>
					<g id="Axonometric_Cube-16" transform="translate(4.024 2.323)">
						<path id="Cube_face_-_left-16" class="st33" d="M80.3,254.9l-2.1-1.2v-2l2.1,1.2V254.9z"/>
						<path id="Cube_face_-_right-15" class="st34" d="M140.8,220l-60.5,35v-2l60.5-34.9V220z"/>
						<path id="Cube_face_-_top-16" class="st36" d="M80.3,252.9l-2.1-1.2l60.5-34.9l2.1,1.2L80.3,252.9z"/>
					</g>
				</g>
				<g id="Group_17441" transform="translate(0 10.215)">
					<path id="Path_14099" class="st28" d="M69.8,247.2v13.4l1,0.6l1.1-0.6V246L69.8,247.2z"/>
					<path id="Path_14100" class="st37" d="M66.7,218.9l-2.1,1.2l4.9,21.8l2.1-1.2L66.7,218.9z"/>
					<path id="Path_14101" class="st29" d="M66.6,218.8c0-0.1-0.1-0.2-0.2-0.2c-0.1-0.1-0.3-0.3-0.5-0.3c-0.6-0.4-1.2-0.5-1.9-0.3
						l-2.1,1.2l2.5,1l2.1-1.2C66.7,218.8,66.6,218.8,66.6,218.8z"/>
					
						<linearGradient id="Path_14102_1_" gradientUnits="userSpaceOnUse" x1="-6.8322" y1="37.7632" x2="-6.6317" y2="37.9912" gradientTransform="matrix(6.0765 3.124432e-05 2.703420e-05 9.2173 125.4694 -93.9459)">
						<stop  offset="0" style="stop-color:#E9E5D9"/>
						<stop  offset="1" style="stop-color:#D2CBBF"/>
					</linearGradient>
					<path id="Path_14102" class="st41" d="M90.3,252c-0.1-0.2-0.2-0.4-0.4-0.6c-0.1-0.1-0.3-0.3-0.4-0.4l-17.9-10.3l-2.1,1.2
						c10.3,8.5,15.8,12.2,16.4,13.7c1.3,3.4,1.5,11.8,2.5,16.9l2.1-1.2v-18.5C90.5,252.5,90.4,252.2,90.3,252z"/>
					<path id="Path_14103" class="st32" d="M87.4,252.2l-17.9-10.3l-4.9-21.8c-0.1-0.3-0.3-0.6-0.6-0.7c-0.9-0.5-2.2-0.6-2.1,0.1
						l5.2,22.8V259l2.8,1.6v-13.4l15.7,9.1v14.6l2.8,1.6V254C88.3,253.2,88,252.6,87.4,252.2z"/>
				</g>
			</g>
		</g>
		<g id="_2" transform="translate(5.945 0)">
			<g id="Group_17447" transform="translate(13.54 24.212)">
				<path id="Path_14129" class="st42" d="M106.7,199.7c4.9,5.3,4.2,11.8,3,18.3c-0.6,3.3-1,6.6-1.3,10c0.3,6.8,16.5,7,16.2-0.6
					c-0.1-1.8-1.1-6.8-1.3-8.5c-0.5-4.7-0.6-9.5-0.1-14.2c0.6-6.7,3.1-13.1,2.7-20c-0.4-6.7-3.2-13.3-2.3-19.9
					c0.6-4,4.5-13.2,3.3-15c-0.7-0.8-2-0.8-2.7,0l0,0c-1.2,1.1-1.8,6.3-4.3,16.6c-0.3,1.3-0.4,2.7-0.1,4.1c1,5.7,1.1,11.5,0.2,17.1
					c-0.5,3.5-1.7,8.3-6.2,6.8c-3.5-1.2-19.4-11.4-24.8-14.7c-0.7-0.4-1.2-1-1.5-1.7c-3.2-6.8-9.2-21.7-13.6-30.5
					c-0.7-1.4-2.2-3-3.6-2.3c0.7,6.4,11.3,31.3,13.8,37.1c0.4,0.8,0.9,1.5,1.6,2.1C91.6,189.1,103.1,195.8,106.7,199.7z"/>
				<path id="Path_14130" class="st42" d="M156.4,138.5c0.1-0.4-0.1-0.8-0.4-0.9c-0.4-0.1-0.8,0-0.9,0.4l0,0
					c-6.9,17.2-15.2,38.8-32.5,52.3c0,0,1.2,3.5,1.8,3C141.5,179.3,149.5,157,156.4,138.5z"/>
				<path id="Path_14131" class="st42" d="M134,179.7c-1.2-4.2-2.3-8.1-3.5-11.9l-1.3-0.1c1.2,4.2,2.4,9,3.6,13.6
					C133.2,180.8,133.6,180.3,134,179.7z"/>
				<path id="Path_14132" class="st42" d="M147.6,171.5c-3,4.3-11.2,7-11.2,7c-0.3,0.2-0.2,1.4,0.1,1.3c4.5-1.3,8.6-4,11.6-7.7
					C147.9,171.6,147.7,171.9,147.6,171.5z"/>
				<path id="Path_14133" class="st42" d="M115.1,176.6c1.6-3.5,2.4-7.4,2.3-11.2c-0.3,0-0.6,0-0.9,0c0,3.6-0.9,7.1-2.6,10.3
					C114.3,176,114.7,176.3,115.1,176.6z"/>
				<path id="Path_14134" class="st42" d="M97,148.6c-2.9,8.8-6.9,17.1-11.9,24.9c-0.2,1.2,0.3,2.4,1.4,3
					c5.1-8.6,9.1-17.9,11.8-27.5c0.1-0.4-0.2-0.7-0.5-0.7C97.4,148.2,97.1,148.3,97,148.6z"/>
				<path id="Path_14135" class="st42" d="M78.2,167.1c-7.9-3.3-15.3-7.8-21.9-13.3c-0.3-0.2-0.7-0.2-0.9,0.1
					c-0.2,0.2-0.2,0.6,0,0.8c7.2,6.5,15.3,11.9,24.1,16C79,169.6,78.6,168.3,78.2,167.1z"/>
				<path id="Path_14136" class="st42" d="M122.5,182.3c-5.9-5.4-11.1-11.5-15.5-18.3c-0.5-0.1-0.7,0-1.3-0.1
					c4.6,8.2,10.1,15.8,16.5,22.7C122.4,185.5,122.3,183.5,122.5,182.3z"/>
				<path id="Path_14137" class="st42" d="M85.6,159.2l-0.9,0.3c1.1,3.2,2.4,6.3,4,9.3c0.3-0.6,0.7-1.1,1-1.7
					C88.1,164.6,86.7,161.9,85.6,159.2z"/>
			</g>
			<g id="Group_17455" transform="translate(0 0)">
				<path id="Path_14138" class="st43" d="M29.3,142.1c-0.1,1.9-0.1,3.9,0,5.8c2.2,27.9,32.1,47.8,66.9,44.5s61.2-28.5,59-56.3
					c-0.2-1.9-0.4-3.9-0.9-5.8L29.3,142.1z"/>
				<g id="Group_17454">
					<g id="Group_17449" transform="translate(18.42)">
						<g id="Group_17448" transform="translate(0)">
							
								<linearGradient id="Ellipse_70_1_" gradientUnits="userSpaceOnUse" x1="-81.9794" y1="1.6444" x2="-82.5601" y2="2.9614" gradientTransform="matrix(4.2874 -24.2702 30.421 5.3739 376.7681 -1898.5269)">
								<stop  offset="0" style="stop-color:#B6CD34"/>
								<stop  offset="0.414" style="stop-color:#92AE3D"/>
								<stop  offset="0.775" style="stop-color:#7B9A3D"/>
								<stop  offset="1" style="stop-color:#73933C"/>
							</linearGradient>
							<path id="Ellipse_70" class="st44" d="M74.7,120c4.1-23.2,31-37.8,60-32.7s49.3,28.1,45.2,51.2s-31,37.8-60,32.7
								S70.6,143.2,74.7,120z"/>
							
								<linearGradient id="Path_14139_1_" gradientUnits="userSpaceOnUse" x1="-67.0631" y1="23.8599" x2="-68.3595" y2="29.809" gradientTransform="matrix(13.1302 0 0 7.6115 1028.0039 -89.3403)">
								<stop  offset="0" style="stop-color:#B6CD34"/>
								<stop  offset="0.273" style="stop-color:#8EA73C"/>
								<stop  offset="0.589" style="stop-color:#698238"/>
								<stop  offset="0.842" style="stop-color:#526A30"/>
								<stop  offset="1" style="stop-color:#4A622D"/>
							</linearGradient>
							<path id="Path_14139" class="st45" d="M147,91.9c-12.4-4.8-23.9-4.2-25.6,1.3c-1.8,5.5,6.9,13.8,19.3,18.6s23.9,4.2,25.6-1.3
								C168,105,159.4,96.6,147,91.9z"/>
							
								<linearGradient id="Path_14140_1_" gradientUnits="userSpaceOnUse" x1="-61.2311" y1="42.855" x2="-61.9571" y2="46.1769" gradientTransform="matrix(7.4471 0 0 4.3167 603.1454 -91.9324)">
								<stop  offset="0" style="stop-color:#B6CD34"/>
								<stop  offset="0.209" style="stop-color:#9CB53B"/>
								<stop  offset="0.745" style="stop-color:#607935"/>
								<stop  offset="1" style="stop-color:#4A622D"/>
							</linearGradient>
							<path id="Path_14140" class="st46" d="M146.9,92.9c-7-2.7-13.6-2.4-14.5,0.7c-1,3.1,3.9,7.8,10.9,10.5s13.6,2.4,14.5-0.7
								C158.8,100.3,153.9,95.6,146.9,92.9z"/>
						</g>
					</g>
					<g id="Group_17451" transform="translate(0 1.55)">
						<g id="Group_17450" transform="translate(0 0)">
							
								<linearGradient id="Ellipse_71_1_" gradientUnits="userSpaceOnUse" x1="-37.6365" y1="7.9934" x2="-37.6365" y2="11.4536" gradientTransform="matrix(34.3848 -5.2278 4.1751 27.4604 1350.8837 -268.4822)">
								<stop  offset="0" style="stop-color:#B6CD34"/>
								<stop  offset="0.414" style="stop-color:#92AE3D"/>
								<stop  offset="0.775" style="stop-color:#7B9A3D"/>
								<stop  offset="1" style="stop-color:#73933C"/>
							</linearGradient>
							<path id="Ellipse_71" class="st47" d="M81.5,90.9c32.8-5,62.7,12.2,66.6,38.4s-19.4,51.5-52.2,56.5s-62.7-12.2-66.6-38.4
								S48.7,95.9,81.5,90.9z"/>
							<path id="Path_14141" class="st43" d="M91.6,168.1c-28.4,3.3-53.4-5.4-62.3-20.3c4.1,25.1,32.1,42.1,64,38.4
								s56.1-26.9,55.2-52.4C142.8,150.4,120,164.8,91.6,168.1z"/>
							
								<linearGradient id="Ellipse_72_1_" gradientUnits="userSpaceOnUse" x1="-37.174" y1="20.1268" x2="-37.174" y2="26.5425" gradientTransform="matrix(22.6562 -2.8276 1.4812 11.8679 903.2233 -192.6076)">
								<stop  offset="0" style="stop-color:#B6CD34"/>
								<stop  offset="0.273" style="stop-color:#8EA73C"/>
								<stop  offset="0.589" style="stop-color:#698238"/>
								<stop  offset="0.842" style="stop-color:#526A30"/>
								<stop  offset="1" style="stop-color:#4A622D"/>
							</linearGradient>
							<path id="Ellipse_72" class="st48" d="M83.4,91.9c21.6-2.7,40.3,4.3,41.7,15.6c1.4,11.3-15,22.7-36.6,25.4
								s-40.3-4.3-41.7-15.6C45.4,106,61.8,94.6,83.4,91.9z"/>
							
								<linearGradient id="Path_14142_1_" gradientUnits="userSpaceOnUse" x1="-34.1176" y1="40.5536" x2="-34.1176" y2="43.6924" gradientTransform="matrix(11.1248 0 0 5.9782 464.0513 -90.8089)">
								<stop  offset="0" style="stop-color:#B6CD34"/>
								<stop  offset="0.209" style="stop-color:#9CB53B"/>
								<stop  offset="0.745" style="stop-color:#607935"/>
								<stop  offset="1" style="stop-color:#4A622D"/>
							</linearGradient>
							<path id="Path_14142" class="st49" d="M83.5,93.1c-10.6,1.2-18.8,6.8-18.2,12.3s9.6,9.1,20.2,7.8s18.8-6.8,18.2-12.3
								C103.2,95.4,94.1,91.9,83.5,93.1z"/>
						</g>
					</g>
					<g id="Group_17453" transform="translate(21.707 10.564)">
						<g id="Group_17452" transform="translate(0 0)">
							
								<linearGradient id="Ellipse_73_1_" gradientUnits="userSpaceOnUse" x1="-79.5353" y1="10.8997" x2="-79.5353" y2="14.3565" gradientTransform="matrix(29.6315 -4.5051 3.5976 23.6621 2453.7927 -440.8067)">
								<stop  offset="0" style="stop-color:#B6CD34"/>
								<stop  offset="0.414" style="stop-color:#92AE3D"/>
								<stop  offset="0.775" style="stop-color:#7B9A3D"/>
								<stop  offset="1" style="stop-color:#73933C"/>
							</linearGradient>
							<path id="Ellipse_73" class="st50" d="M126.6,111.8c28.3-4.3,54,10.5,57.4,33.1s-16.7,44.4-45,48.7s-54-10.5-57.4-33.1
								S98.3,116.1,126.6,111.8z"/>
							<path id="Path_14143" class="st43" d="M135.3,178.1c-24.1,2.8-45.4-4.5-53.5-17c3.7,21.4,27.7,36,55.1,32.8s48-23,47.5-44.8
								C178.8,163.2,159.4,175.3,135.3,178.1z"/>
							
								<linearGradient id="Ellipse_74_1_" gradientUnits="userSpaceOnUse" x1="-78.2004" y1="24.7393" x2="-78.2004" y2="31.1516" gradientTransform="matrix(19.4146 -2.4616 1.401 11.0495 1620.4863 -286.6907)">
								<stop  offset="0" style="stop-color:#B6CD34"/>
								<stop  offset="0.273" style="stop-color:#8EA73C"/>
								<stop  offset="0.589" style="stop-color:#698238"/>
								<stop  offset="0.842" style="stop-color:#526A30"/>
								<stop  offset="1" style="stop-color:#4A622D"/>
							</linearGradient>
							<path id="Ellipse_74" class="st51" d="M128.5,113c18.5-2.3,34.6,4.3,36,14.8s-12.6,21-31.1,23.4c-18.5,2.3-34.6-4.3-36-14.8
								C96,125.8,109.9,115.3,128.5,113z"/>
							
								<linearGradient id="Path_14144_1_" gradientUnits="userSpaceOnUse" x1="-72.4255" y1="46.1361" x2="-72.4255" y2="49.2818" gradientTransform="matrix(10.0859 0 0 5.8678 860.076 -91.3168)">
								<stop  offset="0" style="stop-color:#B6CD34"/>
								<stop  offset="0.209" style="stop-color:#9CB53B"/>
								<stop  offset="0.745" style="stop-color:#607935"/>
								<stop  offset="1" style="stop-color:#4A622D"/>
							</linearGradient>
							<path id="Path_14144" class="st52" d="M128.6,114c-9.6,1.1-17,6.5-16.4,12c0.5,5.5,8.8,9,18.4,7.9s17-6.5,16.4-12
								C146.5,116.4,138.2,112.9,128.6,114z"/>
						</g>
					</g>
				</g>
			</g>
		</g>
		<g id="_2-2" transform="translate(121.771 6.793)">
			<g id="Group_17447-2" transform="translate(13.54 24.212)">
				<path id="Path_14129-2" class="st42" d="M391.3,216.4c4.9,5.3,4.2,11.8,3,18.3c-0.6,3.3-1,6.6-1.3,10c0.3,6.8,16.5,7,16.2-0.6
					c-0.1-1.8-1.1-6.8-1.3-8.5c-0.5-4.7-0.6-9.5-0.1-14.2c0.6-6.7,3.1-13.1,2.7-20c-0.4-6.7-3.2-13.3-2.3-19.9
					c0.6-4,4.5-13.2,3.3-15c-0.7-0.8-2-0.8-2.7,0l0,0c-1.2,1.1-1.8,6.3-4.3,16.6c-0.3,1.3-0.4,2.7-0.1,4.1c1,5.7,1.1,11.5,0.2,17.1
					c-0.5,3.5-1.7,8.3-6.2,6.8c-3.5-1.2-19.4-11.4-24.8-14.7c-0.7-0.4-1.2-1-1.5-1.7c-3.2-6.8-9.2-21.7-13.6-30.5
					c-0.7-1.4-2.2-3-3.6-2.3c0.7,6.4,11.3,31.3,13.8,37.1c0.4,0.8,0.9,1.5,1.6,2.1C376.2,205.8,387.7,212.5,391.3,216.4z"/>
				<path id="Path_14130-2" class="st42" d="M441,155.2c0.1-0.4-0.1-0.8-0.4-0.9c-0.4-0.1-0.8,0-0.9,0.4l0,0
					c-6.9,17.2-15.2,38.8-32.5,52.3c0,0,1.2,3.5,1.8,3C426.1,196,434,173.7,441,155.2z"/>
				<path id="Path_14131-2" class="st42" d="M418.6,196.4c-1.2-4.2-2.3-8.1-3.5-11.9l-1.3-0.1c1.2,4.2,2.4,9,3.6,13.6
					C417.7,197.5,418.1,197,418.6,196.4z"/>
				<path id="Path_14132-2" class="st42" d="M432.1,188.2c-3,4.3-11.2,7-11.2,7c-0.3,0.2-0.2,1.4,0.1,1.3c4.5-1.3,8.6-4,11.6-7.7
					C432.4,188.3,432.3,188.6,432.1,188.2z"/>
				<path id="Path_14133-2" class="st42" d="M399.6,193.3c1.6-3.5,2.4-7.4,2.3-11.2c-0.3,0-0.6,0-0.9,0c0,3.6-0.9,7.1-2.6,10.3
					C398.8,192.7,399.2,193,399.6,193.3z"/>
				<path id="Path_14134-2" class="st42" d="M381.6,165.3c-2.9,8.8-6.9,17.1-11.9,24.9c-0.2,1.2,0.3,2.4,1.4,3
					c5.1-8.6,9.1-17.9,11.8-27.5c0.1-0.4-0.2-0.7-0.5-0.7C382,164.9,381.7,165,381.6,165.3z"/>
				<path id="Path_14135-2" class="st42" d="M362.8,183.8c-7.9-3.3-15.3-7.8-21.9-13.3c-0.3-0.2-0.7-0.2-0.9,0.1
					c-0.2,0.2-0.2,0.6,0,0.8c7.2,6.5,15.3,11.9,24.1,16C363.6,186.2,363.1,185,362.8,183.8z"/>
				<path id="Path_14136-2" class="st42" d="M407,199c-5.9-5.4-11.1-11.5-15.5-18.3c-0.5-0.1-0.7,0-1.3-0.1
					c4.6,8.2,10.1,15.8,16.5,22.7C406.9,202.2,406.9,200.2,407,199z"/>
				<path id="Path_14137-2" class="st42" d="M370.1,175.9l-0.9,0.3c1.1,3.2,2.4,6.3,4,9.3c0.3-0.6,0.7-1.1,1-1.7
					C372.7,181.3,371.3,178.6,370.1,175.9z"/>
			</g>
			<g id="Group_17455-2" transform="translate(0 0)">
				<path id="Path_14138-2" class="st43" d="M313.8,158.8c-0.1,1.9-0.1,3.9,0,5.8c2.2,27.9,32.1,47.8,66.9,44.5s61.2-28.5,59-56.3
					c-0.2-1.9-0.4-3.9-0.9-5.8L313.8,158.8z"/>
				<g id="Group_17454-2" transform="translate(0)">
					<g id="Group_17449-2" transform="translate(18.42)">
						<g id="Group_17448-2" transform="translate(0)">
							
								<linearGradient id="Ellipse_70-2_1_" gradientUnits="userSpaceOnUse" x1="-312.2896" y1="10.8093" x2="-312.8704" y2="12.1263" gradientTransform="matrix(4.2874 -24.2702 30.421 5.3739 1369.9479 -7520.7705)">
								<stop  offset="0" style="stop-color:#B6CD34"/>
								<stop  offset="0.414" style="stop-color:#92AE3D"/>
								<stop  offset="0.775" style="stop-color:#7B9A3D"/>
								<stop  offset="1" style="stop-color:#73933C"/>
							</linearGradient>
							<path id="Ellipse_70-2" class="st53" d="M359.3,136.7c4.1-23.2,31-37.8,60-32.7c29,5.1,49.3,28.1,45.2,51.2s-31,37.8-60,32.7
								C375.4,182.8,355.2,159.9,359.3,136.7z"/>
							
								<linearGradient id="Path_14139-2_1_" gradientUnits="userSpaceOnUse" x1="-277.0475" y1="26.0516" x2="-278.3438" y2="32.0007" gradientTransform="matrix(13.1302 0 0 7.6115 4069.647 -89.34)">
								<stop  offset="0" style="stop-color:#B6CD34"/>
								<stop  offset="0.273" style="stop-color:#8EA73C"/>
								<stop  offset="0.589" style="stop-color:#698238"/>
								<stop  offset="0.842" style="stop-color:#526A30"/>
								<stop  offset="1" style="stop-color:#4A622D"/>
							</linearGradient>
							<path id="Path_14139-2" class="st54" d="M431.5,108.6c-12.4-4.8-23.9-4.2-25.6,1.3c-1.8,5.5,6.9,13.8,19.3,18.6
								c12.4,4.8,23.9,4.2,25.6-1.3C452.6,121.6,443.9,113.3,431.5,108.6z"/>
							
								<linearGradient id="Path_14140-2_1_" gradientUnits="userSpaceOnUse" x1="-254.6673" y1="46.7224" x2="-255.3933" y2="50.0443" gradientTransform="matrix(7.4471 0 0 4.3167 2328.2861 -91.932)">
								<stop  offset="0" style="stop-color:#B6CD34"/>
								<stop  offset="0.209" style="stop-color:#9CB53B"/>
								<stop  offset="0.745" style="stop-color:#607935"/>
								<stop  offset="1" style="stop-color:#4A622D"/>
							</linearGradient>
							<path id="Path_14140-2" class="st55" d="M431.5,109.6c-7-2.7-13.6-2.4-14.5,0.7c-1,3.1,3.9,7.8,10.9,10.5s13.6,2.4,14.5-0.7
								C443.4,117,438.5,112.3,431.5,109.6z"/>
						</g>
					</g>
					<g id="Group_17451-2" transform="translate(0 1.55)">
						<g id="Group_17450-2" transform="translate(0 0)">
							
								<linearGradient id="Ellipse_71-2_1_" gradientUnits="userSpaceOnUse" x1="-261.2738" y1="10.1273" x2="-261.2738" y2="13.5875" gradientTransform="matrix(34.3848 -5.2278 4.1751 27.4604 9316.1973 -1479.5175)">
								<stop  offset="0" style="stop-color:#B6CD34"/>
								<stop  offset="0.414" style="stop-color:#92AE3D"/>
								<stop  offset="0.775" style="stop-color:#7B9A3D"/>
								<stop  offset="1" style="stop-color:#73933C"/>
							</linearGradient>
							<path id="Ellipse_71-2" class="st56" d="M366,107.6c32.8-5,62.7,12.2,66.6,38.4s-19.4,51.5-52.2,56.5s-62.7-12.2-66.6-38.4
								S333.2,112.6,366,107.6z"/>
							<path id="Path_14141-2" class="st43" d="M376.2,184.8c-28.4,3.3-53.4-5.4-62.3-20.3c4.1,25.1,32.1,42.1,64,38.4
								s56.1-26.9,55.2-52.4C427.3,167.1,404.5,181.5,376.2,184.8z"/>
							
								<linearGradient id="Ellipse_72-2_1_" gradientUnits="userSpaceOnUse" x1="-256.5521" y1="24.458" x2="-256.5521" y2="30.8737" gradientTransform="matrix(22.6562 -2.8276 1.4812 11.8679 6151.5815 -847.628)">
								<stop  offset="0" style="stop-color:#B6CD34"/>
								<stop  offset="0.273" style="stop-color:#8EA73C"/>
								<stop  offset="0.589" style="stop-color:#698238"/>
								<stop  offset="0.842" style="stop-color:#526A30"/>
								<stop  offset="1" style="stop-color:#4A622D"/>
							</linearGradient>
							<path id="Ellipse_72-2" class="st57" d="M367.9,108.6c21.6-2.7,40.3,4.3,41.7,15.6c1.4,11.3-15,22.7-36.6,25.4
								s-40.3-4.3-41.7-15.6S346.3,111.3,367.9,108.6z"/>
							
								<linearGradient id="Path_14142-2_1_" gradientUnits="userSpaceOnUse" x1="-240.1873" y1="43.3452" x2="-240.1873" y2="46.484" gradientTransform="matrix(11.1248 0 0 5.9782 3041.1355 -90.8091)">
								<stop  offset="0" style="stop-color:#B6CD34"/>
								<stop  offset="0.209" style="stop-color:#9CB53B"/>
								<stop  offset="0.745" style="stop-color:#607935"/>
								<stop  offset="1" style="stop-color:#4A622D"/>
							</linearGradient>
							<path id="Path_14142-2" class="st58" d="M368.1,109.8c-10.6,1.2-18.8,6.8-18.2,12.3c0.5,5.6,9.6,9.1,20.2,7.8
								s18.8-6.8,18.2-12.3C387.7,112.1,378.7,108.6,368.1,109.8z"/>
						</g>
					</g>
					<g id="Group_17453-2" transform="translate(21.707 10.564)">
						<g id="Group_17452-2" transform="translate(0 0)">
							
								<linearGradient id="Ellipse_73-2_1_" gradientUnits="userSpaceOnUse" x1="-301.8867" y1="13.3762" x2="-301.8867" y2="16.833" gradientTransform="matrix(29.6315 -4.5051 3.5976 23.6621 9317.9873 -1484.4276)">
								<stop  offset="0" style="stop-color:#B6CD34"/>
								<stop  offset="0.414" style="stop-color:#92AE3D"/>
								<stop  offset="0.775" style="stop-color:#7B9A3D"/>
								<stop  offset="1" style="stop-color:#73933C"/>
							</linearGradient>
							<path id="Ellipse_73-2" class="st59" d="M411.1,128.5c28.3-4.3,54,10.5,57.4,33.1s-16.7,44.4-45,48.7s-54-10.5-57.4-33.1
								S382.9,132.8,411.1,128.5z"/>
							<path id="Path_14143-2" class="st43" d="M419.8,194.8c-24.1,2.8-45.4-4.5-53.5-17c3.7,21.4,27.7,36,55.1,32.8
								s48-23,47.5-44.8C463.4,179.9,443.9,191.9,419.8,194.8z"/>
							
								<linearGradient id="Ellipse_74-2_1_" gradientUnits="userSpaceOnUse" x1="-295.5374" y1="29.4394" x2="-295.5374" y2="35.8516" gradientTransform="matrix(19.4146 -2.4616 1.401 11.0495 6117.9141 -856.9231)">
								<stop  offset="0" style="stop-color:#B6CD34"/>
								<stop  offset="0.273" style="stop-color:#8EA73C"/>
								<stop  offset="0.589" style="stop-color:#698238"/>
								<stop  offset="0.842" style="stop-color:#526A30"/>
								<stop  offset="1" style="stop-color:#4A622D"/>
							</linearGradient>
							<path id="Ellipse_74-2" class="st60" d="M413,129.7c18.5-2.3,34.6,4.3,36,14.8c1.3,10.5-12.6,21-31.1,23.4
								c-18.5,2.3-34.6-4.3-36-14.8C380.5,142.5,394.5,132,413,129.7z"/>
							
								<linearGradient id="Path_14144-2_1_" gradientUnits="userSpaceOnUse" x1="-275.8599" y1="48.9802" x2="-275.8599" y2="52.1259" gradientTransform="matrix(10.0859 0 0 5.8678 3196.4958 -91.3165)">
								<stop  offset="0" style="stop-color:#B6CD34"/>
								<stop  offset="0.209" style="stop-color:#9CB53B"/>
								<stop  offset="0.745" style="stop-color:#607935"/>
								<stop  offset="1" style="stop-color:#4A622D"/>
							</linearGradient>
							<path id="Path_14144-2" class="st61" d="M413.2,130.7c-9.6,1.1-17,6.5-16.4,12c0.5,5.5,8.8,9,18.4,7.9s17-6.5,16.4-12
								S422.8,129.5,413.2,130.7z"/>
						</g>
					</g>
				</g>
			</g>
		</g>
		<g id="Group_17458" transform="translate(39.664 10.241)">
			<g id="_24">
				<g id="Group_17457" transform="translate(0 2.13)">
					<g id="Axonometric_Cylinder" transform="translate(0 39.608)">
						
							<linearGradient id="Path_14145_1_" gradientUnits="userSpaceOnUse" x1="-89.7536" y1="174.8206" x2="-86.2969" y2="174.8206" gradientTransform="matrix(5.04 0 0 1.7765 557.2582 -96.7688)">
							<stop  offset="0" style="stop-color:#3D3A39"/>
							<stop  offset="1" style="stop-color:#44403F"/>
						</linearGradient>
						<path id="Path_14145" class="st62" d="M104.9,210.8v1.1c0.2,1.5,1.1,2.9,2.5,3.5c3.9,2,8.5,2,12.3,0c1.4-0.6,2.4-2,2.6-3.6
							v-1.1L104.9,210.8z"/>
						<ellipse id="Cylinder_face" class="st63" cx="113.6" cy="210.8" rx="8.7" ry="5"/>
					</g>
					<g id="Axonometric_Cylinder-2" transform="translate(1.216 36.338)">
						
							<linearGradient id="Path_14146_1_" gradientUnits="userSpaceOnUse" x1="-75.9772" y1="66.4104" x2="-72.5204" y2="66.4104" gradientTransform="matrix(2.609 0 0 4.5601 306.1011 -94.6633)">
							<stop  offset="0" style="stop-color:#3D3A39"/>
							<stop  offset="1" style="stop-color:#44403F"/>
						</linearGradient>
						<path id="Path_14146" class="st64" d="M107.9,200.4v13.1c0.1,0.8,0.6,1.5,1.3,1.8c2,1,4.4,1,6.4,0c0.7-0.3,1.3-1,1.3-1.9
							v-13.1L107.9,200.4z"/>
						<ellipse id="Cylinder_face-2" class="st63" cx="112.4" cy="200.3" rx="4.5" ry="2.6"/>
					</g>
					<g id="Group_17456" transform="translate(1.701)">
						
							<linearGradient id="Path_14147_1_" gradientUnits="userSpaceOnUse" x1="-56.8014" y1="6.3446" x2="-53.3447" y2="6.3446" gradientTransform="matrix(1.631 0 0 37.2298 201.7113 -62.4658)">
							<stop  offset="0" style="stop-color:#3D3A39"/>
							<stop  offset="1" style="stop-color:#44403F"/>
						</linearGradient>
						<path id="Path_14147" class="st65" d="M113.3,109.4H110l-1,127.1c0,0.5,0.3,0.9,0.8,1.1c1.2,0.6,2.7,0.7,4,0
							c0.5-0.2,0.8-0.7,0.9-1.2L113.3,109.4z"/>
						<path id="Path_14148" class="st63" d="M112.9,108.8c0.6,0.4,0.6,1,0,1.3c-0.7,0.4-1.6,0.4-2.3,0c-0.6-0.4-0.6-1,0-1.3
							C111.3,108.4,112.2,108.4,112.9,108.8z"/>
					</g>
				</g>
				<path id="Path_14149" class="st66" d="M121.7,111.5c0,4.6-3.7,8.3-8.3,8.3c-4.6,0-8.3-3.7-8.3-8.3c0-4.6,3.7-8.3,8.3-8.3l0,0
					C118,103.2,121.7,106.9,121.7,111.5z"/>
			</g>
		</g>
		<g id="Group_17437" transform="translate(57.023 11.09)">
			<g id="_24-2" transform="translate(44.567)">
				<g id="Group_17434" transform="translate(0 2.579)">
					<g id="Axonometric_Cylinder-3" transform="translate(0 47.959)">
						
							<linearGradient id="Path_14069_1_" gradientUnits="userSpaceOnUse" x1="-191.502" y1="155.8291" x2="-188.0452" y2="155.8291" gradientTransform="matrix(6.104 0 0 2.1521 1425.9563 -96.1098)">
							<stop  offset="0" style="stop-color:#3D3A39"/>
							<stop  offset="1" style="stop-color:#44403F"/>
						</linearGradient>
						<path id="Path_14069" class="st67" d="M257,235.6v1.3c0.2,1.9,1.4,3.5,3.1,4.3c4.7,2.4,10.2,2.4,14.9,0
							c1.8-0.8,2.9-2.5,3.1-4.4v-1.3L257,235.6z"/>
						<path id="Cylinder_face-3" class="st63" d="M275,239.9c-4.7,2.4-10.2,2.4-14.9,0c-2.4-0.8-3.7-3.4-2.9-5.8
							c0.5-1.3,1.5-2.4,2.9-2.9c4.7-2.4,10.2-2.4,14.9,0c2.4,0.8,3.7,3.4,2.9,5.8C277.4,238.4,276.4,239.4,275,239.9z"/>
					</g>
					<g id="Axonometric_Cylinder-4" transform="translate(1.472 44)">
						
							<linearGradient id="Path_14070_1_" gradientUnits="userSpaceOnUse" x1="-157.5963" y1="59.0434" x2="-154.1395" y2="59.0434" gradientTransform="matrix(3.158 0 0 5.52 758.3319 -93.5694)">
							<stop  offset="0" style="stop-color:#3D3A39"/>
							<stop  offset="1" style="stop-color:#44403F"/>
						</linearGradient>
						<path id="Path_14070" class="st68" d="M260.6,222.9v15.9c0.1,1,0.7,1.8,1.6,2.2c2.4,1.2,5.3,1.2,7.7,0
							c0.9-0.4,1.5-1.3,1.6-2.3v-15.9L260.6,222.9z"/>
						<path id="Cylinder_face-4" class="st63" d="M270,225.1c-2.4,1.2-5.3,1.2-7.7,0c-1.2-0.4-1.9-1.7-1.5-3
							c0.2-0.7,0.8-1.3,1.5-1.5c2.4-1.2,5.3-1.2,7.7,0c1.2,0.4,1.9,1.8,1.5,3C271.2,224.3,270.7,224.9,270,225.1z"/>
					</g>
					<g id="Group_17433" transform="translate(2.06)">
						
							<linearGradient id="Path_14071_1_" gradientUnits="userSpaceOnUse" x1="-113.0405" y1="5.4414" x2="-109.5837" y2="5.4414" gradientTransform="matrix(1.975 0 0 45.0809 485.3416 -54.6051)">
							<stop  offset="0" style="stop-color:#3D3A39"/>
							<stop  offset="1" style="stop-color:#44403F"/>
						</linearGradient>
						<path id="Path_14071" class="st69" d="M267.3,112.8h-3.9l-1.2,153.8c0,0.6,0.4,1.1,1,1.4c1.5,0.8,3.3,0.8,4.8,0
							c0.6-0.3,1-0.8,1-1.5L267.3,112.8z"/>
						<path id="Path_14072" class="st63" d="M266.7,112c0.8,0.5,0.7,1.2-0.1,1.6c-0.9,0.4-1.9,0.4-2.8,0c-0.8-0.5-0.7-1.2,0.1-1.6
							C264.8,111.5,265.8,111.5,266.7,112z"/>
					</g>
				</g>
				<path id="Path_14073" class="st66" d="M277.4,115.3c0,5.5-4.5,10-10,10s-10-4.5-10-10s4.5-10,10-10l0,0
					C272.9,105.3,277.4,109.8,277.4,115.3z"/>
			</g>
			<g id="_24-3" transform="translate(0 25.731)">
				<g id="Group_17436" transform="translate(0 2.58)">
					<g id="Axonometric_Cylinder-5" transform="translate(0 47.958)">
						
							<linearGradient id="Path_14074_1_" gradientUnits="userSpaceOnUse" x1="-120.3049" y1="185.1706" x2="-116.8481" y2="185.1706" gradientTransform="matrix(6.104 0 0 2.1523 881.8818 -96.0927)">
							<stop  offset="0" style="stop-color:#3D3A39"/>
							<stop  offset="1" style="stop-color:#44403F"/>
						</linearGradient>
						<path id="Path_14074" class="st70" d="M147.5,298.8v1.3c0.2,1.9,1.4,3.5,3.1,4.3c4.7,2.4,10.2,2.4,14.9,0
							c1.8-0.8,2.9-2.4,3.1-4.4v-1.3L147.5,298.8z"/>
						<ellipse id="Cylinder_face-5" class="st63" cx="158.1" cy="298.8" rx="10.5" ry="6.1"/>
					</g>
					<g id="Axonometric_Cylinder-6" transform="translate(1.472 44)">
						
							<linearGradient id="Path_14075_1_" gradientUnits="userSpaceOnUse" x1="-103.1296" y1="70.5053" x2="-99.6728" y2="70.5053" gradientTransform="matrix(3.158 0 0 5.519 476.8498 -93.5686)">
							<stop  offset="0" style="stop-color:#3D3A39"/>
							<stop  offset="1" style="stop-color:#44403F"/>
						</linearGradient>
						<path id="Path_14075" class="st71" d="M151.2,286.1V302c0.1,1,0.7,1.8,1.6,2.2c2.4,1.2,5.3,1.2,7.7,0c0.9-0.4,1.5-1.3,1.6-2.3
							V286L151.2,286.1z"/>
						<ellipse id="Cylinder_face-6" class="st63" cx="156.6" cy="286.1" rx="5.5" ry="3.2"/>
					</g>
					<g id="Group_17435" transform="translate(2.06)">
						
							<linearGradient id="Path_14076_1_" gradientUnits="userSpaceOnUse" x1="-79.35" y1="6.8444" x2="-75.8933" y2="6.8444" gradientTransform="matrix(1.975 0 0 45.075 309.2991 -54.6097)">
							<stop  offset="0" style="stop-color:#3D3A39"/>
							<stop  offset="1" style="stop-color:#44403F"/>
						</linearGradient>
						<path id="Path_14076" class="st72" d="M157.8,176h-4l-1.2,153.8c0,0.6,0.4,1.1,1,1.4c1.5,0.8,3.3,0.8,4.8,0
							c0.6-0.3,1-0.8,1-1.5L157.8,176z"/>
						<path id="Path_14077" class="st63" d="M157.2,175.2c0.8,0.5,0.7,1.2-0.1,1.6c-0.9,0.4-1.9,0.4-2.8,0c-0.8-0.5-0.7-1.2,0.1-1.6
							C155.3,174.7,156.4,174.8,157.2,175.2z"/>
					</g>
				</g>
				<path id="Path_14078" class="st66" d="M167.9,178.5c0,5.5-4.5,10-10,10s-10-4.5-10-10s4.5-10,10-10l0,0
					C163.4,168.5,167.9,173,167.9,178.5z"/>
			</g>
		</g>
	</g>
</g>
</svg>
