<?xml version="1.0" encoding="utf-8"?>
<!-- Generator: Adobe Illustrator 23.0.1, SVG Export Plug-In . SVG Version: 6.00 Build 0)  -->
<svg version="1.1" id="bombs" xmlns="http://www.w3.org/2000/svg" xmlns:xlink="http://www.w3.org/1999/xlink" x="0px" y="0px"
	 viewBox="0 0 108.5 94.9" style="enable-background:new 0 0 108.5 94.9;" xml:space="preserve">
<style type="text/css">
	.st0{fill:none;}
	.st1{fill:#FF3107;}
	.st2{enable-background:new    ;}
	.st3{fill:#FFFFFF;}
</style>
<g id="Path_1962" transform="translate(-410.306 -196.61)">
	<path class="st0" d="M495.8,204.5c-27.2,22.3-32.2,20.1-37.6-7.9c-5.4,28-10.4,30.2-33.8,13.9c16.3,23.4,14.1,28.3-14.1,33.7
		c28.2,5.5,30.4,10.4,14.1,33.7c23.4-16.1,28.3-13.9,33.7,13.6c5.5-27.5,10.5-29.7,38.1-7.6c-20.5-29.2-18.3-34.2,22.6-39.9
		C477.9,238.9,475.6,233.9,495.8,204.5z"/>
	<path class="st1" d="M458.2,205.9c-1.1,4.3-2.2,7.4-3.4,9.9c-2.4,4.7-5.5,6.9-9.7,6.9c-3.5,0-7.6-1.5-13.7-5.2
		c4.5,7.4,6.4,12.9,4.6,17.3c-1.2,2.9-3.9,5.1-8.4,7c-2.1,0.8-4.6,1.6-7.8,2.4c3.2,0.8,5.7,1.6,7.8,2.5c4.5,1.9,7.2,4.1,8.4,7
		c1.8,4.4-0.1,9.9-4.5,17.2c6.1-3.7,10.3-5.2,13.7-5.2c4.1,0,7.3,2.2,9.6,6.8c1.2,2.4,2.3,5.4,3.4,9.7c1-3.8,2-6.5,3.1-8.7
		c2.3-4.5,5.3-6.7,9.3-6.7c4.1,0,9.2,2.3,17.3,8.1c-1.8-2.9-3.1-5.4-4.1-7.5c-2.4-5.3-2.8-9.2-1.4-12.5c1.5-3.5,5.2-6.1,11.6-8.2
		c3-1,6.7-1.9,11.5-2.8c-13.2-2.2-20.7-5.1-23.1-10.5c-1.5-3.3-1.1-7.2,1.3-12.5c1-2.2,2.3-4.6,4.1-7.6c-8,5.8-13,8.2-17.1,8.2
		c-3.9,0-7-2.2-9.3-6.8C460.1,212.6,459.1,209.8,458.2,205.9 M458.2,196.6c3,15.4,5.8,23,12.3,23c5.3,0,13-5.1,25.3-15.1
		c-20.1,29.5-17.9,34.4,23,39.5c-40.9,5.8-43.1,10.7-22.6,39.9c-12.5-10-20.3-15-25.7-15c-6.5,0-9.4,7.5-12.4,22.6
		c-3.2-16.3-6.2-23.7-13-23.7c-4.7,0-11.2,3.5-20.7,10.1c16.3-23.2,14.1-28.2-14.1-33.7c28.2-5.4,30.4-10.3,14.1-33.7
		c9.6,6.6,16,10.2,20.7,10.2C451.9,220.7,454.9,213.2,458.2,196.6z"/>
</g>
<g class="st2">
	<path class="st3" d="M44.8,58.3c-1.4-0.6-2.4-1.4-3.2-2.5c-0.7-1.1-1.1-2.3-1.1-3.7c0-1.2,0.3-2.3,0.9-3.3c0.6-1,1.4-1.7,2.5-2.2
		c-0.8-0.5-1.4-1.2-1.9-2c-0.5-0.8-0.7-1.7-0.7-2.8c0-1.9,0.7-3.5,2.2-4.7c1.5-1.2,3.5-1.8,6.2-1.8c2.6,0,4.7,0.6,6.1,1.7
		s2.2,2.7,2.2,4.7c0,1-0.2,2-0.6,2.8c-0.4,0.8-1.1,1.5-1.9,2c1.1,0.5,1.9,1.2,2.5,2.2c0.6,1,0.9,2.1,0.9,3.3c0,1.4-0.4,2.6-1.1,3.7
		c-0.7,1.1-1.8,1.9-3.2,2.5c-1.4,0.6-3,0.9-4.9,0.9C47.8,59.2,46.2,58.9,44.8,58.3z M53,54.8c0.9-0.7,1.3-1.6,1.3-2.7
		c0-1.1-0.4-2-1.3-2.7c-0.9-0.7-2-1-3.3-1c-1.3,0-2.4,0.3-3.3,1c-0.9,0.7-1.3,1.6-1.3,2.7s0.4,2,1.3,2.7c0.9,0.7,2,1,3.3,1
		C51,55.8,52.1,55.4,53,54.8z M52.6,44.3c0.8-0.6,1.1-1.3,1.1-2.2c0-1-0.4-1.7-1.1-2.3s-1.7-0.9-2.9-0.9c-1.2,0-2.1,0.3-2.9,0.9
		c-0.7,0.6-1.1,1.3-1.1,2.3c0,0.9,0.4,1.7,1.1,2.3c0.7,0.6,1.7,0.9,2.9,0.9C50.9,45.1,51.8,44.8,52.6,44.3z"/>
</g>
</svg>
