<svg id="bored" xmlns="http://www.w3.org/2000/svg" width="36.61" height="50.921" viewBox="0 0 36.61 50.921">
  <path id="Path_2033" data-name="Path 2033" d="M186.849,43.741V42.393a.747.747,0,0,1,1.495,0v1.348a.747.747,0,0,1-1.495,0Z" transform="translate(-163.161 -37.504)" fill="#fff"/>
  <path id="Path_2034" data-name="Path 2034" d="M77,45.55a.747.747,0,0,1,1.036,1.078,23.155,23.155,0,0,0-2.472,2.8H101.71c-1.764-2.351-6.417-7.544-13.074-7.544a14.229,14.229,0,0,0-8.392,2.895.747.747,0,1,1-.873-1.213,16.585,16.585,0,0,1,6.373-2.883V31.063a9.7,9.7,0,0,1-5.61-1.99,9.877,9.877,0,0,1-3.383-4.751,11.469,11.469,0,0,1-1.414-.962,8.305,8.305,0,0,1-3.389-6.465.747.747,0,0,1,.747-.747h5.251a.747.747,0,1,1,0,1.495H73.491c.508,3.911,4.937,6.751,8.922,6.751a10.149,10.149,0,0,0,6.141-2.227,7.124,7.124,0,0,0,2.779-4.525h-10.4a.747.747,0,1,1,0-1.495H91.384V4.561a4.561,4.561,0,0,1,9.122,0l0,.93h5.71a2.341,2.341,0,1,1,0,4.681h-5.7l.006,2.954a.747.747,0,0,1-.746.749h0a.747.747,0,0,1-.747-.746l-.016-8.568a3.066,3.066,0,1,0-6.132,0V16.895s0,.008,0,.012c-.008,5.142-5.529,8.982-10.465,8.982a11.089,11.089,0,0,1-3.635-.634,8.354,8.354,0,0,0,7.283,4.321h4.65a8.311,8.311,0,0,0,8.3-8.3l.016-5.157a.747.747,0,0,1,.747-.745h0a.747.747,0,0,1,.745.75l-.016,5.155a9.809,9.809,0,0,1-8.894,9.754V40.7A17.773,17.773,0,0,1,99.8,45.1a23.012,23.012,0,0,1,3.982,4.689.747.747,0,0,1-.641,1.131h-29a.747.747,0,0,1-.641-1.131A22.725,22.725,0,0,1,77,45.55ZM106.217,8.677a.846.846,0,1,0,0-1.692H100.51l0,1.692ZM90.117,31.07H87.239v9.386q.7-.068,1.4-.068a14.118,14.118,0,0,1,1.481.078v-9.4Z" transform="translate(-71.948)" fill="#fff"/>
</svg>
