<svg id="cc" xmlns="http://www.w3.org/2000/svg" xmlns:xlink="http://www.w3.org/1999/xlink" width="194.146" height="24.726" viewBox="0 0 194.146 24.726">
  <defs>
    <radialGradient id="radial-gradient" cx="0.168" cy="-0.4" r="0.935" gradientTransform="matrix(0.998, 0, 0, -1, 0, 0.349)" gradientUnits="objectBoundingBox">
      <stop offset="0" stop-color="#9fd4f3"/>
      <stop offset="0.071" stop-color="#99d2f2"/>
      <stop offset="0.157" stop-color="#8bcdf1"/>
      <stop offset="0.252" stop-color="#71c6ef"/>
      <stop offset="0.351" stop-color="#51bcea"/>
      <stop offset="0.455" stop-color="#21ade4"/>
      <stop offset="0.5" stop-color="#1aa6df"/>
      <stop offset="1" stop-color="#3078bc"/>
    </radialGradient>
    <radialGradient id="radial-gradient-2" cx="-0.009" cy="0.447" r="0.506" gradientTransform="translate(0.011 0) scale(0.977 1)" gradientUnits="objectBoundingBox">
      <stop offset="0.006" stop-color="#ffefe1"/>
      <stop offset="0.109" stop-color="#fee9d8"/>
      <stop offset="0.278" stop-color="#fddcbf"/>
      <stop offset="0.492" stop-color="#fbc597"/>
      <stop offset="0.741" stop-color="#f8a660"/>
      <stop offset="1" stop-color="#f58220"/>
    </radialGradient>
  </defs>
  <rect id="Rectangle_1938" data-name="Rectangle 1938" width="37.625" height="23.951" transform="translate(0 0.388)" fill="#22215e"/>
  <g id="Group_5713" data-name="Group 5713" transform="translate(1.185 1.815)">
    <g id="Group_5708" data-name="Group 5708">
      <g id="Group_5707" data-name="Group 5707">
        <path id="Path_2148" data-name="Path 2148" d="M29.508,20.039A10.549,10.549,0,1,1,18.958,9.49,10.548,10.548,0,0,1,29.508,20.039Z" transform="translate(-8.411 -9.49)" fill="#ff2915"/>
        <g id="Group_5706" data-name="Group 5706" transform="translate(14.398)">
          <path id="Path_2149" data-name="Path 2149" d="M32.85,9.49A10.537,10.537,0,0,0,24.7,13.337h2.129a10.826,10.826,0,0,1,.805,1.117H23.9a11.026,11.026,0,0,0-.608,1.116h4.956a10.716,10.716,0,0,1,.446,1.117H22.845a10.513,10.513,0,0,0-.307,1.118H29a10.583,10.583,0,0,1-.306,5.584H22.845a10.323,10.323,0,0,0,.445,1.117h4.956a10.858,10.858,0,0,1-.608,1.118H23.9A10.475,10.475,0,0,0,24.7,26.74h2.129a10.717,10.717,0,0,1-1.065,1.118A10.548,10.548,0,1,0,32.85,9.49Z" transform="translate(-22.538 -9.49)" fill="#fab92a"/>
        </g>
      </g>
      <path id="Path_2150" data-name="Path 2150" d="M41.626,25.615a.34.34,0,1,1,.34.341A.341.341,0,0,1,41.626,25.615Zm.34.26a.259.259,0,1,0-.258-.26A.26.26,0,0,0,41.966,25.875Zm-.045-.11H41.85v-.3h.127a.141.141,0,0,1,.076.014.1.1,0,0,1,.039.074.082.082,0,0,1-.053.077l.056.132h-.078l-.047-.117h-.049Zm0-.17h.039A.089.089,0,0,0,42,25.589a.042.042,0,0,0,.016-.034A.039.039,0,0,0,42,25.525a.1.1,0,0,0-.045-.006h-.037Z" transform="translate(-7.774 -9.187)" fill="#fab92a"/>
    </g>
    <g id="Group_5712" data-name="Group 5712" transform="translate(0.672 7.841)">
      <g id="Group_5709" data-name="Group 5709" transform="translate(0 0.143)">
        <path id="Path_2151" data-name="Path 2151" d="M16.387,21.02A2.042,2.042,0,0,0,16.131,21c-.648,0-.978.222-.978.662a.4.4,0,0,0,.412.442C16.031,22.108,16.368,21.664,16.387,21.02Zm.834,1.94h-.95l.022-.451a1.438,1.438,0,0,1-1.2.526,1.07,1.07,0,0,1-1.047-1.188c0-1.06.741-1.678,2.011-1.678a3.965,3.965,0,0,1,.468.034,1.035,1.035,0,0,0,.043-.281c0-.288-.2-.4-.734-.4a3.842,3.842,0,0,0-1.212.2c.013-.072.16-.978.16-.978a4.559,4.559,0,0,1,1.369-.23c.985,0,1.505.44,1.5,1.276a5.721,5.721,0,0,1-.091.862C17.462,21.279,17.248,22.631,17.221,22.96Z" transform="translate(-8.975 -17.3)" fill="#23206a"/>
        <path id="Path_2152" data-name="Path 2152" d="M13.663,22.977H12.517l.656-4.113-1.464,4.113H10.93l-.1-4.09-.69,4.09H9.071l.895-5.351h1.647l.1,2.994,1-2.994h1.831Z" transform="translate(-9.071 -17.317)" fill="#23206a"/>
        <path id="Path_2153" data-name="Path 2153" d="M34.088,21.02A2.039,2.039,0,0,0,33.833,21c-.649,0-.978.222-.978.662a.4.4,0,0,0,.411.442C33.732,22.108,34.069,21.664,34.088,21.02Zm.835,1.94h-.951l.022-.451a1.436,1.436,0,0,1-1.2.526,1.069,1.069,0,0,1-1.047-1.188c0-1.06.741-1.678,2.01-1.678a3.935,3.935,0,0,1,.467.034,1.057,1.057,0,0,0,.045-.281c0-.288-.2-.4-.734-.4a3.85,3.85,0,0,0-1.213.2c.014-.072.16-.978.16-.978a4.569,4.569,0,0,1,1.369-.23c.986,0,1.505.44,1.5,1.276a5.29,5.29,0,0,1-.094.862C35.164,21.279,34.949,22.631,34.923,22.96Z" transform="translate(-8.636 -17.3)" fill="#23206a"/>
        <path id="Path_2154" data-name="Path 2154" d="M22.187,22.9a2.613,2.613,0,0,1-.822.142.838.838,0,0,1-.905-.955,10.108,10.108,0,0,1,.157-1.161c.065-.406.5-2.969.5-2.969h1.137l-.134.657h.688l-.155,1.047h-.69c-.132.828-.32,1.859-.322,2,0,.224.119.322.39.322a.945.945,0,0,0,.31-.041Z" transform="translate(-8.852 -17.311)" fill="#23206a"/>
        <path id="Path_2155" data-name="Path 2155" d="M25.637,22.858a3.825,3.825,0,0,1-1.168.176,1.73,1.73,0,0,1-1.938-1.942c0-1.487.845-2.582,1.991-2.582a1.454,1.454,0,0,1,1.539,1.575,4.643,4.643,0,0,1-.142,1.07H23.653c-.076.631.328.894.99.894a2.7,2.7,0,0,0,1.183-.274ZM25,20.278c.007-.091.12-.778-.53-.778-.363,0-.622.277-.727.778Z" transform="translate(-8.813 -17.3)" fill="#23206a"/>
        <path id="Path_2156" data-name="Path 2156" d="M17.842,19.984a1.268,1.268,0,0,0,.872,1.214c.464.219.534.284.534.481,0,.271-.2.393-.656.393a3.2,3.2,0,0,1-1.026-.172s-.149.96-.157,1.006a5.267,5.267,0,0,0,1.192.128c1.208,0,1.765-.46,1.765-1.453a1.19,1.19,0,0,0-.806-1.213c-.481-.221-.536-.27-.536-.473,0-.235.191-.357.561-.357a6.242,6.242,0,0,1,.823.066l.161-1.009a7.566,7.566,0,0,0-1.006-.085C18.28,18.511,17.839,19.18,17.842,19.984Z" transform="translate(-8.911 -17.3)" fill="#23206a"/>
        <path id="Path_2157" data-name="Path 2157" d="M31.141,18.648a2.191,2.191,0,0,1,1.024.289l.185-1.162a3.344,3.344,0,0,0-1.258-.453,2.281,2.281,0,0,0-1.87,1.008c-.666-.22-.939.224-1.274.668l-.3.07a2.359,2.359,0,0,0,.037-.439H26.636c-.144,1.348-.4,2.712-.6,4.06l-.052.293h1.146c.192-1.243.3-2.038.36-2.578l.431-.238c.064-.241.267-.321.67-.311a5.038,5.038,0,0,0-.081.892c0,1.424.769,2.309,2,2.309a3.594,3.594,0,0,0,1.012-.156l.2-1.219a2.232,2.232,0,0,1-.974.274c-.666,0-1.066-.493-1.066-1.3C29.688,19.474,30.285,18.648,31.141,18.648Z" transform="translate(-8.746 -17.323)" fill="#23206a"/>
        <path id="Path_2158" data-name="Path 2158" d="M40.658,17.626,40.4,19.171a1.429,1.429,0,0,0-1.093-.709,1.773,1.773,0,0,0-1.447,1.082,9.274,9.274,0,0,1-.976-.268v0a6.537,6.537,0,0,0,.051-.655H35.885c-.142,1.348-.4,2.712-.6,4.06l-.052.293h1.145q.232-1.507.361-2.5c.39-.354.588-.661.984-.641a3.685,3.685,0,0,0-.277,1.412c0,1.087.549,1.8,1.381,1.8a1.346,1.346,0,0,0,1.056-.48l-.053.4h1.082l.872-5.35Zm-1.432,4.345c-.39,0-.587-.288-.587-.857,0-.856.369-1.463.889-1.463.393,0,.607.3.607.853C40.135,21.367,39.759,21.971,39.226,21.971Z" transform="translate(-8.569 -17.317)" fill="#23206a"/>
      </g>
      <g id="Group_5711" data-name="Group 5711" transform="translate(0.329)">
        <path id="Path_2159" data-name="Path 2159" d="M13.986,22.664H12.84l.658-4.113-1.465,4.113h-.781l-.1-4.088-.689,4.088H9.394l.9-5.35h1.647l.046,3.312,1.11-3.312h1.78Z" transform="translate(-9.394 -17.18)" fill="#fff"/>
        <path id="Path_2160" data-name="Path 2160" d="M16.712,20.709a2.075,2.075,0,0,0-.257-.018c-.649,0-.976.223-.976.662a.4.4,0,0,0,.41.443C16.355,21.8,16.691,21.353,16.712,20.709Zm.832,1.937h-.949l.022-.449a1.439,1.439,0,0,1-1.2.526,1.07,1.07,0,0,1-1.046-1.188c0-1.06.739-1.678,2.009-1.678a3.936,3.936,0,0,1,.467.034,1.127,1.127,0,0,0,.046-.283c0-.287-.2-.394-.733-.394a3.845,3.845,0,0,0-1.215.195c.013-.072.159-.978.159-.978a4.565,4.565,0,0,1,1.371-.229c.984,0,1.5.441,1.5,1.275a5.658,5.658,0,0,1-.094.863C17.786,20.967,17.573,22.32,17.544,22.647Z" transform="translate(-9.299 -17.163)" fill="#fff"/>
        <path id="Path_2161" data-name="Path 2161" d="M32.626,17.461l-.187,1.161a2.2,2.2,0,0,0-1.022-.288c-.856,0-1.456.826-1.456,2,0,.812.4,1.3,1.07,1.3A2.22,2.22,0,0,0,32,21.367l-.2,1.219a3.575,3.575,0,0,1-1.013.157c-1.232,0-2-.886-2-2.309,0-1.913,1.063-3.25,2.58-3.25A3.956,3.956,0,0,1,32.626,17.461Z" transform="translate(-9.022 -17.183)" fill="#fff"/>
        <path id="Path_2162" data-name="Path 2162" d="M34.412,20.709a2.061,2.061,0,0,0-.256-.018c-.649,0-.977.223-.977.662a.4.4,0,0,0,.411.443C34.056,21.8,34.392,21.353,34.412,20.709Zm.833,1.937H34.3l.022-.449a1.441,1.441,0,0,1-1.2.526,1.07,1.07,0,0,1-1.046-1.188c0-1.06.739-1.678,2.01-1.678a3.965,3.965,0,0,1,.467.034,1.1,1.1,0,0,0,.044-.283c0-.287-.2-.394-.733-.394a3.837,3.837,0,0,0-1.214.195c.012-.072.16-.978.16-.978a4.559,4.559,0,0,1,1.37-.229c.984,0,1.505.441,1.5,1.275a5.659,5.659,0,0,1-.094.863C35.487,20.967,35.274,22.32,35.245,22.647Z" transform="translate(-8.959 -17.163)" fill="#fff"/>
        <path id="Path_2163" data-name="Path 2163" d="M22.509,22.592a2.608,2.608,0,0,1-.822.142.837.837,0,0,1-.9-.956,10.1,10.1,0,0,1,.156-1.16c.066-.407.5-2.969.5-2.969h1.139l-.134.658h.585l-.156,1.046h-.587c-.131.828-.32,1.858-.324,1.995,0,.225.12.323.4.323a.964.964,0,0,0,.308-.041Z" transform="translate(-9.176 -17.174)" fill="#fff"/>
        <path id="Path_2164" data-name="Path 2164" d="M25.96,22.547a3.9,3.9,0,0,1-1.168.176,1.73,1.73,0,0,1-1.938-1.941c0-1.489.844-2.583,1.992-2.583a1.453,1.453,0,0,1,1.537,1.575,4.69,4.69,0,0,1-.14,1.07H23.978c-.078.631.325.894.988.894a2.693,2.693,0,0,0,1.185-.274Zm-.639-2.58c.005-.091.12-.778-.53-.778-.363,0-.622.277-.728.778Z" transform="translate(-9.136 -17.163)" fill="#fff"/>
        <path id="Path_2165" data-name="Path 2165" d="M18.166,19.672a1.269,1.269,0,0,0,.872,1.216c.463.217.535.282.535.481,0,.27-.2.391-.657.391a3.21,3.21,0,0,1-1.027-.171s-.15.96-.156,1.006a5.382,5.382,0,0,0,1.191.128c1.208,0,1.766-.461,1.766-1.454a1.191,1.191,0,0,0-.807-1.213c-.48-.22-.535-.269-.535-.472,0-.235.19-.357.561-.357a6.418,6.418,0,0,1,.822.065l.163-1.008a7.8,7.8,0,0,0-1.008-.085C18.605,18.2,18.161,18.869,18.166,19.672Z" transform="translate(-9.234 -17.163)" fill="#fff"/>
        <path id="Path_2166" data-name="Path 2166" d="M41.2,22.664H40.115l.053-.4a1.349,1.349,0,0,1-1.056.48c-.832,0-1.383-.718-1.383-1.806,0-1.447.854-2.667,1.863-2.667a1.292,1.292,0,0,1,1.094.593l.255-1.546h1.13Zm-1.69-1c.534,0,.908-.606.908-1.468,0-.552-.213-.853-.606-.853-.52,0-.889.605-.889,1.462C38.92,21.371,39.118,21.661,39.507,21.661Z" transform="translate(-8.851 -17.18)" fill="#fff"/>
        <path id="Path_2167" data-name="Path 2167" d="M36.21,18.3c-.144,1.346-.4,2.711-.6,4.058l-.053.291h1.146c.41-2.66.508-3.18,1.152-3.115a4.274,4.274,0,0,1,.434-1.262c-.48-.1-.749.171-1.1.686a4.043,4.043,0,0,0,.067-.659Z" transform="translate(-8.892 -17.163)" fill="#fff"/>
        <path id="Path_2168" data-name="Path 2168" d="M26.96,18.3c-.145,1.346-.4,2.711-.6,4.058l-.052.291h1.146c.411-2.66.508-3.18,1.15-3.115a4.361,4.361,0,0,1,.435-1.262c-.479-.1-.747.171-1.1.686a3.936,3.936,0,0,0,.069-.659Z" transform="translate(-9.07 -17.163)" fill="#fff"/>
        <g id="Group_5710" data-name="Group 5710" transform="translate(32.85 4.802)">
          <path id="Path_2169" data-name="Path 2169" d="M41.626,22.235a.34.34,0,1,1,.34.34A.34.34,0,0,1,41.626,22.235Zm.34.26a.259.259,0,1,0-.259-.26A.258.258,0,0,0,41.966,22.5Zm-.047-.11H41.85v-.3h.127a.131.131,0,0,1,.075.015.088.088,0,0,1,.039.074.081.081,0,0,1-.052.077l.055.131h-.078l-.046-.118H41.92Zm0-.17h.041A.085.085,0,0,0,42,22.21a.042.042,0,0,0,.017-.035A.04.04,0,0,0,42,22.145a.1.1,0,0,0-.046-.005H41.92Z" transform="translate(-41.626 -21.895)" fill="#fff"/>
        </g>
      </g>
    </g>
  </g>
  <path id="Path_2170" data-name="Path 2170" d="M50.7,24.513h0C50.7,24.482,50.695,24.484,50.7,24.513Z" transform="translate(-6.416 -7.387)" fill="#fff"/>
  <g id="Group_5715" data-name="Group 5715" transform="translate(42.589 0.457)">
    <rect id="Rectangle_1939" data-name="Rectangle 1939" width="38.143" height="23.812" fill="#324297" stroke="#324297" stroke-width="0.514"/>
    <path id="Path_2171" data-name="Path 2171" d="M50.779,24.805A1.759,1.759,0,0,0,52.671,26.5H87.145V8.158H50.782c0,3.985,0,13.461,0,16.647Z" transform="translate(-49.003 -8.158)" fill="#fff"/>
    <g id="Group_5714" data-name="Group 5714" transform="translate(2.655 3.635)">
      <path id="Path_2172" data-name="Path 2172" d="M61.088,11.913l-2.65,7.148-.283-1.452a8.359,8.359,0,0,0-3.75-4.377l2.423,9.154h2.865l4.262-10.472H61.088" transform="translate(-51.589 -11.72)" fill="#324297"/>
      <path id="Path_2173" data-name="Path 2173" d="M63.19,22.39,64.883,11.9h2.709L65.9,22.39H63.19" transform="translate(-51.421 -11.721)" fill="#324297"/>
      <path id="Path_2174" data-name="Path 2174" d="M75.635,12.166a6.648,6.648,0,0,0-2.425-.442c-2.679,0-4.562,1.423-4.578,3.458-.017,1.511,1.345,2.35,2.372,2.853,1.055.514,1.409.843,1.405,1.3-.01.7-.845,1.019-1.623,1.019a5.383,5.383,0,0,1-2.545-.549l-.353-.165-.378,2.345a8.132,8.132,0,0,0,3.019.563c2.841,0,4.69-1.409,4.712-3.583.013-1.2-.71-2.1-2.276-2.851-.943-.484-1.529-.806-1.519-1.3,0-.435.49-.9,1.553-.9a4.693,4.693,0,0,1,2.025.4l.243.122.367-2.274" transform="translate(-51.338 -11.724)" fill="#324297"/>
      <path id="Path_2175" data-name="Path 2175" d="M82.436,11.914H80.344a1.347,1.347,0,0,0-1.422.869L74.9,22.391H77.75s.465-1.291.568-1.576l3.466.006c.085.367.332,1.57.332,1.57h2.513L82.436,11.914M79.1,18.671c.226-.6,1.08-2.93,1.08-2.93-.018.029.219-.608.359-1l.18.907s.521,2.5.628,3.024Z" transform="translate(-51.196 -11.72)" fill="#324297"/>
      <path id="Path_2176" data-name="Path 2176" d="M56.034,11.909H51.666l-.024.18a9.108,9.108,0,0,1,6.566,5.521l-.948-4.817A1.135,1.135,0,0,0,56.034,11.909Z" transform="translate(-51.642 -11.72)" fill="#fcac1c"/>
    </g>
  </g>
  <g id="Group_5716" data-name="Group 5716" transform="translate(85.212)">
    <path id="Path_2177" data-name="Path 2177" d="M115.493,7.709H90.857V32.435h24.636V24.275a.915.915,0,0,0,.146-.542.835.835,0,0,0-.146-.543" transform="translate(-90.857 -7.709)" fill="url(#radial-gradient)"/>
    <path id="Path_2178" data-name="Path 2178" d="M93.078,18.249,92.6,17.1l-.471,1.154m11.386-.459a.65.65,0,0,1-.342.059h-.841v-.644h.853a.707.707,0,0,1,.327.053.264.264,0,0,1,.146.256A.3.3,0,0,1,103.518,17.79Zm6,.459-.481-1.154-.476,1.154ZM98.333,19.5h-.709l0-2.269-1,2.269h-.607L95,17.229V19.5H93.592l-.265-.646H91.886l-.27.646h-.751l1.24-2.9h1.027l1.178,2.743V16.6h1.13l.906,1.965L97.18,16.6h1.153v2.9Zm2.828,0H98.849V16.6h2.311v.6H99.541v.523h1.582v.593H99.541v.58h1.619Zm3.263-2.117a.817.817,0,0,1-.489.773.791.791,0,0,1,.342.244.827.827,0,0,1,.115.531v.57h-.7l0-.365a.868.868,0,0,0-.11-.565c-.1-.1-.255-.124-.5-.124h-.743V19.5h-.693V16.6h1.593a1.633,1.633,0,0,1,.839.139A.677.677,0,0,1,104.424,17.382Zm1.108,2.117h-.706V16.6h.706Zm8.2,0h-.981l-1.313-2.174V19.5h-1.411l-.27-.646h-1.436l-.263.646h-.81a1.226,1.226,0,0,1-1.374-1.426,1.547,1.547,0,0,1,.373-1.133A1.4,1.4,0,0,1,107.3,16.6h.671v.62h-.654a.671.671,0,0,0-.535.172.957.957,0,0,0-.2.656,1.006,1.006,0,0,0,.189.681.674.674,0,0,0,.484.149h.311l.976-2.278h1.037l1.173,2.74V16.6H111.8l1.217,2.017V16.6h.709v2.9Zm-22.872.57h1.182l.266-.644h.6l.266.644H95.5v-.492l.209.493h1.207l.209-.5v.5h5.786l0-1.057h.113c.077,0,.1.01.1.14v.917h2.991v-.247a2.377,2.377,0,0,0,1.112.247h1.26l.267-.644h.6l.264.644h2.426v-.612l.368.612h1.944V16.028h-1.923V16.5l-.27-.477H110.18V16.5l-.247-.477h-2.668a2.388,2.388,0,0,0-1.156.236v-.236h-1.84v.236a1.136,1.136,0,0,0-.781-.236H96.766l-.453,1.044-.464-1.044H93.733V16.5l-.232-.477H91.695l-.838,1.922v2.119Z" transform="translate(-90.857 -7.549)" fill="#fff"/>
    <path id="Path_2179" data-name="Path 2179" d="M115.4,22.111H114.14a.474.474,0,0,0-.28.053.225.225,0,0,0-.1.209.219.219,0,0,0,.152.215.808.808,0,0,0,.266.033l.375.01a1.1,1.1,0,0,1,.787.233.406.406,0,0,1,.063.071m0,1.085a1.074,1.074,0,0,1-.939.372h-1.338v-.622h1.333a.389.389,0,0,0,.279-.072.257.257,0,0,0,.084-.189.238.238,0,0,0-.087-.192.345.345,0,0,0-.245-.064c-.649-.022-1.459.019-1.459-.9,0-.421.265-.863.993-.863H115.4v-.576h-1.281a1.436,1.436,0,0,0-.866.236v-.236h-1.9a1.316,1.316,0,0,0-.829.236v-.236h-3.384v.236a1.8,1.8,0,0,0-.934-.236h-2.233v.236a1.576,1.576,0,0,0-.976-.236h-2.5l-.573.619-.534-.619H95.664v4.042h3.662l.589-.628.555.628,2.257,0v-.951h.222a2.366,2.366,0,0,0,.964-.143v1.091h1.862V23.908h.09c.115,0,.125,0,.125.119v.934h5.657a1.61,1.61,0,0,0,.943-.258v.258h1.794a2.411,2.411,0,0,0,1.015-.185v-.754Zm-2.761-1.157a.808.808,0,0,1,.206.615c0,.623-.389.914-1.086.914H110.41v-.622h1.344a.4.4,0,0,0,.281-.072.256.256,0,0,0,.082-.189.246.246,0,0,0-.084-.192.363.363,0,0,0-.248-.064c-.647-.022-1.457.019-1.457-.9,0-.421.263-.863.99-.863h1.388v.617h-1.27a.467.467,0,0,0-.278.053.225.225,0,0,0-.1.209.222.222,0,0,0,.153.215.784.784,0,0,0,.268.034l.374.009A1.116,1.116,0,0,1,112.639,22.865Zm-6.249-.179a.668.668,0,0,1-.343.06h-.841v-.651h.854a.692.692,0,0,1,.33.052.28.28,0,0,1,.144.261A.314.314,0,0,1,106.391,22.685Zm.418.361a.751.751,0,0,1,.338.244.838.838,0,0,1,.116.529v.575h-.7v-.363c0-.174.016-.433-.111-.568-.1-.1-.255-.128-.509-.128h-.74v1.059h-.7v-2.9h1.6a1.7,1.7,0,0,1,.833.138.676.676,0,0,1,.356.643A.81.81,0,0,1,106.809,23.046Zm.874-1.551h2.311v.6h-1.622v.527h1.582v.591h-1.582v.577l1.622,0v.6h-2.311Zm-4.671,1.337h-.895v-.738h.9c.252,0,.424.1.424.356S103.277,22.832,103.012,22.832Zm-1.586,1.3-1.064-1.18,1.064-1.144Zm-2.746-.34h-1.7v-.577H98.5v-.591H96.979v-.527h1.736l.758.845Zm5.5-1.339c0,.805-.6.971-1.2.971h-.863v.972H100.77l-.853-.96-.886.96H96.289v-2.9h2.785l.852.95.88-.95h2.213C103.569,21.495,104.185,21.648,104.185,22.45Z" transform="translate(-90.765 -7.456)" fill="#fff"/>
  </g>
  <g id="Group_5717" data-name="Group 5717" transform="translate(114.328 0.201)">
    <path id="Path_2180" data-name="Path 2180" d="M157.019,21.165S146.7,28.443,127.812,31.7h29.207Z" transform="translate(-119.265 -7.652)" fill="#f58220"/>
    <path id="Path_2181" data-name="Path 2181" d="M157.319,7.906l-37.893,0V32.231h38.03V7.906Zm-.138.276V31.955H119.7V8.184Z" transform="translate(-119.426 -7.906)" fill="#231f20"/>
    <path id="Path_2182" data-name="Path 2182" d="M152.913,28.575" transform="translate(-118.784 -7.51)" fill="#e83530"/>
    <path id="Path_2183" data-name="Path 2183" d="M139.021,13.965a2.758,2.758,0,0,0-2.808,2.7,2.805,2.805,0,1,0,2.808-2.7Z" transform="translate(-119.104 -7.79)" fill="url(#radial-gradient-2)"/>
    <path id="Path_2184" data-name="Path 2184" d="M123.361,14.061h-1.51v5.264h1.5a2.748,2.748,0,0,0,1.877-.607,2.647,2.647,0,0,0,.955-2.022A2.614,2.614,0,0,0,123.361,14.061Zm1.2,3.953a1.943,1.943,0,0,1-1.405.42h-.276V14.953h.276a1.9,1.9,0,0,1,1.405.426,1.767,1.767,0,0,1,.568,1.31A1.8,1.8,0,0,1,124.56,18.014Z" transform="translate(-119.379 -7.788)" fill="#001722"/>
    <rect id="Rectangle_1940" data-name="Rectangle 1940" width="1.026" height="5.264" transform="translate(7.28 6.274)" fill="#001722"/>
    <path id="Path_2185" data-name="Path 2185" d="M130.079,16.082c-.617-.228-.8-.379-.8-.661,0-.332.323-.584.765-.584a1.066,1.066,0,0,1,.83.425l.536-.7a2.3,2.3,0,0,0-1.547-.585,1.548,1.548,0,0,0-1.642,1.507c0,.727.332,1.1,1.3,1.445a4.092,4.092,0,0,1,.71.3.631.631,0,0,1,.308.544.75.75,0,0,1-.8.742,1.214,1.214,0,0,1-1.12-.7l-.662.64a2.046,2.046,0,0,0,1.823,1,1.7,1.7,0,0,0,1.815-1.73C131.594,16.888,131.247,16.509,130.079,16.082Z" transform="translate(-119.262 -7.79)" fill="#001722"/>
    <path id="Path_2186" data-name="Path 2186" d="M131.842,16.7a2.727,2.727,0,0,0,2.779,2.748,2.823,2.823,0,0,0,1.287-.308V17.93a1.642,1.642,0,0,1-1.239.576,1.721,1.721,0,0,1-1.769-1.815,1.75,1.75,0,0,1,1.721-1.807,1.717,1.717,0,0,1,1.287.591V14.267a2.621,2.621,0,0,0-1.264-.322A2.768,2.768,0,0,0,131.842,16.7Z" transform="translate(-119.188 -7.79)" fill="#001722"/>
    <path id="Path_2187" data-name="Path 2187" d="M144.042,17.6l-1.405-3.536h-1.121l2.233,5.4h.553l2.273-5.4h-1.113Z" transform="translate(-119.002 -7.788)" fill="#001722"/>
    <path id="Path_2188" data-name="Path 2188" d="M146.938,19.325h2.912v-.891h-1.885V17.012h1.813v-.891h-1.813V14.953h1.885v-.891h-2.912Z" transform="translate(-118.898 -7.788)" fill="#001722"/>
    <path id="Path_2189" data-name="Path 2189" d="M153.848,15.614c0-.986-.679-1.553-1.863-1.553h-1.524v5.264h1.027V17.209h.134l1.422,2.116h1.262l-1.658-2.218A1.4,1.4,0,0,0,153.848,15.614Zm-2.061.869h-.3v-1.6h.315c.641,0,.99.27.99.782C152.793,16.2,152.444,16.484,151.787,16.484Z" transform="translate(-118.831 -7.788)" fill="#001722"/>
    <path id="Path_2190" data-name="Path 2190" d="M154.5,14.449c0-.093-.062-.142-.175-.142h-.15v.463h.11v-.18l.129.18h.137l-.153-.192A.127.127,0,0,0,154.5,14.449Zm-.194.063h-.021v-.12h.021c.054,0,.082.019.082.059S154.362,14.512,154.307,14.512Z" transform="translate(-118.76 -7.783)" fill="#231f20"/>
    <path id="Path_2191" data-name="Path 2191" d="M154.352,14.135a.405.405,0,1,0,.4.406A.4.4,0,0,0,154.352,14.135Zm0,.738a.333.333,0,1,1,.319-.331A.328.328,0,0,1,154.352,14.873Z" transform="translate(-118.764 -7.787)" fill="#231f20"/>
    <path id="Path_2192" data-name="Path 2192" d="M130.879,20.583l1.374,1.439V20.658h.2V22.5l-1.373-1.435V22.42h-.2Z" transform="translate(-119.206 -7.663)" fill="#231f20"/>
    <path id="Path_2193" data-name="Path 2193" d="M130.862,20.584v1.855h.232V21.11l1.374,1.435v-1.9h-.233v1.337c-.06-.064-1.373-1.44-1.373-1.44Zm.037.046,1.375,1.439V20.677h.158v1.777l-1.373-1.437V22.4h-.16Z" transform="translate(-119.207 -7.664)" fill="#231f20"/>
    <path id="Path_2194" data-name="Path 2194" d="M133.354,20.657h.912v.181h-.717v.525h.7v.181h-.7v.691h.717v.182h-.912Z" transform="translate(-119.159 -7.661)" fill="#231f20"/>
    <path id="Path_2195" data-name="Path 2195" d="M134.267,20.639h-.933v1.8h.951v-.219h-.717v-.655h.7v-.217h-.7v-.486h.717v-.22Zm-.018.036v.146h-.716v.561h.694v.146h-.694v.728h.716V22.4h-.875V20.675Z" transform="translate(-119.159 -7.662)" fill="#231f20"/>
    <path id="Path_2196" data-name="Path 2196" d="M135.62,22.418h-.2v-1.58H135v-.181h1.051v.181h-.43Z" transform="translate(-119.127 -7.661)" fill="#231f20"/>
    <path id="Path_2197" data-name="Path 2197" d="M136.05,20.639h-1.071v.22h.426v1.578h.233V20.859h.429v-.22Zm-.018.036v.146h-.43V22.4h-.159V20.82h-.425v-.146Z" transform="translate(-119.128 -7.662)" fill="#231f20"/>
    <path id="Path_2198" data-name="Path 2198" d="M137.331,21.979l.57-1.412.57,1.412.462-1.32h.214l-.676,1.852-.57-1.419-.57,1.419-.674-1.852h.211Z" transform="translate(-119.096 -7.663)" fill="#231f20"/>
    <path id="Path_2199" data-name="Path 2199" d="M137.885,20.561s-.519,1.282-.552,1.367c-.031-.086-.451-1.286-.451-1.286h-.252l.7,1.923s.538-1.341.57-1.422l.57,1.422.7-1.923h-.253s-.421,1.2-.45,1.286c-.035-.085-.569-1.409-.569-1.409Zm-.537,1.425.553-1.368c.033.078.571,1.414.571,1.414s.466-1.33.475-1.354h.173c-.016.047-.62,1.7-.65,1.784-.033-.084-.569-1.416-.569-1.416s-.536,1.332-.569,1.416c-.031-.085-.632-1.737-.65-1.784h.173c.009.024.475,1.354.475,1.354Z" transform="translate(-119.096 -7.664)" fill="#231f20"/>
    <path id="Path_2200" data-name="Path 2200" d="M141.623,21.54a.918.918,0,1,1-.917-.913A.914.914,0,0,1,141.623,21.54Zm-1.64,0a.722.722,0,1,0,.723-.73A.728.728,0,0,0,139.983,21.538Z" transform="translate(-119.035 -7.662)" fill="#231f20"/>
    <path id="Path_2201" data-name="Path 2201" d="M139.768,21.541a.937.937,0,1,0,.938-.932A.934.934,0,0,0,139.768,21.541Zm.036,0a.9.9,0,1,1,.9.891A.9.9,0,0,1,139.8,21.541Z" transform="translate(-119.036 -7.662)" fill="#231f20"/>
    <path id="Path_2202" data-name="Path 2202" d="M139.959,21.535a.741.741,0,1,0,.743-.747A.747.747,0,0,0,139.959,21.535Zm.039,0a.7.7,0,1,1,.7.71A.707.707,0,0,1,140,21.535Z" transform="translate(-119.032 -7.659)" fill="#231f20"/>
    <path id="Path_2203" data-name="Path 2203" d="M142.618,22.418h-.2V20.657h.255c.335,0,.643.09.643.486a.459.459,0,0,1-.439.485l.558.79H143.2l-.531-.774h-.05Zm0-.947h.061c.221,0,.446-.041.446-.315s-.213-.318-.448-.318h-.059Z" transform="translate(-118.985 -7.661)" fill="#231f20"/>
    <path id="Path_2204" data-name="Path 2204" d="M142.422,20.639H142.4v1.8h.232v-.774h.031c0,.013.517.765.517.765l.255.008h.038s-.539-.756-.567-.8a.476.476,0,0,0,.43-.5c0-.34-.217-.5-.663-.5Zm.255.036c.426,0,.626.149.626.469a.443.443,0,0,1-.424.468l-.033,0s.522.732.56.786h-.2c0-.013-.518-.765-.518-.765l-.065-.008H142.6V22.4h-.159V20.675Z" transform="translate(-118.985 -7.662)" fill="#231f20"/>
    <path id="Path_2205" data-name="Path 2205" d="M142.614,20.817H142.6v.671h.079c.217,0,.464-.039.464-.334s-.24-.336-.466-.336Zm.059.039c.227,0,.43.021.43.3s-.217.3-.428.3h-.042v-.594Z" transform="translate(-118.982 -7.658)" fill="#231f20"/>
    <path id="Path_2206" data-name="Path 2206" d="M145.185,20.657h.262l-.826.82.854.941H145.2l-.723-.808-.048.048v.76h-.2V20.657h.2v.754Z" transform="translate(-118.95 -7.661)" fill="#231f20"/>
    <path id="Path_2207" data-name="Path 2207" d="M145.447,20.639h-.27s-.668.67-.725.729v-.729h-.233v1.8h.233v-.776a.153.153,0,0,0,.03-.024l.708.794.285.006h.042s-.848-.934-.872-.958l.846-.84Zm-.044.036-.808.8.839.923H145.2c0-.009-.708-.8-.708-.8l-.012-.015-.063.063s0,.719,0,.754h-.16V20.675h.16v.782s.764-.771.774-.782Z" transform="translate(-118.95 -7.662)" fill="#231f20"/>
  </g>
  <g id="Group_5720" data-name="Group 5720" transform="translate(156.115 0.201)">
    <rect id="Rectangle_1941" data-name="Rectangle 1941" width="37.2" height="23.951" transform="translate(0.415 0.187)" fill="#cfd1d2"/>
    <path id="Path_2208" data-name="Path 2208" d="M198.319,7.906l-37.893,0V32.231h38.03V7.906Zm-.138.276V31.955H160.7c0-.271,0-23.5,0-23.771Z" transform="translate(-160.426 -7.906)" fill="#231f20"/>
    <g id="Group_5719" data-name="Group 5719" transform="translate(5.026 7.976)">
      <g id="Group_5718" data-name="Group 5718">
        <path id="Path_2209" data-name="Path 2209" d="M165.357,15.915a9.353,9.353,0,0,1,1.944-.183,3.345,3.345,0,0,1,2.249.6,1.736,1.736,0,0,1,.7,1.455,1.949,1.949,0,0,1-1.393,1.808v.037a2.1,2.1,0,0,1,1.7,2.054,2.168,2.168,0,0,1-.709,1.65,4.087,4.087,0,0,1-2.836.77,12.435,12.435,0,0,1-1.65-.1Zm1.064,3.373h.965c1.113,0,1.772-.6,1.772-1.393,0-.954-.722-1.344-1.8-1.344a4.557,4.557,0,0,0-.942.073Zm0,3.936a5.654,5.654,0,0,0,.892.049c1.1,0,2.115-.4,2.115-1.6,0-1.113-.965-1.59-2.127-1.59h-.88Z" transform="translate(-165.357 -15.732)" fill="#231f20"/>
        <path id="Path_2210" data-name="Path 2210" d="M173.206,21.439l-.856,2.591h-1.1l2.811-8.238h1.271l2.812,8.238h-1.136l-.881-2.591Zm2.713-.832-.818-2.371c-.184-.537-.306-1.027-.428-1.5h-.026c-.122.477-.244.991-.415,1.492l-.807,2.383Z" transform="translate(-165.244 -15.731)" fill="#231f20"/>
        <path id="Path_2211" data-name="Path 2211" d="M179.205,24.03V15.792h1.173l2.628,4.168a23.327,23.327,0,0,1,1.468,2.676l.036-.011c-.1-1.1-.121-2.1-.121-3.387V15.792h1V24.03h-1.076L181.7,19.85a23.884,23.884,0,0,1-1.528-2.75l-.037.011c.06,1.04.072,2.03.072,3.4v3.52Z" transform="translate(-165.091 -15.731)" fill="#231f20"/>
        <path id="Path_2212" data-name="Path 2212" d="M187.1,15.792h1.064v3.973h.037c.22-.318.44-.612.648-.88l2.518-3.093h1.319l-2.982,3.5,3.214,4.742h-1.259l-2.7-4.045-.794.9V24.03H187.1Z" transform="translate(-164.94 -15.731)" fill="#231f20"/>
      </g>
    </g>
  </g>
</svg>
