<?xml version="1.0" encoding="utf-8"?>
<!-- Generator: Adobe Illustrator 23.0.1, SVG Export Plug-In . SVG Version: 6.00 Build 0)  -->
<svg version="1.1" id="city" xmlns="http://www.w3.org/2000/svg" xmlns:xlink="http://www.w3.org/1999/xlink" x="0px" y="0px"
	 viewBox="0 0 80 80" style="enable-background:new 0 0 80 80;" xml:space="preserve">
<style type="text/css">
	.st0{fill:none;}
	.st1{fill:#FF3107;}
	.st2{enable-background:new    ;}
	.st3{fill:#FFFFFF;}
	.st4{fill:none;stroke:#FF3107;stroke-width:2;stroke-linecap:round;}
</style>
<g id="Group_1249" transform="translate(-895 -218)">
	<g id="Path_1973" transform="translate(895 218)">
		<path class="st0" d="M40,0c22.1,0,40,17.9,40,40S62.1,80,40,80S0,62.1,0,40S17.9,0,40,0z"/>
		<path class="st1" d="M40,2c-5.1,0-10.1,1-14.8,3c-4.5,1.9-8.6,4.7-12.1,8.1C9.6,16.6,6.9,20.7,5,25.2C3,29.9,2,34.9,2,40
			s1,10.1,3,14.8c1.9,4.5,4.7,8.6,8.1,12.1c3.5,3.5,7.6,6.2,12.1,8.1c4.7,2,9.7,3,14.8,3s10.1-1,14.8-3c4.5-1.9,8.6-4.7,12.1-8.1
			c3.5-3.5,6.2-7.6,8.1-12.1c2-4.7,3-9.7,3-14.8s-1-10.1-3-14.8c-1.9-4.5-4.7-8.6-8.1-12.1C63.4,9.6,59.3,6.9,54.8,5
			C50.1,3,45.1,2,40,2 M40,0c22.1,0,40,17.9,40,40S62.1,80,40,80S0,62.1,0,40S17.9,0,40,0z"/>
	</g>
	<g class="st2">
		<path class="st3" d="M935.9,269.8c-0.2-0.2-0.2-0.3-0.2-0.6v-17.1l-5,3.9c-0.1,0.1-0.3,0.2-0.5,0.2c-0.3,0-0.5-0.1-0.7-0.4
			l-1.4-1.8c-0.1-0.2-0.2-0.3-0.2-0.5c0-0.3,0.1-0.5,0.4-0.7l7.4-5.7c0.2-0.2,0.5-0.2,0.8-0.2h2.9c0.2,0,0.4,0.1,0.6,0.2
			c0.1,0.1,0.2,0.3,0.2,0.6v21.5c0,0.2-0.1,0.4-0.2,0.6c-0.1,0.2-0.3,0.2-0.6,0.2h-3C936.3,270,936.1,269.9,935.9,269.8z"/>
	</g>
</g>
<path id="Path_1963" class="st4" d="M15.8,69.5L36,62.8h34.2"/>
<path id="Path_1964" class="st4" d="M57,62.8L61.7,39l13.9-14.6"/>
<path id="Path_1965" class="st4" d="M66.3,34.2L45.6,17.7l4-15.1"/>
</svg>
