<svg id="family" xmlns="http://www.w3.org/2000/svg" width="44.128" height="44.135" viewBox="0 0 44.128 44.135">
  <path id="Path_2021" data-name="Path 2021" d="M15.448,24.215a.646.646,0,0,0,.061-1.29l-1.678-.161a4.105,4.105,0,0,1,.03-1.126,4.61,4.61,0,0,0,.487-.346c2.744-2.22,4.078-4.149,4.078-5.9,0-.179-.007-.359-.022-.535v-.01c-.016-.167-.027-.517-.034-.971h.58a2.214,2.214,0,0,0,1.7-3.638,12.078,12.078,0,0,0-.189-5.631c-.616-2-2.495-3.44-5.432-4.156C11.262-.467,6.59-.128,5.22,2.792A2.9,2.9,0,0,0,3.174,3.971c-1.106,1.478-1.156,4.072-.819,6.14a2.214,2.214,0,0,0,1.578,3.768h.531c-.011.458-.026.807-.043.982s-.022.346-.022.535c0,1.747,1.333,3.675,4.075,5.894a4.592,4.592,0,0,0,.461.33,4.085,4.085,0,0,1,.033,1.148l-6.456.66A2.782,2.782,0,0,0,.04,26.208v17.28a.646.646,0,0,0,1.293,0V26.2A1.49,1.49,0,0,1,2.65,24.713l6.29-.643a2.558,2.558,0,0,0,4.92,0l1.526.146c.021,0,.042,0,.062,0ZM19.87,11.664a.923.923,0,0,1-.922.922h-.591c0-.6,0-1.247,0-1.845h.591a.923.923,0,0,1,.921.923Zm-15.386.922H3.933a.923.923,0,0,1,0-1.845h.556C4.491,11.365,4.49,12,4.484,12.586ZM11.4,24.631a1.268,1.268,0,0,1-1.262-1.17,4.089,4.089,0,0,0,.148-1.268,4.626,4.626,0,0,0,1.117.137h.021a4.623,4.623,0,0,0,1.09-.131,4.082,4.082,0,0,0,.148,1.261,1.268,1.268,0,0,1-1.262,1.17Zm.021-3.593h-.015a3.362,3.362,0,0,1-2.117-.752c-2.353-1.9-3.6-3.595-3.6-4.89,0-.15.006-.292.017-.414.072-.733.092-3.811.056-5.729a1.058,1.058,0,0,1,.569-.964,7.02,7.02,0,0,1,.974-.333.646.646,0,1,0-.336-1.248,8.256,8.256,0,0,0-1.175.4l-.029.013a2.353,2.353,0,0,0-1.3,2.156q0,.082,0,.167H3.932a2.221,2.221,0,0,0-.364.03c-.215-1.664-.156-3.67.64-4.733A1.6,1.6,0,0,1,5.4,4.073a1.232,1.232,0,0,0,1-.742C7,2.061,8.543,1.585,9.736,1.41a13.545,13.545,0,0,1,4.981.3C16.44,2.13,18.62,3.041,19.223,5a10.387,10.387,0,0,1,.232,4.508,2.213,2.213,0,0,0-.506-.058H18.36q0-.086,0-.171a2.347,2.347,0,0,0-1.31-2.154l-.022-.01a16.3,16.3,0,0,0-7.055-.873.646.646,0,1,0,.087,1.29,15.26,15.26,0,0,1,6.43.759,1.051,1.051,0,0,1,.576.964c0,.005,0,.013,0,.018l.048,5.7c.011.139.017.282.017.424,0,1.3-1.244,2.987-3.6,4.893a3.358,3.358,0,0,1-2.113.75Z" transform="translate(-0.04)" fill="#fff"/>
  <path id="Path_2022" data-name="Path 2022" d="M284.559,26.691l-6.484-.7a.651.651,0,0,0-.152,0,4.129,4.129,0,0,1,.034-1.087,4.6,4.6,0,0,0,.487-.346c2.744-2.22,4.078-4.149,4.078-5.9,0-.179-.007-.359-.022-.535v-.01c-.016-.167-.027-.517-.034-.971h.58a2.215,2.215,0,0,0,0-4.431h-.589c0-.049,0-.1,0-.145h0V11.1a.646.646,0,1,0-1.293,0v.936a5.128,5.128,0,0,1-.8.063,5.063,5.063,0,0,1-4.279-2.343.647.647,0,0,0-.543-.3h-.086a.647.647,0,0,0-.542.3,5.063,5.063,0,0,1-4.279,2.342,5.133,5.133,0,0,1-.768-.058V7.914a2.431,2.431,0,0,1,2.428-2.43h6.274a2.6,2.6,0,0,1,2.6,2.6.646.646,0,1,0,1.293,0,3.9,3.9,0,0,0-3.246-3.841V3.863a3.783,3.783,0,0,0-7.567,0v.384a3.728,3.728,0,0,0-3.074,3.666v4.653s0,0,0,.005v.006l0,.134h-.543a2.215,2.215,0,0,0,0,4.431h.531c-.011.458-.025.808-.043.982s-.022.346-.022.535c0,1.747,1.333,3.675,4.075,5.894a4.579,4.579,0,0,0,.461.33,3.441,3.441,0,0,1-.051,1.513.646.646,0,0,0-.043.232,2.558,2.558,0,0,0,5.034.65l6.445.7a1.493,1.493,0,0,1,1.325,1.5v14.09a.646.646,0,0,0,1.293,0V29.475a2.784,2.784,0,0,0-2.475-2.784ZM282.455,14h.591a.923.923,0,0,1,0,1.845h-.591C282.454,15.248,282.454,14.6,282.455,14ZM272.937,3.864a2.491,2.491,0,0,1,4.981,0v.328h-4.981ZM268.581,15.85h-.551a.923.923,0,0,1,0-1.845h.555C268.588,14.628,268.587,15.265,268.581,15.85ZM275.5,27.895a1.268,1.268,0,0,1-1.262-1.17,4.088,4.088,0,0,0,.148-1.268,4.623,4.623,0,0,0,1.117.137h.021a4.625,4.625,0,0,0,1.09-.131,4.082,4.082,0,0,0,.148,1.261A1.268,1.268,0,0,1,275.5,27.895Zm.021-3.593h-.008a3.384,3.384,0,0,1-2.123-.753c-2.353-1.9-3.6-3.595-3.6-4.89,0-.15.006-.292.017-.414.062-.631.085-3.033.068-4.9a6.423,6.423,0,0,0,.758.045,6.345,6.345,0,0,0,4.865-2.256,6.345,6.345,0,0,0,4.865,2.256,6.416,6.416,0,0,0,.8-.05q0,.1,0,.211c0,1.917-.008,4.09.05,4.686.011.139.017.282.017.423,0,1.3-1.244,2.987-3.6,4.893a3.357,3.357,0,0,1-2.113.75Z" transform="translate(-242.906 -0.073)" fill="#fff"/>
  <path id="Path_2023" data-name="Path 2023" d="M173.443,257.988h-1.075a4.041,4.041,0,0,1,.049-1.15c1.622-1.391,2.411-2.629,2.411-3.775,0-.125-.005-.251-.015-.374v-.01c-.006-.062-.011-.166-.015-.3h0a1.78,1.78,0,1,0,.018-3.56h-.035a4.82,4.82,0,0,0-.322-1.581.646.646,0,1,0-1.206.466,3.539,3.539,0,0,1,.237,1.28l.033,3.817c.007.086.011.175.011.263,0,.784-.823,1.882-2.318,3.091a2.02,2.02,0,0,1-1.272.451h-.009a2.023,2.023,0,0,1-1.274-.453c-1.493-1.208-2.315-2.305-2.315-3.089,0-.094,0-.181.01-.255.049-.5.053-2.634.034-3.83a3.555,3.555,0,0,1,3.55-3.548,3.505,3.505,0,0,1,1.654.408.646.646,0,1,0,.6-1.143,4.844,4.844,0,0,0-7.1,4.122h-.038a1.78,1.78,0,1,0,.018,3.56h.006c0,.141-.01.248-.016.31-.01.117-.016.243-.016.375,0,1.147.791,2.385,2.413,3.776a4.041,4.041,0,0,1,.049,1.149h-.957a4.678,4.678,0,0,0-4.671,4.673v3.92a.646.646,0,1,0,1.293,0v-3.92a3.383,3.383,0,0,1,3.378-3.381h.907a2.558,2.558,0,0,0,4.952,0h1.024a3.383,3.383,0,0,1,3.378,3.381v3.92a.646.646,0,1,0,1.293,0v-3.92a4.677,4.677,0,0,0-4.671-4.673Zm1.341-7.878h.034a.485.485,0,0,1,.383.186.486.486,0,0,1-.4.789h-.016c0-.32,0-.655,0-.975Zm-9.675.975h-.026a.486.486,0,0,1-.4-.789.485.485,0,0,1,.383-.186h.046c0,.332,0,.663,0,.975Zm4.834,8.817a1.268,1.268,0,0,1-1.262-1.17,3.806,3.806,0,0,0,.148-1.025,3.3,3.3,0,0,0,1.106.192h.015a3.306,3.306,0,0,0,1.107-.192,3.8,3.8,0,0,0,.148,1.025,1.268,1.268,0,0,1-1.262,1.17Z" transform="translate(-147.938 -223.093)" fill="#fff"/>
  <path id="Path_2024" data-name="Path 2024" d="M111.708,187.088a.646.646,0,0,0-.646.646.737.737,0,1,1-1.475,0,.646.646,0,1,0-1.293,0,2.03,2.03,0,1,0,4.06,0A.646.646,0,0,0,111.708,187.088Z" transform="translate(-98.962 -170.961)" fill="#fff"/>
  <path id="Path_2025" data-name="Path 2025" d="M116.857,155.192a.646.646,0,0,0,.872-.274.144.144,0,0,1,.256,0,.646.646,0,0,0,1.146-.6,1.437,1.437,0,0,0-2.549,0,.647.647,0,0,0,.274.872Z" transform="translate(-106.469 -140.312)" fill="#fff"/>
  <path id="Path_2026" data-name="Path 2026" d="M358,224.1a.646.646,0,0,0-.646.646.737.737,0,1,1-1.475,0,.646.646,0,0,0-1.293,0,2.03,2.03,0,1,0,4.06,0A.646.646,0,0,0,358,224.1Z" transform="translate(-324.028 -204.783)" fill="#fff"/>
  <path id="Path_2027" data-name="Path 2027" d="M363.154,192.2a.646.646,0,0,0,.872-.275.144.144,0,0,1,.256,0,.646.646,0,0,0,1.146-.6,1.437,1.437,0,0,0-2.549,0A.647.647,0,0,0,363.154,192.2Z" transform="translate(-331.536 -174.133)" fill="#fff"/>
  <path id="Path_2028" data-name="Path 2028" d="M55.668,333.005a.646.646,0,0,0-.646.646v14.137a.646.646,0,1,0,1.293,0V333.651a.646.646,0,0,0-.646-.646Z" transform="translate(-50.282 -304.3)" fill="#fff"/>
  <path id="Path_2029" data-name="Path 2029" d="M442.626,370.016a.646.646,0,0,0-.646.646v10.946a.646.646,0,0,0,1.293,0V370.662A.646.646,0,0,0,442.626,370.016Z" transform="translate(-403.885 -338.121)" fill="#fff"/>
  <path id="Path_2030" data-name="Path 2030" d="M202.522,461.535a.646.646,0,0,0-.646.646v3.057a.646.646,0,0,0,1.293,0v-3.057a.646.646,0,0,0-.646-.646Z" transform="translate(-184.478 -421.75)" fill="#fff"/>
  <path id="Path_2031" data-name="Path 2031" d="M296.556,461.535a.646.646,0,0,0-.646.646v3.057a.646.646,0,0,0,1.293,0v-3.057a.646.646,0,0,0-.646-.646Z" transform="translate(-270.406 -421.75)" fill="#fff"/>
  <path id="Path_2032" data-name="Path 2032" d="M241.156,344.192a.144.144,0,0,1-.256,0,.646.646,0,1,0-1.146.6,1.437,1.437,0,0,0,2.549,0,.646.646,0,1,0-1.146-.6Z" transform="translate(-219.023 -314.205)" fill="#fff"/>
</svg>
