<svg id="favicon" xmlns="http://www.w3.org/2000/svg" xmlns:xlink="http://www.w3.org/1999/xlink" width="66.402" height="66.402" viewBox="0 0 66.402 66.402">
  <defs>
    <radialGradient id="radial-gradient" cx="0.674" cy="0.264" r="0.749" gradientTransform="translate(0)" gradientUnits="objectBoundingBox">
      <stop offset="0" stop-color="#f7941e"/>
      <stop offset="1" stop-color="#ed1c24"/>
    </radialGradient>
  </defs>
  <path id="Path_238" data-name="Path 238" d="M102.717,315.1,76.3,341.519a14.642,14.642,0,0,1-1.514-6.474v-8.321l19.774-19.774ZM86.024,298.412,74.788,309.647v12.458l17.464-17.464Zm3.494-15.038a14.73,14.73,0,0,0-14.73,14.73v6.923l21.653-21.653ZM114.077,340.1l22.077-22.077-8.718-8.719c-.341.765-.092,2.2.755,4.547-4.171-4.271-5.388-4.017-5.976,3.047-1.852-7.024-3.076-7.237-7.2-1.188,1.468-5.61,1.036-7.127-2.114-6.169L98.208,324.233ZM94.562,302.33l18.956-18.956H101.061L88.333,296.1Zm10.465,10.464,7.116-7.116a5.833,5.833,0,0,0-3.082-.748c3.1-2.015,2.849-3.231-.105-4.382,2.914-1.29,3.126-2.514-.123-4.578,4.143-.247,4.823-1.334,2.142-4.941,4.512,1.714,5.576,1,4.443-3.576,3.413,3.605,4.63,3.353,5.468-1.287,1.6,4.6,2.826,4.812,5.465,1.137-.136,1.893-.023,3.109.405,3.763l6.178-6.178a14.648,14.648,0,0,0-6.474-1.514h-8.32L96.872,304.641ZM95.9,326.544l-17.8,17.8a14.7,14.7,0,0,0,11.42,5.432h.35L104.5,335.145Zm39.859-39.86-5.707,5.708c-.71,2.32.272,3.028,3.13,2.9-2.492,2.435-2.239,3.652.481,4.66-2.68,1.432-2.892,2.656-.473,4.579-2.832.332-3.733,1.18-2.553,3.356L141.19,318.44V298.1A14.7,14.7,0,0,0,135.757,286.684Zm-19.37,55.729,7.363,7.363h2.709a14.73,14.73,0,0,0,14.73-14.73V323.061l-2.725-2.725Zm-7.363,7.363H119.13l-5.053-5.053Zm-2.216-12.321L94.488,349.776H104.4l7.363-7.363Zm20.4-44.537c-4.939,4.05-5.832,3.651-6.817-1.424-.988,5.074-1.88,5.474-6.13,2.522,2.957,4.245,2.557,5.137-2.548,6.114,5.105,1,5.5,1.889,2.553,6.1,4.244-2.921,5.137-2.521,6.106,2.462,1-4.984,1.9-5.383,6.909-1.374-3.721-5.3-3.321-6.195,4.1-7.243C123.962,299.153,123.562,298.26,127.209,292.917Z" transform="translate(-74.788 -283.374)" fill="url(#radial-gradient)"/>
</svg>
