<svg id="friends" xmlns="http://www.w3.org/2000/svg" width="49.812" height="47.089" viewBox="0 0 49.812 47.089">
  <path id="Path_2020" data-name="Path 2020" d="M7.347,22.8A3.556,3.556,0,0,0,10.7,25.225a3.555,3.555,0,0,0,3.541-3.538v-2a3.949,3.949,0,0,1-1.986-.325,6.6,6.6,0,0,1-.174.706,4.092,4.092,0,0,1-1.3,2.043,3.806,3.806,0,0,1-2.683.775A6.4,6.4,0,0,1,7.347,22.8Zm20.644-1.117V17.111a3.126,3.126,0,0,1,3.119-3.119h3.759a3.126,3.126,0,0,1,3.119,3.119v4.575a4.961,4.961,0,0,1-1.056,3.064,3.4,3.4,0,0,1,2.123,3.141v1.329h2V26.642a.732.732,0,0,1,.731-.731.723.723,0,0,1,.557.262l7.258,7.457a.729.729,0,0,1,0,1.015q-3.64,3.756-7.294,7.5a.727.727,0,0,1-1.029.017.735.735,0,0,1-.223-.524V39.055h-2v1.216a3.4,3.4,0,0,1-1.93,3.056,16.7,16.7,0,0,1,4.007,7.1,27.251,27.251,0,0,1,.662,9.989.726.726,0,0,1-.723.662H35.713a.73.73,0,0,1-.725-.816A26.116,26.116,0,0,0,34.24,51.6c-.144-.474-.306-.946-.494-1.423l-3.88,10.427a.728.728,0,0,1-.681.474H23.827a.727.727,0,0,1-.728-.728.74.74,0,0,1,.069-.314l2.645-7.1a.727.727,0,1,1,1.362.507l-2.3,6.18H28.68l4.194-11.274-2.4-3.792-2.151,5.789a.727.727,0,0,1-1.362-.507l2.352-6.329a3.413,3.413,0,0,1-1.4-.844,3.377,3.377,0,0,1-1-2.394V39.055H16.767v1.216a3.386,3.386,0,0,1-1.931,3.056,16.641,16.641,0,0,1,4.007,7.1,27.188,27.188,0,0,1,.665,9.989.728.728,0,0,1-.723.662H13.427a.73.73,0,0,1-.725-.816,26.114,26.114,0,0,0-.747-8.662c-.143-.474-.306-.946-.5-1.423L7.581,60.607a.73.73,0,0,1-.681.474H1.542a.73.73,0,0,1-.731-.728.74.74,0,0,1,.072-.314l2.642-7.1a.727.727,0,0,1,1.362.507l-2.3,6.18H6.4L10.59,48.349l-2.4-3.792L6.042,50.345a.728.728,0,0,1-1.365-.507l2.355-6.329a3.4,3.4,0,0,1-2.394-3.238V39.055H.731A.73.73,0,0,1,0,38.327V29.951a.732.732,0,0,1,.731-.731H4.639V27.891a3.377,3.377,0,0,1,1-2.394,3.333,3.333,0,0,1,1.128-.747,4.967,4.967,0,0,1-1.056-3.064V17.111a3.126,3.126,0,0,1,3.119-3.119h3.759A3.126,3.126,0,0,1,15.7,17.111v4.575a4.961,4.961,0,0,1-1.056,3.064,3.394,3.394,0,0,1,2.121,3.141v1.329h3.428a.731.731,0,0,1,0,1.462H13.756V37.6H29.938V30.682H23.5a.731.731,0,0,1,0-1.462h3.425V27.891a3.4,3.4,0,0,1,2.123-3.141,4.967,4.967,0,0,1-1.056-3.064Zm1.459-.405a5.422,5.422,0,0,0,1,.152,2.418,2.418,0,0,0,1.7-.455,2.7,2.7,0,0,0,.825-1.338,6.472,6.472,0,0,0,.245-1.525.728.728,0,0,1,1.216-.5,2.635,2.635,0,0,0,2.088.61V17.111a1.667,1.667,0,0,0-1.66-1.66H31.11a1.667,1.667,0,0,0-1.66,1.66v4.17Zm7.079-1.594a3.948,3.948,0,0,1-1.985-.325,6.6,6.6,0,0,1-.174.706,4.092,4.092,0,0,1-1.3,2.043,3.806,3.806,0,0,1-2.683.775,6.4,6.4,0,0,1-.753-.083,3.54,3.54,0,0,0,6.9-1.117v-2ZM14.244,18.22V17.111a1.667,1.667,0,0,0-1.66-1.66H8.825a1.667,1.667,0,0,0-1.66,1.66v4.17a5.355,5.355,0,0,0,1,.152,2.419,2.419,0,0,0,1.7-.455,2.705,2.705,0,0,0,.825-1.338,6.476,6.476,0,0,0,.245-1.525.727.727,0,0,1,1.238-.483,2.648,2.648,0,0,0,2.066.587Zm21.323,7.744a4.974,4.974,0,0,1-5.154,0,1.939,1.939,0,0,0-2.03,1.928v1.329h1.555v-.979a.729.729,0,0,1,1.459,0v9.548a1.593,1.593,0,0,0,3.185,0V28.242a.729.729,0,0,1,1.459,0v.979h1.553V27.891a1.934,1.934,0,0,0-2.027-1.928Zm-27.442,0A1.938,1.938,0,0,0,6.1,27.891v1.329H7.65v-.979a.731.731,0,0,1,1.462,0v9.547a1.589,1.589,0,0,0,2.716,1.122,1.58,1.58,0,0,0,.469-1.122V28.242a.729.729,0,0,1,1.459,0v.979h1.553V27.891a1.934,1.934,0,0,0-2.027-1.928,4.979,4.979,0,0,1-5.157,0ZM37.593,39.055H35.765a3.053,3.053,0,0,1-5.551,0H28.383v1.216A1.94,1.94,0,0,0,30.31,42.2h5.358a1.935,1.935,0,0,0,1.925-1.928V39.055ZM36.041,37.6h5.75a.728.728,0,0,1,.728.731v1.514l5.548-5.7-5.548-5.7v1.517a.73.73,0,0,1-.728.731h-5.75ZM15.308,39.055H13.48a3.094,3.094,0,0,1-.621.891,3.043,3.043,0,0,1-4.313,0,3.089,3.089,0,0,1-.618-.891H6.1v1.216A1.939,1.939,0,0,0,8.025,42.2h5.358a1.935,1.935,0,0,0,1.925-1.928V39.055ZM7.65,30.682H1.459V37.6H7.65V30.682ZM31.725,43.658a26.163,26.163,0,0,1,3.91,7.529,26.032,26.032,0,0,1,.83,8.436H40.4a25.131,25.131,0,0,0-.676-8.8,15.216,15.216,0,0,0-4.338-7.165Zm-22.285,0a26.168,26.168,0,0,1,3.91,7.529,26.184,26.184,0,0,1,.83,8.436h3.938a25.2,25.2,0,0,0-.676-8.8A15.238,15.238,0,0,0,13.1,43.658Z" transform="translate(0 -13.992)" fill="#fff"/>
</svg>
