<svg id="gift" xmlns="http://www.w3.org/2000/svg" width="54.304" height="51.971" viewBox="0 0 54.304 51.971">
  <path id="Path_2008" data-name="Path 2008" d="M42.629,82.735H14.074L38.8,67.013a.649.649,0,0,0,.2-.9h0l-2.45-3.853a3.925,3.925,0,0,0-5.412-1.205l-3.48,2.212.276-1.319A3.712,3.712,0,0,0,20.7,60.3l-.008.036-1.808,8.119-6.053-1.347a3.712,3.712,0,0,0-2.272,7.034l-3.728,2.37a3.925,3.925,0,0,0-1.205,5.412l2.45,3.853a.649.649,0,0,0,.9.2h0l2.28-1.45v16.431a3.925,3.925,0,0,0,3.921,3.921H39.358a3.925,3.925,0,0,0,3.921-3.921V83.384a.649.649,0,0,0-.649-.649ZM31.835,62.154a2.605,2.605,0,0,1,1.4-.41,2.65,2.65,0,0,1,.575.064,2.606,2.606,0,0,1,1.643,1.153l2.1,3.305-10.223,6.5-3.509-5.519Zm-9.88-1.533a2.414,2.414,0,0,1,4.711,1.057l-.533,2.549-5.806,3.7Zm.775,7.323,3.509,5.519-5.924,3.766L16.806,71.71ZM9.984,72.029a2.414,2.414,0,0,1,2.562-3.651l5.245,1.168L11.968,73.2,11.5,73.09A2.4,2.4,0,0,1,9.984,72.029ZM8.821,84.537l-2.1-3.305a2.626,2.626,0,0,1,.806-3.62l8.185-5.2,3.509,5.519Zm12.587,19.048H15.171a2.626,2.626,0,0,1-2.623-2.623V84.033h8.86Zm8.25,0H22.706V84.033h6.952Zm12.322-2.623a2.626,2.626,0,0,1-2.622,2.623h-8.4V84.033H41.98Z" transform="translate(-5.013 -52.912)" fill="#fff"/>
  <path id="Path_2009" data-name="Path 2009" d="M370.161,215.79l.31-1.81a.649.649,0,0,0-.941-.684l-1.626.855-1.626-.855a.649.649,0,0,0-.942.684l.31,1.81-1.315,1.282a.649.649,0,0,0,.36,1.107l1.817.264.813,1.647a.649.649,0,0,0,1.164,0l.813-1.647,1.817-.264a.649.649,0,0,0,.36-1.107Zm-1.387,1.417a.649.649,0,0,0-.489.355l-.382.774-.382-.774a.649.649,0,0,0-.489-.355l-.854-.124.618-.6a.649.649,0,0,0,.187-.575l-.146-.85.764.4a.648.648,0,0,0,.6,0l.764-.4-.146.85a.649.649,0,0,0,.187.575l.618.6Z" transform="translate(-325.287 -191.863)" fill="#fff"/>
  <path id="Path_2010" data-name="Path 2010" d="M431.023,133.13l-1.785-.434-.655-1.716a.649.649,0,0,0-1.159-.109l-.964,1.564-1.834.092a.649.649,0,0,0-.462,1.068l1.189,1.4-.479,1.773a.649.649,0,0,0,.873.77l1.7-.7,1.539,1a.649.649,0,0,0,1-.593l-.139-1.831,1.429-1.153a.649.649,0,0,0-.254-1.136Zm-2.256,1.493a.649.649,0,0,0-.24.554l.065.86-.723-.472a.649.649,0,0,0-.6-.057l-.8.328.225-.833a.649.649,0,0,0-.132-.589l-.559-.658.862-.043a.649.649,0,0,0,.52-.307l.453-.734.307.806a.649.649,0,0,0,.453.4l.839.2Z" transform="translate(-378.683 -118.146)" fill="#fff"/>
  <path id="Path_2011" data-name="Path 2011" d="M389.521,20.221l-.479,1.773a.649.649,0,0,0,.873.77l1.7-.7,1.538,1a.649.649,0,0,0,1-.593l-.139-1.831,1.43-1.153a.649.649,0,0,0-.254-1.136l-1.785-.434-.654-1.716a.649.649,0,0,0-1.159-.109l-.964,1.563-1.835.092a.649.649,0,0,0-.462,1.068Zm1.514-1.281a.649.649,0,0,0,.52-.308l.453-.734.307.806a.649.649,0,0,0,.453.4l.838.2-.672.542a.649.649,0,0,0-.24.554l.065.86-.723-.472a.649.649,0,0,0-.6-.057l-.8.328.225-.833a.649.649,0,0,0-.132-.59l-.559-.658Z" transform="translate(-346.727 -15.789)" fill="#fff"/>
  <path id="Path_2012" data-name="Path 2012" d="M272.685,227.76a7.466,7.466,0,0,0-2.211,2.087.649.649,0,1,0,1.1.7c.1-.151,2.446-3.7,7.557-2.437a.649.649,0,0,0,.312-1.26,8.482,8.482,0,0,0-6.754.915Z" transform="translate(-241.667 -203.739)" fill="#fff"/>
  <path id="Path_2013" data-name="Path 2013" d="M300.209,156.818a.649.649,0,0,0,.5-1.2,9.518,9.518,0,0,0-9.983,1.061,12.169,12.169,0,0,0-3.231,3.813.649.649,0,0,0,1.163.577,10.947,10.947,0,0,1,2.86-3.362c2.519-1.939,5.444-2.239,8.693-.891Z" transform="translate(-256.874 -139.672)" fill="#fff"/>
  <path id="Path_2014" data-name="Path 2014" d="M337.917,90a.649.649,0,0,0,.418.817,9.752,9.752,0,0,0,2.752.4,6.771,6.771,0,0,0,3.463-.862,6.162,6.162,0,0,0,2.805-4.414.649.649,0,1,0-1.274-.247v0a4.933,4.933,0,0,1-2.186,3.536c-2.155,1.282-5.113.364-5.16.349a.649.649,0,0,0-.817.418Z" transform="translate(-301.876 -77.657)" fill="#fff"/>
  <path id="Path_2015" data-name="Path 2015" d="M249.231,265.6a1.169,1.169,0,1,0-1.169-1.169h0A1.17,1.17,0,0,0,249.231,265.6Zm0-1.3a.129.129,0,1,1-.129.129h0A.13.13,0,0,1,249.231,264.3Z" transform="translate(-221.769 -236.49)" fill="#fff"/>
  <path id="Path_2016" data-name="Path 2016" d="M334.25,69.6a1.169,1.169,0,1,0-1.169-1.169A1.169,1.169,0,0,0,334.25,69.6Zm0-1.3a.129.129,0,1,1-.129.129h0A.13.13,0,0,1,334.25,68.3Z" transform="translate(-297.591 -61.693)" fill="#fff"/>
  <path id="Path_2017" data-name="Path 2017" d="M486.557,80.633a1.169,1.169,0,1,0,1.169,1.169h0A1.17,1.17,0,0,0,486.557,80.633Zm0,1.3a.129.129,0,1,1,.129-.129A.129.129,0,0,1,486.557,81.931Z" transform="translate(-433.422 -73.618)" fill="#fff"/>
  <path id="Path_2018" data-name="Path 2018" d="M235.17,214.39A1.169,1.169,0,1,0,234,215.559h0A1.17,1.17,0,0,0,235.17,214.39Zm-1.168.13a.129.129,0,1,1,.129-.13.129.129,0,0,1-.129.13Z" transform="translate(-208.187 -191.863)" fill="#fff"/>
  <path id="Path_2019" data-name="Path 2019" d="M468.763,230.812a1.169,1.169,0,1,0,1.169,1.169A1.169,1.169,0,0,0,468.763,230.812Zm0,1.3a.129.129,0,1,1,.129-.129A.129.129,0,0,1,468.763,232.11Z" transform="translate(-417.553 -207.551)" fill="#fff"/>
</svg>
