<svg id="help_map" xmlns="http://www.w3.org/2000/svg" width="83.748" height="83.75" viewBox="0 0 83.748 83.75">
  <g id="Group_1259" data-name="Group 1259">
    <path id="Path_1974" data-name="Path 1974" d="M74.181.256A4.479,4.479,0,0,0,68.217,4.51v8.58H33.75a4.468,4.468,0,0,0-3.181,1.317L27.3,17.679a2.047,2.047,0,0,1-2.892,0l-3.271-3.271a4.469,4.469,0,0,0-3.181-1.318H15.547V4.51a4.517,4.517,0,0,0-1.9-3.678A4.415,4.415,0,0,0,9.583.256,14.332,14.332,0,0,0,.008,13.766V69.438A14.329,14.329,0,0,0,14.32,83.751H47.785a4.468,4.468,0,0,0,3.181-1.317l3.272-3.271a2.046,2.046,0,0,1,2.892,0L60.4,82.433a4.469,4.469,0,0,0,3.181,1.317h5.863a14.222,14.222,0,0,0,8.26-2.623,1.227,1.227,0,1,0-1.418-2A11.778,11.778,0,0,1,69.443,81.3H63.581a2.03,2.03,0,0,1-1.446-.6l-3.271-3.271a4.5,4.5,0,0,0-6.362,0L49.231,80.7a2.031,2.031,0,0,1-1.446.6H14.32a11.86,11.86,0,0,1-2.391-23.477,4.512,4.512,0,0,0,3.618-4.386v-8.34a1.227,1.227,0,0,0-2.453,0v8.34a2.025,2.025,0,0,1-1.657,1.983,14.3,14.3,0,0,0-8.976,6.028V13.766A11.875,11.875,0,0,1,10.4,2.572a1.993,1.993,0,0,1,1.831.262,2.033,2.033,0,0,1,.868,1.677V40.187a1.227,1.227,0,1,0,2.453,0V15.543h2.407a2.03,2.03,0,0,1,1.446.6l3.272,3.271a4.5,4.5,0,0,0,6.361,0L32.3,16.142a2.031,2.031,0,0,1,1.446-.6H68.217v15.9a4.468,4.468,0,0,0,1.317,3.181L72.805,37.9a2.044,2.044,0,0,1,0,2.891L69.534,44.06a4.469,4.469,0,0,0-1.317,3.181v6.193a4.512,4.512,0,0,0,3.618,4.386A11.863,11.863,0,0,1,79.254,76.1a1.227,1.227,0,1,0,2.028,1.381,14.239,14.239,0,0,0,2.474-8.045V13.766A14.332,14.332,0,0,0,74.181.256Zm-1.854,55.16a2.025,2.025,0,0,1-1.656-1.983V47.241a2.031,2.031,0,0,1,.6-1.446l3.271-3.271a4.5,4.5,0,0,0,0-6.362l-3.271-3.271a2.058,2.058,0,0,1-.6-1.446V4.51A2.045,2.045,0,0,1,72.7,2.457a2.012,2.012,0,0,1,.666.115A11.875,11.875,0,0,1,81.3,13.766V61.444A14.294,14.294,0,0,0,72.326,55.417Z" transform="translate(-0.008 0)" fill="#fff"/>
    <path id="Path_1975" data-name="Path 1975" d="M144.772,151.691a6.134,6.134,0,1,0-6.134,6.134A6.141,6.141,0,0,0,144.772,151.691Zm-6.134,3.68a3.68,3.68,0,1,1,3.68-3.68A3.685,3.685,0,0,1,138.638,155.371Z" transform="translate(-110.831 -121.748)" fill="#fff"/>
    <path id="Path_1976" data-name="Path 1976" d="M333.136,317.737a1.227,1.227,0,0,0-1.735,0l-2.4,2.4-2.4-2.4a1.227,1.227,0,0,0-1.735,1.735l2.4,2.4-2.4,2.4a1.227,1.227,0,0,0,1.735,1.735l2.4-2.4,2.4,2.4a1.227,1.227,0,1,0,1.735-1.735l-2.4-2.4,2.4-2.4a1.227,1.227,0,0,0,0-1.735Z" transform="translate(-271.421 -265.463)" fill="#fff"/>
    <path id="Path_1977" data-name="Path 1977" d="M233.728,178.01h1.227a1.227,1.227,0,1,0,0-2.453h-1.227a1.227,1.227,0,0,0,0,2.453Z" transform="translate(-194.471 -146.84)" fill="#fff"/>
    <path id="Path_1978" data-name="Path 1978" d="M347.917,206.582h.062a1.227,1.227,0,0,0,1.224-1.166q.009-.189.01-.381a7.549,7.549,0,0,0-.406-2.449,1.227,1.227,0,0,0-2.322.794,5.1,5.1,0,0,1,.274,1.655q0,.13-.007.259a1.227,1.227,0,0,0,1.164,1.286Z" transform="translate(-289.755 -168.755)" fill="#fff"/>
    <path id="Path_1979" data-name="Path 1979" d="M274.329,176.784a1.226,1.226,0,0,0-1.227-1.227h-2.41a1.227,1.227,0,0,0,0,2.453h2.41A1.227,1.227,0,0,0,274.329,176.784Z" transform="translate(-225.389 -146.84)" fill="#fff"/>
    <path id="Path_1980" data-name="Path 1980" d="M285.149,254.273a1.227,1.227,0,0,0-1.227-1.227h-2.41a1.227,1.227,0,0,0,0,2.454h2.41A1.227,1.227,0,0,0,285.149,254.273Z" transform="translate(-234.44 -211.654)" fill="#fff"/>
    <path id="Path_1981" data-name="Path 1981" d="M317.175,178.891a1.227,1.227,0,0,0,.569-2.314,7.5,7.5,0,0,0-2.741-.82,1.227,1.227,0,1,0-.244,2.441,5.053,5.053,0,0,1,1.848.553,1.224,1.224,0,0,0,.567.14Z" transform="translate(-262.35 -147.003)" fill="#fff"/>
    <path id="Path_1982" data-name="Path 1982" d="M325.354,246.13a1.223,1.223,0,0,0,.455-.088,7.538,7.538,0,0,0,2.405-1.544,1.227,1.227,0,1,0-1.691-1.778,5.09,5.09,0,0,1-1.625,1.044,1.227,1.227,0,0,0,.456,2.366Z" transform="translate(-271.108 -202.734)" fill="#fff"/>
    <path id="Path_1983" data-name="Path 1983" d="M202.761,427.068a1.231,1.231,0,0,0,.331-.046,8.778,8.778,0,0,0,2.532-1.167,1.227,1.227,0,1,0-1.366-2.038,6.338,6.338,0,0,1-1.826.841,1.227,1.227,0,0,0,.329,2.408Z" transform="translate(-168.57 -354.318)" fill="#fff"/>
    <path id="Path_1984" data-name="Path 1984" d="M193.117,255.5h2.41a1.227,1.227,0,0,0,0-2.454h-2.41a1.227,1.227,0,0,0,0,2.454Z" transform="translate(-160.503 -211.654)" fill="#fff"/>
    <path id="Path_1985" data-name="Path 1985" d="M160.32,423.379a8.811,8.811,0,0,0,2.419,1.384,1.227,1.227,0,1,0,.866-2.3,6.365,6.365,0,0,1-1.746-1,1.227,1.227,0,1,0-1.539,1.911Z" transform="translate(-133.714 -352.3)" fill="#fff"/>
    <path id="Path_1986" data-name="Path 1986" d="M233.536,391.142a1.225,1.225,0,0,0,1.571-.735,8.8,8.8,0,0,0,.523-2.737,1.227,1.227,0,0,0-1.189-1.264H234.4a1.227,1.227,0,0,0-1.225,1.189,6.355,6.355,0,0,1-.377,1.976,1.227,1.227,0,0,0,.735,1.571Z" transform="translate(-194.66 -323.2)" fill="#fff"/>
    <path id="Path_1987" data-name="Path 1987" d="M143.731,298.794a1.227,1.227,0,0,0,1.227-1.227v-2.41a1.227,1.227,0,1,0-2.453,0v2.41A1.227,1.227,0,0,0,143.731,298.794Z" transform="translate(-119.195 -245.851)" fill="#fff"/>
    <path id="Path_1988" data-name="Path 1988" d="M142.5,341.765a1.227,1.227,0,1,0,2.453,0v-2.41a1.227,1.227,0,1,0-2.453,0Z" transform="translate(-119.195 -282.819)" fill="#fff"/>
    <path id="Path_1989" data-name="Path 1989" d="M153.9,261.039a5.109,5.109,0,0,1,1.508-1.21,1.227,1.227,0,0,0-1.147-2.169,7.558,7.558,0,0,0-2.229,1.788,1.227,1.227,0,0,0,1.868,1.591Z" transform="translate(-126.918 -215.394)" fill="#fff"/>
    <path id="Path_1990" data-name="Path 1990" d="M142.5,383.982a8.858,8.858,0,0,0,.295,2.271,1.227,1.227,0,0,0,2.372-.629,6.408,6.408,0,0,1-.213-1.642v-.431a1.227,1.227,0,1,0-2.453,0Z" transform="translate(-119.195 -319.786)" fill="#fff"/>
    <path id="Path_1991" data-name="Path 1991" d="M239.725,253.046h-2.41a1.227,1.227,0,0,0,0,2.454h2.41a1.227,1.227,0,0,0,0-2.454Z" transform="translate(-197.472 -211.654)" fill="#fff"/>
    <path id="Path_1992" data-name="Path 1992" d="M242.446,350.046a5.119,5.119,0,0,1,1.224-1.5,1.227,1.227,0,1,0-1.574-1.882,7.561,7.561,0,0,0-1.808,2.212,1.227,1.227,0,1,0,2.158,1.167Z" transform="translate(-200.86 -289.722)" fill="#fff"/>
    <path id="Path_1993" data-name="Path 1993" d="M278.226,339.83h1.227a1.227,1.227,0,0,0,0-2.454h-1.227a1.227,1.227,0,0,0,0,2.454Z" transform="translate(-231.69 -282.19)" fill="#fff"/>
  </g>
</svg>
