<svg id="help_friend" xmlns="http://www.w3.org/2000/svg" width="71.323" height="84.75" viewBox="0 0 71.323 84.75">
  <path id="Path_1994" data-name="Path 1994" d="M102.423,64.759a1.24,1.24,0,0,0-1.24,1.24v3.808H50.027V46.9l10.934.005a.415.415,0,0,1,.292.121l5.3,5.3A1.739,1.739,0,0,0,69.508,51.1V46.9h.018a4.553,4.553,0,0,0,4.548-4.548V11.318A4.553,4.553,0,0,0,69.526,6.77h-19.5V4.548a2.07,2.07,0,0,1,2.067-2.067H84.426a1.24,1.24,0,0,0,0-2.481H52.095a4.553,4.553,0,0,0-4.548,4.548V6.77H45.106a4.553,4.553,0,0,0-4.548,4.548v5.247a1.24,1.24,0,0,0,2.481,0V11.318A2.07,2.07,0,0,1,45.106,9.25H69.527a2.07,2.07,0,0,1,2.067,2.067V42.354a2.07,2.07,0,0,1-2.067,2.067h-.6a1.9,1.9,0,0,0-1.9,1.9v2.966l-4.02-4.02a2.875,2.875,0,0,0-2.046-.848c-4.263,0-15.279-.007-16.084-.014a2.054,2.054,0,0,1-1.838-2.053v-19.9a1.24,1.24,0,0,0-2.481,0v19.9a4.522,4.522,0,0,0,4.136,4.528h0c.088,0,.453.009,2.853.012V80.2a4.553,4.553,0,0,0,4.548,4.548H99.116a4.553,4.553,0,0,0,4.548-4.548V66a1.24,1.24,0,0,0-1.24-1.24ZM101.183,80.2a2.07,2.07,0,0,1-2.067,2.067H52.095A2.07,2.07,0,0,1,50.027,80.2V72.288h51.155Z" transform="translate(-40.558)" fill="#fff"/>
  <path id="Path_1995" data-name="Path 1995" d="M221.867,463.849h8a1.24,1.24,0,1,0,0-2.481h-8a1.24,1.24,0,1,0,0,2.481Z" transform="translate(-190.82 -384.999)" fill="#fff"/>
  <path id="Path_1996" data-name="Path 1996" d="M297.928,21.214h-3.67V4.548A4.553,4.553,0,0,0,289.71,0h-8.253a1.24,1.24,0,0,0,0,2.481h8.253a2.07,2.07,0,0,1,2.067,2.067V21.214h-18.27a4.553,4.553,0,0,0-4.548,4.548V56.8a4.553,4.553,0,0,0,4.548,4.548h.018v4.311a1.739,1.739,0,0,0,2.951,1.222l5.413-5.413a.411.411,0,0,1,.292-.121h15.747a4.553,4.553,0,0,0,4.548-4.548V25.762a4.553,4.553,0,0,0-4.548-4.548ZM299.995,56.8a2.07,2.07,0,0,1-2.067,2.067H282.181a2.876,2.876,0,0,0-2.046.848l-4.129,4.129V60.767a1.9,1.9,0,0,0-1.9-1.9h-.6a2.07,2.07,0,0,1-2.067-2.067V25.762a2.07,2.07,0,0,1,2.067-2.067h24.421a2.07,2.07,0,0,1,2.067,2.067Z" transform="translate(-231.152)" fill="#fff"/>
  <path id="Path_1997" data-name="Path 1997" d="M128.27,194.074h-6.146a.238.238,0,0,0-.224.316,3.492,3.492,0,0,0,6.594,0A.238.238,0,0,0,128.27,194.074Z" transform="translate(-108.424 -161.949)" fill="#fff"/>
  <path id="Path_1998" data-name="Path 1998" d="M158.84,155.883a1.365,1.365,0,1,0,1.365,1.365A1.365,1.365,0,0,0,158.84,155.883Z" transform="translate(-138.122 -130.08)" fill="#fff"/>
  <path id="Path_1999" data-name="Path 1999" d="M112.538,157.248a1.365,1.365,0,1,0-1.365,1.365A1.365,1.365,0,0,0,112.538,157.248Z" transform="translate(-98.345 -130.08)" fill="#fff"/>
  <path id="Path_2000" data-name="Path 2000" d="M85.312,78.443H70.931a3.1,3.1,0,0,0-3.1,3.1v8.3a2.735,2.735,0,0,0-2.425,2.714V93.5a4.415,4.415,0,0,0,2.884,4.132,10.461,10.461,0,0,0,2.781,4.522l2.1,2.011a7.139,7.139,0,0,0,9.888,0l2.1-2.011a10.461,10.461,0,0,0,2.781-4.522A4.415,4.415,0,0,0,90.833,93.5v-.945a2.735,2.735,0,0,0-2.425-2.714v-8.3A3.1,3.1,0,0,0,85.312,78.443Zm-14.994,3.1a.613.613,0,0,1,.613-.613H85.312a.613.613,0,0,1,.613.613v3.452a19.56,19.56,0,0,0-15.607,0V81.539ZM88.35,93.5A1.925,1.925,0,0,1,86.8,95.385a1.409,1.409,0,0,0-1.1,1.051,7.99,7.99,0,0,1-2.25,3.924l-2.1,2.011a4.661,4.661,0,0,1-6.455,0l-2.1-2.011a7.99,7.99,0,0,1-2.251-3.925,1.409,1.409,0,0,0-1.1-1.051A1.925,1.925,0,0,1,67.893,93.5v-.945a.249.249,0,0,1,.248-.248h.935a1.241,1.241,0,0,0,1.241-1.241V87.749a16.98,16.98,0,0,1,15.607,0v3.318a1.241,1.241,0,0,0,1.241,1.241H88.1a.249.249,0,0,1,.248.248Z" transform="translate(-61.296 -65.458)" fill="#fff"/>
  <g id="Group_1261" data-name="Group 1261" transform="translate(51.104 46.417)">
    <path id="Path_2001" data-name="Path 2001" d="M349.53,280.421a.238.238,0,0,0-.224.316,3.489,3.489,0,0,0,6.588,0,.238.238,0,0,0-.224-.316Z" transform="translate(-349.293 -280.421)" fill="#fff"/>
  </g>
  <g id="Group_1262" data-name="Group 1262" transform="translate(56.99 40.102)">
    <ellipse id="Ellipse_46" data-name="Ellipse 46" cx="1.364" cy="1.364" rx="1.364" ry="1.364" fill="#fff"/>
  </g>
  <g id="Group_1263" data-name="Group 1263" transform="translate(49.107 40.102)">
    <ellipse id="Ellipse_47" data-name="Ellipse 47" cx="1.364" cy="1.364" rx="1.364" ry="1.364" fill="#fff"/>
  </g>
  <path id="Path_2002" data-name="Path 2002" d="M315.48,175.293v-3.629a8.111,8.111,0,0,0-8.1-8.1H303.01a8.111,8.111,0,0,0-8.1,8.1v3.629a2.735,2.735,0,0,0-2.425,2.714v.945a4.376,4.376,0,0,0,2.884,4.134,10.472,10.472,0,0,0,2.78,4.521l2.1,2.011a7.139,7.139,0,0,0,9.888,0l2.1-2.012a10.469,10.469,0,0,0,2.78-4.521,4.375,4.375,0,0,0,2.884-4.134v-.945a2.736,2.736,0,0,0-2.425-2.714Zm-12.471-9.247h4.369a5.621,5.621,0,0,1,4.861,2.806,4.535,4.535,0,0,0-1.311-.193H299.46a4.54,4.54,0,0,0-1.311.193,5.62,5.62,0,0,1,4.861-2.806Zm12.413,12.906a1.91,1.91,0,0,1-1.5,1.873,1.558,1.558,0,0,0-1.169,1.151,8,8,0,0,1-2.229,3.836l-2.1,2.011a4.661,4.661,0,0,1-6.455,0l-2.1-2.011a8,8,0,0,1-2.228-3.835,1.557,1.557,0,0,0-1.17-1.152,1.934,1.934,0,0,1-1.5-1.873v-.944a.249.249,0,0,1,.248-.248h.77a1.409,1.409,0,0,0,1.407-1.407v-3.141a2.071,2.071,0,0,1,2.069-2.069h11.468A2.071,2.071,0,0,1,313,173.211v3.141a1.409,1.409,0,0,0,1.407,1.407h.77a.249.249,0,0,1,.248.248v.944Z" transform="translate(-250.782 -136.489)" fill="#fff"/>
</svg>
