<svg xmlns="http://www.w3.org/2000/svg" width="85.843" height="82.464" viewBox="0 0 85.843 82.464">
  <g id="help_stranger" transform="translate(0 0)">
    <path id="Path_2003" data-name="Path 2003" d="M63.065,64.046H59.557c-2.928,0-5.18,2.424-7.319,4.734-.542.58-1.074,1.15-1.545,1.621a1.251,1.251,0,0,1-1.778,0l-4.943-4.943a3.4,3.4,0,1,0-4.81,4.814l2.106,2.106a1.259,1.259,0,1,1-1.782,1.778l-2.1-2.106a5.916,5.916,0,0,1,8.365-8.369l4.04,4.04c.209-.219.409-.433.608-.651,2.5-2.7,5.142-5.537,9.158-5.537h.965a9.425,9.425,0,0,1-1.668-5.356V47.365A5.874,5.874,0,0,1,64.719,41.5h7.238a5.874,5.874,0,0,1,5.865,5.865v8.812a9.425,9.425,0,0,1-1.668,5.356H77.18A8.681,8.681,0,0,1,85.844,70.2V91.289a1.254,1.254,0,0,1-1.255,1.255H58.421a1.258,1.258,0,0,1-1.259-1.255V77.116l-3.17,3.17a5.927,5.927,0,0,1-8.37,0l-2.105-2.105A1.257,1.257,0,1,1,45.294,76.4L47.4,78.509a3.414,3.414,0,0,0,4.814,0l5.318-5.318a1.255,1.255,0,0,1,2.144.889v15.95h15.29V73.723a1.257,1.257,0,1,1,2.514,0V90.029H83.33V70.2a6.166,6.166,0,0,0-6.15-6.15l-3.565,0a9.432,9.432,0,0,1-10.551,0ZM23.684,53.671,15.3,50.829,9.749,53.548v2.628a6.967,6.967,0,0,0,13.935,0ZM9.749,50.758l4.843-2.367a1.243,1.243,0,0,1,1.027-.1l8.065,2.733V47.364a3.359,3.359,0,0,0-3.346-3.351H13.095a3.367,3.367,0,0,0-3.346,3.351Zm65.554,2.6a10.49,10.49,0,0,1-8.964-2.352,7.722,7.722,0,0,1-4.967,1.145v4.021a6.965,6.965,0,0,0,13.93,0V53.362Zm-13.93-3.74a5.14,5.14,0,0,0,4.292-1.207,1.255,1.255,0,0,1,1.768.128,7.958,7.958,0,0,0,7.87,2.272V47.365a3.359,3.359,0,0,0-3.346-3.351H64.719a3.367,3.367,0,0,0-3.346,3.351ZM26.2,56.176a9.422,9.422,0,0,1-1.663,5.356h.233A8.682,8.682,0,0,1,33.432,70.2V91.289a1.254,1.254,0,0,1-1.255,1.255H1.261A1.258,1.258,0,0,1,0,91.289V70.2a8.69,8.69,0,0,1,8.664-8.664H8.9a9.425,9.425,0,0,1-1.668-5.356V47.365a5.874,5.874,0,0,1,5.86-5.865h7.243a5.874,5.874,0,0,1,5.86,5.865v8.812ZM22,64.042a9.427,9.427,0,0,1-10.556,0l-2.775,0a6.174,6.174,0,0,0-6.15,6.15V90.029H8.366V73.723a1.257,1.257,0,1,1,2.514,0V90.029H22.553V73.723a1.259,1.259,0,1,1,2.519,0V90.029h5.846V70.2a6.166,6.166,0,0,0-6.15-6.15ZM50.028,18.611a1.257,1.257,0,0,1,0-2.514H76.719a1.257,1.257,0,0,1,0,2.514Zm0,10.732a1.257,1.257,0,0,1,0-2.514H70.964a1.257,1.257,0,0,1,0,2.514Zm0-5.366a1.257,1.257,0,0,1,0-2.514H76.719a1.257,1.257,0,0,1,0,2.514ZM13.855,19.866a1.257,1.257,0,1,1-2.514,0,5.376,5.376,0,1,1,6.635,5.228,1.258,1.258,0,0,1-2.514-.062V23.986a1.258,1.258,0,0,1,1.255-1.259,2.856,2.856,0,1,0-2.861-2.861Zm1.606,9.657a1.257,1.257,0,0,1,2.514,0v.77a1.257,1.257,0,0,1-2.514,0ZM66.22,12.594a1.257,1.257,0,0,1,0-2.514H81.962a3.894,3.894,0,0,1,3.883,3.888v17.5a3.894,3.894,0,0,1-3.883,3.888H60.66L57.238,39.9a1.253,1.253,0,0,1-2.02-.024l-3.4-4.52H44.786A3.894,3.894,0,0,1,40.9,31.472v-17.5a3.894,3.894,0,0,1,3.883-3.888H60.527a1.257,1.257,0,0,1,0,2.514H44.786a1.379,1.379,0,0,0-1.369,1.373v17.5a1.379,1.379,0,0,0,1.369,1.374h7.647a1.249,1.249,0,0,1,1,.5l2.8,3.717,2.733-3.626a1.26,1.26,0,0,1,1.069-.594H81.961a1.379,1.379,0,0,0,1.369-1.374v-17.5a1.379,1.379,0,0,0-1.369-1.373H66.22Zm-46.653,0a1.257,1.257,0,1,1,0-2.514h6.825A3.927,3.927,0,0,1,30.314,14V31.439a3.927,3.927,0,0,1-3.921,3.921H21.141L17.719,39.9a1.253,1.253,0,0,1-2.02-.024l-3.4-4.52H7.045a3.927,3.927,0,0,1-3.921-3.921V14A3.927,3.927,0,0,1,7.045,10.08h6.825a1.257,1.257,0,1,1,0,2.514H7.045a1.421,1.421,0,0,0-.993.413A1.4,1.4,0,0,0,5.638,14V31.438a1.4,1.4,0,0,0,.413.993,1.422,1.422,0,0,0,.993.413h5.87a1.249,1.249,0,0,1,1,.5l2.8,3.717,2.733-3.626a1.26,1.26,0,0,1,1.069-.594h5.874A1.412,1.412,0,0,0,27.8,31.438V14a1.412,1.412,0,0,0-1.407-1.407Z" transform="translate(-0.001 -10.08)" fill="#fff"/>
  </g>
</svg>
