<svg xmlns="http://www.w3.org/2000/svg" width="77.59" height="84.75" viewBox="0 0 77.59 84.75">
  <g id="help_browser" transform="translate(0)">
    <path id="Path_1966" data-name="Path 1966" d="M52.257,93.534H35.883a4.209,4.209,0,0,1-4.2-4.2v-4.6a4.969,4.969,0,0,0,1.129.133,5.052,5.052,0,0,0,1.37-.189v4.66a1.708,1.708,0,0,0,1.706,1.706H51.929a1.249,1.249,0,0,0,0-2.5H36.676v-5.5l.025-.03a5.01,5.01,0,0,0-.4-6.747,5,5,0,0,0,1.72-8.272,5,5,0,0,0,1.392-8.565L36.676,57.2V32.692h5.532l.036.113a3.133,3.133,0,0,0,3,2.193H54.9a3.133,3.133,0,0,0,3-2.193l.036-.113H62.9V50.031a1.249,1.249,0,0,0,2.5,0V31.9a1.708,1.708,0,0,0-1.706-1.706h-6.1a2.032,2.032,0,0,0-1.943,1.422l-.138.434a.643.643,0,0,1-.615.45H45.241a.643.643,0,0,1-.615-.45l-.138-.434a2.031,2.031,0,0,0-1.943-1.422H35.883A1.708,1.708,0,0,0,34.177,31.9V55.18a4.962,4.962,0,0,0-2.5-.967V41.5a1.249,1.249,0,0,0-2.5-.012,5,5,0,0,0-5.7,8.194l5.7,4.629v.3A5,5,0,0,0,27.7,62.784a5.005,5.005,0,0,0-1.715,8.277A5,5,0,0,0,24.6,79.625l4.582,3.721v5.983a6.711,6.711,0,0,0,6.7,6.7H52.257a1.249,1.249,0,1,0,0-2.5Zm-27.2-45.8a2.505,2.505,0,1,1,3.159-3.89l.966.784v6.455Zm4.191,9.878a2.5,2.5,0,0,1,3.525-.365l5.065,4.113a2.505,2.505,0,1,1-3.159,3.89L29.612,61.14a2.505,2.505,0,0,1-.366-3.524Zm-1.72,8.273a2.5,2.5,0,0,1,3.458-.414L33.1,67.193c.024.02.049.036.073.055l2.941,2.388a2.506,2.506,0,1,1-3.159,3.89l-5.065-4.113a2.508,2.508,0,0,1-.365-3.524ZM25.26,76a2.5,2.5,0,0,1,4-2.26l2.126,1.727c.024.02.05.036.075.055L34.4,77.908a2.506,2.506,0,1,1-3.159,3.89l-5.065-4.113A2.487,2.487,0,0,1,25.26,76Z" transform="translate(-21.63 -25.195)" fill="#fff"/>
    <path id="Path_1967" data-name="Path 1967" d="M68.49,12.226a1.249,1.249,0,0,0,1.249-1.249V6.7a4.209,4.209,0,0,1,4.2-4.2H101.75a4.209,4.209,0,0,1,4.2,4.2V29.759a1.249,1.249,0,1,0,2.5,0V6.7a6.711,6.711,0,0,0-6.7-6.7H73.944a6.711,6.711,0,0,0-6.7,6.7v4.273a1.249,1.249,0,0,0,1.249,1.25Z" transform="translate(-59.691)" fill="#fff"/>
    <path id="Path_1968" data-name="Path 1968" d="M434.5,446.8l-8.524-10.027a1.249,1.249,0,0,0-1.9,1.619l8.524,10.027a1.249,1.249,0,1,0,1.9-1.618Z" transform="translate(-357.212 -364.104)" fill="#fff"/>
    <path id="Path_1969" data-name="Path 1969" d="M239.666,218.318a1.248,1.248,0,0,0-.792-.473,10.718,10.718,0,0,1-8.742-8.38l-.46-2.243a10.656,10.656,0,0,1,1.181-7.424l6.181-10.843a3.976,3.976,0,0,0-.32-4.429l-5.789-7.426a5.773,5.773,0,0,1,.2-7.332l.309-.355a.647.647,0,0,1,.479-.224.638.638,0,0,1,.487.2l5.524,5.861a1.25,1.25,0,0,0,1.818-1.714l-5.524-5.861a3.151,3.151,0,0,0-4.668.09l-.309.355a8.276,8.276,0,0,0-.289,10.511l5.789,7.426a1.486,1.486,0,0,1,.12,1.655l-6.181,10.843a13.153,13.153,0,0,0-1.458,9.164l.46,2.242a13.234,13.234,0,0,0,10.292,10.254l2.406,3.139a1.249,1.249,0,0,0,1.983-1.52Z" transform="translate(-192.967 -139.099)" fill="#fff"/>
    <path id="Path_1970" data-name="Path 1970" d="M327.068,256a1.768,1.768,0,0,1-.421-1.144v-6.432a17.537,17.537,0,0,0-4.793-12.073l-6.44-6.832a1.25,1.25,0,1,0-1.818,1.714l6.439,6.832a15.046,15.046,0,0,1,4.112,10.359v6.432a4.271,4.271,0,0,0,1.016,2.763l3.224,3.793a1.249,1.249,0,1,0,1.9-1.618Z" transform="translate(-264.984 -191.202)" fill="#fff"/>
    <path id="Path_1971" data-name="Path 1971" d="M164.147,82.242a5.811,5.811,0,1,0,2.718,10.946l1.918,1.918a1.249,1.249,0,0,0,1.767-1.767l-1.776-1.775a5.808,5.808,0,0,0-4.628-9.322Zm-3.312,5.811a3.312,3.312,0,1,1,3.312,3.312A3.316,3.316,0,0,1,160.835,88.053Z" transform="translate(-135.707 -68.629)" fill="#fff"/>
    <path id="Path_1972" data-name="Path 1972" d="M149.224,296.552h-9.772a.366.366,0,0,1-.366-.366V290.84a.366.366,0,0,1,.366-.366h12.542a1.249,1.249,0,0,0,0-2.5H139.452a2.868,2.868,0,0,0-2.865,2.865v5.346a2.868,2.868,0,0,0,2.865,2.865h9.772a1.249,1.249,0,1,0,0-2.5Z" transform="translate(-117.558 -240.307)" fill="#fff"/>
  </g>
</svg>
