<?xml version="1.0" encoding="utf-8"?>
<!-- Generator: Adobe Illustrator 23.0.1, SVG Export Plug-In . SVG Version: 6.00 Build 0)  -->
<svg version="1.1" id="hours" xmlns="http://www.w3.org/2000/svg" xmlns:xlink="http://www.w3.org/1999/xlink" x="0px" y="0px"
	 viewBox="0 0 80 80" style="enable-background:new 0 0 80 80;" xml:space="preserve">
<style type="text/css">
	.st0{fill:none;}
	.st1{fill:#FF3107;}
	.st2{enable-background:new    ;}
	.st3{fill:#FFFFFF;}
	.st4{fill:none;stroke:#FF3107;stroke-width:2;stroke-linecap:round;}
</style>
<g id="Group_1250" transform="translate(-982 -218)">
	<g id="Path_10998" transform="translate(982 218)">
		<path class="st0" d="M40,0c22.1,0,40,17.9,40,40S62.1,80,40,80S0,62.1,0,40S17.9,0,40,0z"/>
		<path class="st1" d="M40,2c-5.1,0-10.1,1-14.8,3c-4.5,1.9-8.6,4.7-12.1,8.1C9.6,16.6,6.9,20.7,5,25.2C3,29.9,2,34.9,2,40
			s1,10.1,3,14.8c1.9,4.5,4.7,8.6,8.1,12.1c3.5,3.5,7.6,6.2,12.1,8.1c4.7,2,9.7,3,14.8,3s10.1-1,14.8-3c4.5-1.9,8.6-4.7,12.1-8.1
			c3.5-3.5,6.2-7.6,8.1-12.1c2-4.7,3-9.7,3-14.8s-1-10.1-3-14.8c-1.9-4.5-4.7-8.6-8.1-12.1C63.4,9.6,59.3,6.9,54.8,5
			C50.1,3,45.1,2,40,2 M40,0c22.1,0,40,17.9,40,40S62.1,80,40,80S0,62.1,0,40S17.9,0,40,0z"/>
	</g>
	<g class="st2">
		<path class="st3" d="M1016.9,269.4c-1.4-0.6-2.4-1.4-3-2.3c-0.7-0.9-1-1.9-1.1-2.9c0-0.2,0.1-0.4,0.2-0.5c0.1-0.1,0.3-0.2,0.5-0.2
			h3c0.5,0,0.8,0.2,1,0.7c0.5,1.6,2,2.4,4.4,2.4c1.3,0,2.4-0.3,3.2-0.9c0.8-0.6,1.2-1.5,1.2-2.7c0-2.2-1.4-3.3-4.1-3.3h-3.4
			c-0.2,0-0.4-0.1-0.6-0.2c-0.2-0.2-0.2-0.3-0.2-0.6v-1.4c0-0.4,0.2-0.7,0.5-1l5.9-5.8h-9.4c-0.2,0-0.4-0.1-0.6-0.2
			c-0.2-0.2-0.2-0.3-0.2-0.6v-2.2c0-0.2,0.1-0.4,0.2-0.6c0.1-0.2,0.3-0.2,0.6-0.2h14.2c0.2,0,0.4,0.1,0.6,0.2
			c0.2,0.2,0.2,0.4,0.2,0.6v2c0,0.3-0.1,0.6-0.4,0.9l-5.7,5.9l0.4,0c2.1,0.2,3.8,0.8,5,1.9c1.2,1.1,1.9,2.7,1.9,4.7
			c0,1.5-0.4,2.7-1.2,3.8c-0.8,1.1-1.9,1.9-3.2,2.5c-1.4,0.6-2.9,0.9-4.7,0.9C1019.9,270.3,1018.3,270,1016.9,269.4z"/>
	</g>
</g>
<line id="Line_46" class="st4" x1="40.5" y1="2.5" x2="40.5" y2="10.5"/>
<line id="Line_49" class="st4" x1="10.5" y1="40.5" x2="2.5" y2="40.5"/>
<line id="Line_50" class="st4" x1="77.5" y1="40.5" x2="69.5" y2="40.5"/>
<line id="Line_47" class="st4" x1="40.5" y1="69.5" x2="40.5" y2="77.5"/>
</svg>
