<svg id="logo" xmlns="http://www.w3.org/2000/svg" xmlns:xlink="http://www.w3.org/1999/xlink" width="324.116" height="66.402" viewBox="0 0 324.116 66.402">
  <defs>
    <radialGradient id="radial-gradient" cx="0.674" cy="0.264" r="0.749" gradientTransform="translate(0)" gradientUnits="objectBoundingBox">
      <stop offset="0" stop-color="#f7941e"/>
      <stop offset="1" stop-color="#ed1c24"/>
    </radialGradient>
  </defs>
  <g id="Group_230" data-name="Group 230" transform="translate(82.393 2.71)">
    <g id="Group_228" data-name="Group 228" transform="translate(0 0)">
      <path id="Path_216" data-name="Path 216" d="M262.691,311.11a7.673,7.673,0,0,1,5,2.7,8.929,8.929,0,0,1,2.08,6.127,9.725,9.725,0,0,1-3.064,7.533q-3.064,2.81-8.854,2.811H240.132V292.615h17.331a11.6,11.6,0,0,1,8.151,2.782,9.547,9.547,0,0,1,3.036,7.392,8.312,8.312,0,0,1-1.827,5.509,6.883,6.883,0,0,1-4.132,2.586Zm-16.544-2.193h10.642a6.005,6.005,0,0,0,4.356-1.6,5.561,5.561,0,0,0,1.658-4.188,4.939,4.939,0,0,0-1.658-3.851,6.192,6.192,0,0,0-4.3-1.489h-10.7Zm11.091,16.19a6.57,6.57,0,0,0,4.666-1.574,5.42,5.42,0,0,0,1.687-4.159,5.222,5.222,0,0,0-1.715-4.076,6.417,6.417,0,0,0-4.469-1.546h-11.26v11.355Z" transform="translate(-240.132 -290.719)" fill="#ed1c24"/>
      <path id="Path_217" data-name="Path 217" d="M327.818,315.078a14.929,14.929,0,0,1-.028,21,14.79,14.79,0,0,1-10.569,4.1,14.958,14.958,0,0,1-10.652-4.1,14.827,14.827,0,0,1,0-21A15.015,15.015,0,0,1,317.221,311,14.821,14.821,0,0,1,327.818,315.078Zm-4.132,17.371a9.986,9.986,0,0,0,0-13.773,9.263,9.263,0,0,0-13.014,0,10.061,10.061,0,0,0,0,13.773,9.264,9.264,0,0,0,13.014,0Z" transform="translate(-271.277 -299.944)" fill="#ed1c24"/>
      <path id="Path_218" data-name="Path 218" d="M376.6,315.078a14.929,14.929,0,0,1-.028,21,14.789,14.789,0,0,1-10.568,4.1,14.96,14.96,0,0,1-10.653-4.1,14.827,14.827,0,0,1,0-21A15.018,15.018,0,0,1,366,311,14.82,14.82,0,0,1,376.6,315.078Zm-4.132,17.371a9.986,9.986,0,0,0,0-13.773,9.263,9.263,0,0,0-13.014,0,10.059,10.059,0,0,0,0,13.773,9.264,9.264,0,0,0,13.014,0Z" transform="translate(-295.748 -299.944)" fill="#ed1c24"/>
      <path id="Path_219" data-name="Path 219" d="M458.083,313.7a10.6,10.6,0,0,1,3.064,7.87v17.764h-5.79V322.75a6.688,6.688,0,0,0-1.771-4.863,6.028,6.028,0,0,0-4.525-1.827,6.807,6.807,0,0,0-5.509,2.417q-2.023,2.418-2.024,7.027v13.829h-5.846V322.75a6.689,6.689,0,0,0-1.771-4.863,6.029,6.029,0,0,0-4.525-1.827,6.664,6.664,0,0,0-5.425,2.417q-2,2.418-2,7.027v13.829h-5.846V311.451h5.846V314.6a10.885,10.885,0,0,1,8.938-3.935,11.148,11.148,0,0,1,5.481,1.349,9.529,9.529,0,0,1,3.795,3.766,12.017,12.017,0,0,1,10.4-5.116A10.255,10.255,0,0,1,458.083,313.7Z" transform="translate(-328.421 -299.774)" fill="#ed1c24"/>
      <path id="Path_220" data-name="Path 220" d="M539.394,330.279l-13.435-15.01h-3.648v15.01H516.3V292.615h15.9a13.706,13.706,0,0,1,9.36,3.12,11.276,11.276,0,0,1,.337,16.133,13.066,13.066,0,0,1-8.629,3.345l13.6,15.066Zm-7.2-20.462a7.53,7.53,0,0,0,5-1.6,5.262,5.262,0,0,0,1.911-4.244A5.344,5.344,0,0,0,537.2,299.7a7.441,7.441,0,0,0-5-1.63h-9.888v11.749Z" transform="translate(-378.68 -290.719)" fill="#f7941e"/>
      <path id="Path_221" data-name="Path 221" d="M604.629,339.334h-5.847v-3.2a13.363,13.363,0,0,1-10.118,3.991,13.219,13.219,0,0,1-9.753-4.132,15.736,15.736,0,0,1,.028-21.165,13.2,13.2,0,0,1,9.726-4.16,13.363,13.363,0,0,1,10.118,3.992v-3.2h5.847Zm-8.6-7.055a9.986,9.986,0,0,0,0-13.773,8.925,8.925,0,0,0-6.408-2.67,8.792,8.792,0,0,0-6.521,2.615,10.613,10.613,0,0,0,0,13.885,8.791,8.791,0,0,0,6.521,2.614A8.922,8.922,0,0,0,596.028,332.279Z" transform="translate(-408.047 -299.774)" fill="#f7941e"/>
      <path id="Path_222" data-name="Path 222" d="M651.3,291.007a3.523,3.523,0,0,1,1.068,2.586,3.452,3.452,0,0,1-1.04,2.586,3.669,3.669,0,0,1-2.67,1.012,3.766,3.766,0,0,1-2.7-1.012,3.4,3.4,0,0,1-1.068-2.586,3.524,3.524,0,0,1,1.068-2.586,3.659,3.659,0,0,1,2.7-1.068A3.59,3.59,0,0,1,651.3,291.007Zm-5.566,37.93V301.053h5.847v27.883Z" transform="translate(-443.193 -289.377)" fill="#f7941e"/>
      <path id="Path_223" data-name="Path 223" d="M695.16,328.371h-5.9v-3.148a13.7,13.7,0,0,1-10.119,3.935,13.2,13.2,0,0,1-9.725-4.16,15.661,15.661,0,0,1,0-21.137,13.2,13.2,0,0,1,9.725-4.16,13.478,13.478,0,0,1,10.119,3.992V288.811h5.9Zm-8.657-7.027a10.021,10.021,0,0,0,0-13.8,8.925,8.925,0,0,0-6.409-2.671,8.678,8.678,0,0,0-6.465,2.642,10.576,10.576,0,0,0,0,13.858,8.722,8.722,0,0,0,6.465,2.614A8.972,8.972,0,0,0,686.5,321.344Z" transform="translate(-453.437 -288.811)" fill="#f7941e"/>
    </g>
    <g id="Group_229" data-name="Group 229" transform="translate(16.35 47.901)">
      <path id="Path_224" data-name="Path 224" d="M272.943,385.3H278.4a5.008,5.008,0,0,1,3.611,1.27,3.536,3.536,0,0,1,.979,2.54c0,2.1-1.452,3.339-3.447,3.7l3.9,5.189h-1.76L278,393.067h-3.629V398h-1.433Zm5.334,6.478c1.905,0,3.265-.98,3.265-2.649,0-1.56-1.2-2.5-3.247-2.5h-3.919v5.153Z" transform="translate(-272.943 -385.12)" fill="#ed1c24"/>
      <path id="Path_225" data-name="Path 225" d="M302.914,385.3h9.18v1.307h-7.747v4.336h6.931v1.306h-6.931V396.7h7.839V398h-9.272Z" transform="translate(-287.979 -385.12)" fill="#ed1c24"/>
      <path id="Path_226" data-name="Path 226" d="M334.559,385.119H335.9l5.787,12.792h-1.542l-1.488-3.357h-6.913l-1.506,3.357h-1.47Zm3.538,8.146-2.885-6.477-2.9,6.477Z" transform="translate(-300.951 -385.028)" fill="#ed1c24"/>
      <path id="Path_227" data-name="Path 227" d="M363.368,385.3H364.8v11.376h7.149V398h-8.582Z" transform="translate(-318.308 -385.12)" fill="#ed1c24"/>
      <path id="Path_228" data-name="Path 228" d="M407.722,385.119h1.342l5.787,12.792h-1.542l-1.488-3.357H404.91l-1.506,3.357h-1.47Zm3.538,8.146-2.885-6.477-2.9,6.477Z" transform="translate(-337.656 -385.028)" fill="#ed1c24"/>
      <path id="Path_229" data-name="Path 229" d="M436.531,385.3h4.409c3.992,0,6.75,2.74,6.75,6.351,0,3.574-2.758,6.351-6.75,6.351h-4.409Zm4.409,11.376a5.031,5.031,0,1,0,0-10.051h-2.975v10.051Z" transform="translate(-355.013 -385.12)" fill="#ed1c24"/>
      <path id="Path_230" data-name="Path 230" d="M464.829,385.3h1.6l4.518,10.941,4.536-10.941h1.542l-5.462,12.792h-1.27Z" transform="translate(-369.209 -385.12)" fill="#ed1c24"/>
      <path id="Path_231" data-name="Path 231" d="M497.969,385.3h9.181v1.307H499.4v4.336h6.931v1.306H499.4V396.7h7.838V398h-9.272Z" transform="translate(-385.835 -385.12)" fill="#ed1c24"/>
      <path id="Path_232" data-name="Path 232" d="M526.011,385.3h1.343l8,10.179V385.3h1.4V398h-1.143l-8.2-10.415V398h-1.4Z" transform="translate(-399.903 -385.12)" fill="#ed1c24"/>
      <path id="Path_233" data-name="Path 233" d="M560.867,386.626H556.6V385.3h9.979v1.325h-4.264V398h-1.452Z" transform="translate(-415.251 -385.12)" fill="#ed1c24"/>
      <path id="Path_234" data-name="Path 234" d="M585.264,392.686V385.3H586.7v7.294c0,2.74,1.452,4.282,3.882,4.282,2.341,0,3.829-1.415,3.829-4.191V385.3h1.434v7.276c0,3.7-2.123,5.624-5.3,5.624C587.4,398.2,585.264,396.278,585.264,392.686Z" transform="translate(-429.63 -385.12)" fill="#ed1c24"/>
      <path id="Path_235" data-name="Path 235" d="M616.947,385.3h5.462a5.007,5.007,0,0,1,3.61,1.27,3.533,3.533,0,0,1,.98,2.54c0,2.1-1.452,3.339-3.448,3.7l3.9,5.189h-1.76l-3.683-4.935h-3.629V398h-1.434Zm5.334,6.478c1.905,0,3.266-.98,3.266-2.649,0-1.56-1.2-2.5-3.248-2.5h-3.919v5.153Z" transform="translate(-445.524 -385.12)" fill="#ed1c24"/>
      <path id="Path_236" data-name="Path 236" d="M646.919,385.3H656.1v1.307h-7.748v4.336h6.931v1.306h-6.931V396.7h7.839V398h-9.272Z" transform="translate(-460.561 -385.12)" fill="#ed1c24"/>
      <path id="Path_237" data-name="Path 237" d="M673.286,395.969l.889-1.052a6.049,6.049,0,0,0,4.355,1.8c1.705,0,2.83-.907,2.83-2.2,0-1.179-.635-1.851-3.3-2.413-2.921-.635-4.264-1.579-4.264-3.7,0-2,1.76-3.466,4.174-3.466a6.624,6.624,0,0,1,4.463,1.561L681.6,387.6a5.579,5.579,0,0,0-3.666-1.379c-1.651,0-2.7.906-2.7,2.086,0,1.2.653,1.868,3.447,2.467,2.83.617,4.137,1.651,4.137,3.629,0,2.178-1.814,3.593-4.336,3.593A7.431,7.431,0,0,1,673.286,395.969Z" transform="translate(-473.789 -384.937)" fill="#ed1c24"/>
    </g>
  </g>
  <path id="Path_238" data-name="Path 238" d="M102.717,315.1,76.3,341.519a14.642,14.642,0,0,1-1.514-6.474v-8.321l19.774-19.774ZM86.024,298.412,74.788,309.647v12.458l17.464-17.464Zm3.494-15.038a14.73,14.73,0,0,0-14.73,14.73v6.923l21.653-21.653ZM114.077,340.1l22.077-22.077-8.718-8.719c-.341.765-.092,2.2.755,4.547-4.171-4.271-5.388-4.017-5.976,3.047-1.852-7.024-3.076-7.237-7.2-1.188,1.468-5.61,1.036-7.127-2.114-6.169L98.208,324.233ZM94.562,302.33l18.956-18.956H101.061L88.333,296.1Zm10.465,10.464,7.116-7.116a5.833,5.833,0,0,0-3.082-.748c3.1-2.015,2.849-3.231-.105-4.382,2.914-1.29,3.126-2.514-.123-4.578,4.143-.247,4.823-1.334,2.142-4.941,4.512,1.714,5.576,1,4.443-3.576,3.413,3.605,4.63,3.353,5.468-1.287,1.6,4.6,2.826,4.812,5.465,1.137-.136,1.893-.023,3.109.405,3.763l6.178-6.178a14.648,14.648,0,0,0-6.474-1.514h-8.32L96.872,304.641ZM95.9,326.544l-17.8,17.8a14.7,14.7,0,0,0,11.42,5.432h.35L104.5,335.145Zm39.859-39.86-5.707,5.708c-.71,2.32.272,3.028,3.13,2.9-2.492,2.435-2.239,3.652.481,4.66-2.68,1.432-2.892,2.656-.473,4.579-2.832.332-3.733,1.18-2.553,3.356L141.19,318.44V298.1A14.7,14.7,0,0,0,135.757,286.684Zm-19.37,55.729,7.363,7.363h2.709a14.73,14.73,0,0,0,14.73-14.73V323.061l-2.725-2.725Zm-7.363,7.363H119.13l-5.053-5.053Zm-2.216-12.321L94.488,349.776H104.4l7.363-7.363Zm20.4-44.537c-4.939,4.05-5.832,3.651-6.817-1.424-.988,5.074-1.88,5.474-6.13,2.522,2.957,4.245,2.557,5.137-2.548,6.114,5.105,1,5.5,1.889,2.553,6.1,4.244-2.921,5.137-2.521,6.106,2.462,1-4.984,1.9-5.383,6.909-1.374-3.721-5.3-3.321-6.195,4.1-7.243C123.962,299.153,123.562,298.26,127.209,292.917Z" transform="translate(-74.788 -283.374)" fill="url(#radial-gradient)"/>
</svg>
