<?xml version="1.0" encoding="utf-8"?>
<!-- Generator: Adobe Illustrator 23.0.1, SVG Export Plug-In . SVG Version: 6.00 Build 0)  -->
<svg version="1.1" id="Layer_1" xmlns="http://www.w3.org/2000/svg" xmlns:xlink="http://www.w3.org/1999/xlink" x="0px" y="0px"
	 viewBox="0 0 473 7560.2" style="enable-background:new 0 0 473 7560.2;" xml:space="preserve">
<style type="text/css">
	.st0{fill:none;stroke:#000000;stroke-miterlimit:10;}
	.st1{fill:url(#SVGID_1_);}
	.st2{fill:#2B2525;}
	.st3{fill:url(#SVGID_2_);}
	.st4{fill:url(#SVGID_3_);}
	.st5{fill:url(#SVGID_4_);}
	.st6{fill:url(#SVGID_5_);}
	.st7{fill:url(#SVGID_6_);}
	.st8{fill:url(#SVGID_7_);}
	.st9{fill:url(#SVGID_8_);}
	.st10{fill:url(#SVGID_9_);}
	.st11{fill:url(#SVGID_10_);}
	.st12{fill:url(#SVGID_11_);}
	.st13{fill:url(#SVGID_12_);}
</style>
<polyline class="st0" points="131.2,13.2 131.2,111.8 147.2,615.7 122.2,1004.7 79.2,1075.7 116.2,1291.7 122.5,1671.4 33.2,1853.7 
	52.6,2075.6 125.2,2161.7 144.3,3025.2 198.2,3148.7 116.2,3767.7 117.3,4030.8 74.2,4319.7 107.2,4882.7 104.2,5342.7 
	131.2,5403.7 131.2,5889.4 59.2,6094.7 95.3,6829.1 150.2,7044.7 131.2,7560.7 "/>
<g>
	<linearGradient id="SVGID_1_" gradientUnits="userSpaceOnUse" x1="59.7281" y1="6112.1582" x2="59.7281" y2="6076.1582">
		<stop  offset="0" style="stop-color:#EE2E23"/>
		<stop  offset="1" style="stop-color:#F5861E"/>
	</linearGradient>
	<circle class="st1" cx="59.7" cy="6094.2" r="18"/>
	<circle class="st2" cx="59.7" cy="6094.2" r="11"/>
</g>
<g>
	<linearGradient id="SVGID_2_" gradientUnits="userSpaceOnUse" x1="77.7281" y1="1094.1581" x2="77.7281" y2="1058.1581">
		<stop  offset="0" style="stop-color:#EE2E23"/>
		<stop  offset="1" style="stop-color:#F5861E"/>
	</linearGradient>
	<circle class="st3" cx="77.7" cy="1076.2" r="18"/>
	<circle class="st2" cx="77.7" cy="1076.2" r="11"/>
</g>
<g>
	<linearGradient id="SVGID_3_" gradientUnits="userSpaceOnUse" x1="130.7281" y1="24.1581" x2="130.7281" y2="0.1581">
		<stop  offset="0" style="stop-color:#EE2E23"/>
		<stop  offset="1" style="stop-color:#F5861E"/>
	</linearGradient>
	<circle class="st4" cx="130.7" cy="12.2" r="12"/>
	<circle class="st2" cx="130.7" cy="12.2" r="7.3"/>
</g>
<g>
	<linearGradient id="SVGID_4_" gradientUnits="userSpaceOnUse" x1="30.7281" y1="1870.1581" x2="30.7281" y2="1834.1581">
		<stop  offset="0" style="stop-color:#EE2E23"/>
		<stop  offset="1" style="stop-color:#F5861E"/>
	</linearGradient>
	<circle class="st5" cx="30.7" cy="1852.2" r="18"/>
	<circle class="st2" cx="30.7" cy="1852.2" r="11"/>
</g>
<g>
	<linearGradient id="SVGID_5_" gradientUnits="userSpaceOnUse" x1="124.7281" y1="2279.1582" x2="124.7281" y2="2243.1582">
		<stop  offset="0" style="stop-color:#EE2E23"/>
		<stop  offset="1" style="stop-color:#F5861E"/>
	</linearGradient>
	<circle class="st6" cx="124.7" cy="2261.2" r="18"/>
	<circle class="st2" cx="124.7" cy="2261.2" r="11"/>
</g>
<g>
	<linearGradient id="SVGID_6_" gradientUnits="userSpaceOnUse" x1="197.7281" y1="3167.1582" x2="197.7281" y2="3131.1582">
		<stop  offset="0" style="stop-color:#EE2E23"/>
		<stop  offset="1" style="stop-color:#F5861E"/>
	</linearGradient>
	<circle class="st7" cx="197.7" cy="3149.2" r="18"/>
	<circle class="st2" cx="197.7" cy="3149.2" r="11"/>
</g>
<g>
	<linearGradient id="SVGID_7_" gradientUnits="userSpaceOnUse" x1="115.7281" y1="3774.1582" x2="115.7281" y2="3738.1582">
		<stop  offset="0" style="stop-color:#EE2E23"/>
		<stop  offset="1" style="stop-color:#F5861E"/>
	</linearGradient>
	<circle class="st8" cx="115.7" cy="3756.2" r="18"/>
	<circle class="st2" cx="115.7" cy="3756.2" r="11"/>
</g>
<g>
	<linearGradient id="SVGID_8_" gradientUnits="userSpaceOnUse" x1="72.7281" y1="4340.1582" x2="72.7281" y2="4304.1582">
		<stop  offset="0" style="stop-color:#EE2E23"/>
		<stop  offset="1" style="stop-color:#F5861E"/>
	</linearGradient>
	<circle class="st9" cx="72.7" cy="4322.2" r="18"/>
	<circle class="st2" cx="72.7" cy="4322.2" r="11"/>
</g>
<g>
	<linearGradient id="SVGID_9_" gradientUnits="userSpaceOnUse" x1="106.7281" y1="4900.1582" x2="106.7281" y2="4864.1582">
		<stop  offset="0" style="stop-color:#EE2E23"/>
		<stop  offset="1" style="stop-color:#F5861E"/>
	</linearGradient>
	<circle class="st10" cx="106.7" cy="4882.2" r="18"/>
	<circle class="st2" cx="106.7" cy="4882.2" r="11"/>
</g>
<g>
	<linearGradient id="SVGID_10_" gradientUnits="userSpaceOnUse" x1="130.7281" y1="5421.1582" x2="130.7281" y2="5385.1582">
		<stop  offset="0" style="stop-color:#EE2E23"/>
		<stop  offset="1" style="stop-color:#F5861E"/>
	</linearGradient>
	<circle class="st11" cx="130.7" cy="5403.2" r="18"/>
	<circle class="st2" cx="130.7" cy="5403.2" r="11"/>
</g>
<g>
	<linearGradient id="SVGID_11_" gradientUnits="userSpaceOnUse" x1="149.7281" y1="7062.1582" x2="149.7281" y2="7026.1582">
		<stop  offset="0" style="stop-color:#EE2E23"/>
		<stop  offset="1" style="stop-color:#F5861E"/>
	</linearGradient>
	<circle class="st12" cx="149.7" cy="7044.2" r="18"/>
	<circle class="st2" cx="149.7" cy="7044.2" r="11"/>
</g>
<g>
	<linearGradient id="SVGID_12_" gradientUnits="userSpaceOnUse" x1="130.7281" y1="7560.1582" x2="130.7281" y2="7524.1582">
		<stop  offset="0" style="stop-color:#EE2E23"/>
		<stop  offset="1" style="stop-color:#F5861E"/>
	</linearGradient>
	<circle class="st13" cx="130.7" cy="7542.2" r="18"/>
	<circle class="st2" cx="130.7" cy="7542.2" r="11"/>
</g>
<path class="st0" d="M121.5,1608.5"/>
</svg>
