<?xml version="1.0" encoding="utf-8"?>
<!-- Generator: Adobe Illustrator 23.0.1, SVG Export Plug-In . SVG Version: 6.00 Build 0)  -->
<svg version="1.1" id="route" xmlns="http://www.w3.org/2000/svg" xmlns:xlink="http://www.w3.org/1999/xlink" x="0px" y="0px"
	 viewBox="0 0 1920 1080" style="enable-background:new 0 0 1920 1080;" xml:space="preserve">
<style type="text/css">
	.st0{fill:none;stroke:#000000;stroke-miterlimit:10;}
</style>
<path id="section7" class="st0" d="M768.1-4320c0,0-36,108-46.2,147.1s11.9,146.3,11.9,146.3l-14.6,56.1v37.4l7.8,40.8l-7.8,49.3
	v151.4l33.3,81.6l-10.7,30.6L728.7-3433l49.3,124.2v68.9"/>
<path id="section6" class="st0" d="M768.1-2160c0,0-36-123.2-46.2-162.3s11.9-146.3,11.9-146.3l-14.6-56.1v-37.4l7.8-40.8l-7.8-49.3
	v-151.4l33.3-81.6l-10.7-30.6l-13.1-146.3l49.3-124.2v-68.9"/>
<polyline id="section5" class="st0" points="768.1,-2160 790.8,-2115.8 814.9,-2078.6 825.9,-2058 822.5,-2023.9 812.9,-2008.3 
	810,-1968.7 822.5,-1917.4 820.5,-1904 819.7,-1871.4 825.9,-1843.7 820.8,-1774.5 828.7,-1758.3 914.6,-1592.8 949.8,-1451.1 
	902.2,-1247 894.2,-1080 "/>
<polyline id="section4" class="st0" points="705.4,2160 728.1,2115.8 752.2,2078.6 763.2,2058 759.8,2023.9 750.2,2008.3 
	747.4,1968.7 759.8,1917.4 757.9,1904 757,1871.4 763.2,1843.7 758.1,1774.5 766.1,1758.3 852,1592.8 887.1,1451.1 839.5,1247 
	831.6,1080 "/>
<polyline id="section3" class="st0" points="705.4,2160 728.1,2204.2 752.2,2241.4 763.2,2262 759.8,2296.1 750.2,2311.7 
	747.4,2351.3 759.8,2402.6 757.9,2416 757,2448.6 763.2,2476.3 758.1,2545.5 766.1,2561.7 852,2727.2 887.1,2868.9 839.5,3073 
	831.6,3240 "/>
<polyline id="section2" class="st0" points="768.1,0 790.8,-44.2 814.9,-81.4 825.9,-102 822.5,-136.1 812.9,-151.7 810,-191.3 
	822.5,-242.6 820.5,-256 819.7,-288.6 825.9,-316.3 820.8,-385.5 828.7,-401.7 914.6,-567.2 949.8,-708.9 902.2,-913 894.2,-1080 
	"/>
<polyline id="section1" class="st0" points="773.8,0 657.3,101.2 530.5,265.3 477.8,398.8 553.5,550.2 613,607.2 808.6,562.1 
	845.2,607.2 845.2,710.1 828.2,831.7 831.6,1026.4 831.6,1080 "/>
</svg>
