<svg id="paypal" xmlns="http://www.w3.org/2000/svg" width="102.937" height="24.939" viewBox="0 0 102.937 24.939">
  <path id="Path_13257" data-name="Path 13257" d="M175.127,386.87h7.035c3.776,0,5.2,1.912,4.979,4.725-.362,4.638-3.166,7.2-6.885,7.2h-1.878c-.51,0-.853.337-.991,1.253l-.806,5.317c-.052.345-.234.548-.507.573h-4.411c-.415,0-.563-.318-.454-1.005l2.694-17.056A1.075,1.075,0,0,1,175.127,386.87Z" transform="translate(-166.146 -381)" fill="#0094cb" fill-rule="evenodd"/>
  <path id="Path_13258" data-name="Path 13258" d="M319.239,385.134c2.374,0,4.563,1.287,4.264,4.5-.355,3.8-2.406,5.923-5.631,5.932h-2.813c-.406,0-.6.33-.707,1.008l-.543,3.463c-.082.523-.35.781-.747.781h-2.62c-.418,0-.564-.267-.471-.864l2.166-13.88c.107-.682.368-.936.83-.936Zm-4.268,7.43h2.134c1.334-.05,2.221-.974,2.31-2.641a1.611,1.611,0,0,0-1.747-1.761l-2.009.009-.688,4.393Zm15.653,7.187c.239-.217.484-.331.448-.062l-.085.643c-.044.335.089.514.4.514h2.328c.391,0,.583-.159.679-.765l1.434-9c.072-.452-.037-.674-.381-.674h-2.559c-.231,0-.343.13-.4.482l-.095.554c-.05.289-.182.339-.3.048-.435-1.028-1.542-1.489-3.1-1.457-3.59.074-6.011,2.8-6.27,6.293a4.326,4.326,0,0,0,4.288,4.824,4.626,4.626,0,0,0,3.613-1.4Zm-1.948-1.383a2.338,2.338,0,0,1-2.4-2.744,3.343,3.343,0,0,1,3.214-2.744,2.338,2.338,0,0,1,2.4,2.744,3.342,3.342,0,0,1-3.214,2.744Zm11.712-7.992h-2.352c-.487,0-.685.357-.53.81l2.93,8.582-2.887,4.082c-.241.341-.055.652.285.652h2.653a.812.812,0,0,0,.789-.387l9.012-12.928c.278-.4.147-.815-.308-.815l-2.508,0c-.43,0-.6.17-.85.528l-3.759,5.454-1.672-5.463A.723.723,0,0,0,340.389,390.376Z" transform="translate(-279.719 -379.58)" fill="#003082" fill-rule="evenodd"/>
  <path id="Path_13259" data-name="Path 13259" d="M541.906,385.134c2.374,0,4.564,1.287,4.264,4.5-.355,3.8-2.406,5.923-5.631,5.932h-2.813c-.406,0-.6.33-.707,1.008l-.543,3.463c-.082.523-.35.781-.747.781h-2.62c-.418,0-.564-.267-.471-.864l2.166-13.88c.107-.682.368-.936.831-.936Zm-4.268,7.43h2.134c1.334-.05,2.221-.974,2.31-2.641a1.611,1.611,0,0,0-1.747-1.761l-2.009.009-.688,4.393Zm15.653,7.187c.239-.217.484-.331.448-.062l-.085.643c-.044.335.089.514.4.514h2.327c.391,0,.583-.159.679-.765l1.434-9c.072-.452-.037-.674-.381-.674h-2.559c-.231,0-.343.13-.4.482l-.095.554c-.049.289-.182.339-.3.048-.435-1.028-1.542-1.489-3.1-1.457-3.59.074-6.011,2.8-6.27,6.293a4.326,4.326,0,0,0,4.288,4.824,4.626,4.626,0,0,0,3.613-1.4Zm-1.948-1.383a2.338,2.338,0,0,1-2.4-2.744,3.342,3.342,0,0,1,3.214-2.744,2.338,2.338,0,0,1,2.4,2.744,3.342,3.342,0,0,1-3.214,2.744Zm10.736,2.495h-2.687a.317.317,0,0,1-.329-.372l2.362-14.953a.464.464,0,0,1,.447-.372h2.686a.317.317,0,0,1,.329.372l-2.362,14.953A.463.463,0,0,1,562.08,400.862Z" transform="translate(-461.957 -379.58)" fill="#0094cb" fill-rule="evenodd"/>
  <path id="Path_13260" data-name="Path 13260" d="M148.063,354.543H155.1c1.983,0,4.336.065,5.909,1.452a4.767,4.767,0,0,1,1.475,3.99c-.432,5.377-3.648,8.389-7.961,8.389h-3.473c-.591,0-.983.392-1.15,1.453l-.969,6.165c-.063.4-.236.636-.553.664h-4.338c-.481,0-.653-.368-.527-1.166l3.124-19.777A1.247,1.247,0,0,1,148.063,354.543Z" transform="translate(-143.479 -354.543)" fill="#003082" fill-rule="evenodd"/>
  <path id="Path_13261" data-name="Path 13261" d="M179.427,395.662l1.23-7.783a1.075,1.075,0,0,1,1.225-1.009h7.035a6.872,6.872,0,0,1,2.843.517c-.707,4.785-3.8,7.444-7.855,7.444h-3.473C179.974,394.831,179.632,395.065,179.427,395.662Z" transform="translate(-172.9 -381)" fill="#00236d" fill-rule="evenodd"/>
</svg>
