<svg id="teambuilding" xmlns="http://www.w3.org/2000/svg" width="45.584" height="45.584" viewBox="0 0 45.584 45.584">
  <g id="Group_1272" data-name="Group 1272">
    <path id="Path_2007" data-name="Path 2007" d="M44.3,28.707l-1.728-1.5a2.383,2.383,0,0,1-.821-1.8v-10.8l1.461,0a2.368,2.368,0,0,0,1.128-4.45,2.366,2.366,0,0,0-1.509-3.62,2.366,2.366,0,0,0-1.949-3.427A2.217,2.217,0,0,0,38.855,0h-7.34a3.717,3.717,0,0,0-2.808,1.28l-1.5,1.728a2.384,2.384,0,0,1-1.8.821h-10.8l0-1.461a2.368,2.368,0,0,0-4.45-1.128,2.366,2.366,0,0,0-3.62,1.509A2.366,2.366,0,0,0,3.108,4.7,2.217,2.217,0,0,0,0,6.729V9.5a.667.667,0,1,0,1.334,0V6.729a.884.884,0,1,1,1.767,0V7.8a.667.667,0,0,0,1.334,0V4.863a1.033,1.033,0,0,1,2.055-.149L6.5,7.8a.667.667,0,0,0,.667.666h0A.667.667,0,0,0,7.838,7.8L7.823,3.219a1.033,1.033,0,0,1,2.048-.2L9.88,7.8a.667.667,0,0,0,.667.666h.023a.667.667,0,0,0,.666-.669L11.2,2.368a1.034,1.034,0,1,1,2.067,0L13.281,7.8c0,.011,0,.021,0,.032l-.174,1.31a.667.667,0,1,0,1.323.176l.186-1.4a1.221,1.221,0,0,1,1.537-.866,1.222,1.222,0,0,1,.834,1.454.686.686,0,0,0-.014.078L16.284,14.5a2.382,2.382,0,0,1-1.041,1.7l-1.377.923a3.713,3.713,0,0,0-1.649,3.09V23.05H5.163V20.179a3.717,3.717,0,0,0-1.28-2.808l-1.728-1.5a2.384,2.384,0,0,1-.821-1.8V12.561a.667.667,0,0,0-1.334,0v1.508a3.718,3.718,0,0,0,1.28,2.808l1.728,1.5a2.384,2.384,0,0,1,.821,1.8v10.8l-1.461,0a2.368,2.368,0,0,0-1.128,4.45,2.366,2.366,0,0,0,1.509,3.62A2.366,2.366,0,0,0,4.7,42.476a2.217,2.217,0,0,0,2.031,3.108h7.34a3.717,3.717,0,0,0,2.808-1.28l1.5-1.728a2.384,2.384,0,0,1,1.8-.821h5.074a.667.667,0,1,0,0-1.334h-.869V33.367h3.306l-.4,3.44a2.555,2.555,0,0,0,3.679,2.818v.8H28.337a.667.667,0,1,0,0,1.334h2.639l0,1.461a2.368,2.368,0,0,0,4.45,1.128,2.366,2.366,0,0,0,3.62-1.509,2.366,2.366,0,0,0,3.427-1.949,2.217,2.217,0,0,0,3.108-2.031v-7.34a3.718,3.718,0,0,0-1.28-2.808ZM22.534,5.163h2.871a3.717,3.717,0,0,0,2.808-1.28l1.5-1.728a2.384,2.384,0,0,1,1.8-.821h7.34a.884.884,0,0,1,0,1.768H37.783a.667.667,0,1,0,0,1.334h2.938a1.033,1.033,0,0,1,.149,2.055L37.782,6.5a.667.667,0,0,0-.666.669v0h0a.667.667,0,0,0,.667.668l4.583-.015a1.033,1.033,0,0,1,.2,2.048l-4.783.009a.667.667,0,0,0-.666.669s0,.007,0,.01,0,.007,0,.011a.667.667,0,0,0,.667.666h0l5.431-.032a1.034,1.034,0,1,1,0,2.067l-5.428.011-.032,0-1.31-.174a.667.667,0,0,0-.176,1.323l1.4.186a1.221,1.221,0,0,1,.866,1.537,1.222,1.222,0,0,1-1.454.834A.668.668,0,0,0,37,16.974l-5.913-.691a2.381,2.381,0,0,1-1.7-1.041l-.923-1.377a3.713,3.713,0,0,0-3.089-1.649H22.534V5.163Zm17.09,9.449.8,0V21.2H33.367V17.894l3.44.4a2.555,2.555,0,0,0,2.817-3.683ZM16.541,5.776a2.567,2.567,0,0,0-1.925.182V5.163H21.2v7.054H17.894l.4-3.44A2.558,2.558,0,0,0,16.541,5.776ZM5.163,24.385h7.054v3.306l-3.44-.4a2.555,2.555,0,0,0-2.819,3.679H5.163ZM23.05,40.421H20.179a3.718,3.718,0,0,0-2.808,1.28l-1.5,1.728a2.384,2.384,0,0,1-1.8.821H6.729a.884.884,0,0,1,0-1.768H7.8a.667.667,0,0,0,0-1.334H4.863a1.033,1.033,0,0,1-.149-2.055L7.8,39.086a.667.667,0,0,0,.666-.669v0h0a.667.667,0,0,0-.667-.668l-4.583.015a1.033,1.033,0,0,1-.2-2.048L7.8,35.7a.667.667,0,0,0,.666-.669s0-.007,0-.01,0-.007,0-.011a.667.667,0,0,0-.667-.666h0l-5.432.032a1.034,1.034,0,1,1,0-2.067L7.8,32.3l.032,0,1.31.174a.667.667,0,0,0,.176-1.323l-1.4-.186a1.221,1.221,0,0,1-.866-1.537A1.223,1.223,0,0,1,8.507,28.6a.664.664,0,0,0,.078.014L14.5,29.3a2.381,2.381,0,0,1,1.7,1.041l.923,1.377a3.713,3.713,0,0,0,3.089,1.649H23.05v7.054Zm4.925-9.49-.129,1.1H20.215a2.381,2.381,0,0,1-1.981-1.057L17.312,29.6a3.714,3.714,0,0,0-2.658-1.623l-1.1-.129V20.215a2.38,2.38,0,0,1,1.057-1.981l1.377-.923a3.714,3.714,0,0,0,1.623-2.658l.129-1.1h7.631a2.381,2.381,0,0,1,1.981,1.057l.923,1.377a3.714,3.714,0,0,0,2.658,1.624l1.1.129v7.631a2.381,2.381,0,0,1-1.057,1.981l-1.377.923A3.714,3.714,0,0,0,27.975,30.931ZM44.25,38.855a.884.884,0,1,1-1.768,0V37.783a.667.667,0,0,0-1.334,0v2.938a1.033,1.033,0,0,1-2.055.149l-.007-3.089a.667.667,0,0,0-.667-.666h-.005a.667.667,0,0,0-.667.667l.015,4.583a1.033,1.033,0,0,1-2.048.2L35.7,37.782a.667.667,0,0,0-.667-.666h-.023a.667.667,0,0,0-.666.669l.032,5.431a1.034,1.034,0,1,1-2.067,0L32.3,37.787c0-.011,0-.022,0-.032l.174-1.31a.667.667,0,0,0-1.323-.176l-.186,1.4a1.221,1.221,0,0,1-1.537.866,1.222,1.222,0,0,1-.834-1.454A.67.67,0,0,0,28.61,37l.691-5.913a2.382,2.382,0,0,1,1.041-1.7l1.377-.923a3.713,3.713,0,0,0,1.649-3.089V22.534h7.054v2.871a3.718,3.718,0,0,0,1.28,2.808l1.728,1.5a2.384,2.384,0,0,1,.821,1.8Z" transform="translate(0)" fill="#fff"/>
  </g>
</svg>
